%TF.GenerationSoftware,Altium Limited,Altium Designer,20.0.1 (14)*%
G04 Layer_Color=32896*
%FSLAX25Y25*%
%MOIN*%
%TF.FileFunction,Legend,Bot*%
%TF.Part,Single*%
G01*
G75*
%TA.AperFunction,NonConductor*%
%ADD32C,0.00984*%
%ADD33C,0.00800*%
%ADD34C,0.02362*%
%ADD35C,0.00787*%
%ADD36C,0.01000*%
G36*
X627624Y36322D02*
X608024D01*
Y44947D01*
X627624D01*
Y36322D01*
D02*
G37*
G36*
X630000Y-209378D02*
X605337D01*
Y-200748D01*
X630000D01*
Y-209378D01*
D02*
G37*
%LPC*%
G36*
X619185Y42870D02*
X618282D01*
Y40446D01*
Y40443D01*
Y40440D01*
Y40432D01*
Y40421D01*
Y40391D01*
Y40353D01*
Y40307D01*
X618279Y40255D01*
Y40198D01*
X618276Y40137D01*
X618273Y40009D01*
X618271Y39946D01*
X618268Y39886D01*
X618265Y39832D01*
X618260Y39780D01*
X618254Y39733D01*
X618249Y39698D01*
Y39695D01*
X618246Y39687D01*
X618241Y39671D01*
X618235Y39652D01*
X618227Y39630D01*
X618219Y39602D01*
X618205Y39572D01*
X618192Y39540D01*
X618175Y39504D01*
X618153Y39469D01*
X618131Y39433D01*
X618107Y39395D01*
X618077Y39359D01*
X618044Y39324D01*
X618009Y39288D01*
X617970Y39256D01*
X617968Y39253D01*
X617959Y39248D01*
X617949Y39239D01*
X617930Y39231D01*
X617908Y39217D01*
X617880Y39204D01*
X617850Y39190D01*
X617815Y39174D01*
X617774Y39157D01*
X617730Y39144D01*
X617681Y39130D01*
X617626Y39116D01*
X617569Y39108D01*
X617509Y39100D01*
X617444Y39095D01*
X617375Y39092D01*
X617337D01*
X617312Y39095D01*
X617280Y39097D01*
X617244Y39100D01*
X617203Y39106D01*
X617160Y39111D01*
X617064Y39130D01*
X617018Y39144D01*
X616968Y39157D01*
X616922Y39176D01*
X616876Y39196D01*
X616835Y39220D01*
X616797Y39248D01*
X616794Y39250D01*
X616788Y39256D01*
X616777Y39264D01*
X616764Y39275D01*
X616750Y39291D01*
X616731Y39310D01*
X616712Y39332D01*
X616693Y39357D01*
X616652Y39411D01*
X616614Y39477D01*
X616581Y39553D01*
X616567Y39594D01*
X616559Y39635D01*
Y39638D01*
X616556Y39646D01*
Y39660D01*
X616554Y39679D01*
X616548Y39703D01*
X616545Y39736D01*
X616543Y39772D01*
X616537Y39815D01*
X616535Y39865D01*
X616532Y39922D01*
X616526Y39985D01*
X616524Y40053D01*
X616521Y40127D01*
Y40209D01*
X616518Y40299D01*
Y40394D01*
Y42870D01*
X615615D01*
Y40389D01*
X615617Y40356D01*
Y40323D01*
Y40247D01*
X615620Y40165D01*
X615623Y40075D01*
X615628Y39982D01*
X615634Y39889D01*
X615639Y39794D01*
X615645Y39701D01*
X615653Y39611D01*
X615664Y39526D01*
X615674Y39450D01*
X615683Y39414D01*
X615688Y39381D01*
Y39379D01*
X615691Y39368D01*
X615696Y39349D01*
X615702Y39327D01*
X615710Y39297D01*
X615721Y39264D01*
X615735Y39226D01*
X615748Y39187D01*
X615786Y39097D01*
X615833Y39005D01*
X615860Y38955D01*
X615890Y38909D01*
X615923Y38863D01*
X615958Y38819D01*
X615961Y38816D01*
X615967Y38808D01*
X615977Y38797D01*
X615994Y38781D01*
X616013Y38762D01*
X616038Y38740D01*
X616065Y38715D01*
X616098Y38688D01*
X616133Y38658D01*
X616174Y38631D01*
X616218Y38601D01*
X616264Y38568D01*
X616313Y38540D01*
X616368Y38510D01*
X616425Y38483D01*
X616485Y38456D01*
X616488Y38453D01*
X616502Y38450D01*
X616518Y38445D01*
X616545Y38434D01*
X616578Y38426D01*
X616619Y38415D01*
X616666Y38401D01*
X616717Y38390D01*
X616775Y38377D01*
X616840Y38366D01*
X616911Y38352D01*
X616988Y38344D01*
X617069Y38336D01*
X617157Y38328D01*
X617250Y38325D01*
X617348Y38322D01*
X617408D01*
X617454Y38325D01*
X617506Y38328D01*
X617569Y38330D01*
X617637Y38333D01*
X617711Y38341D01*
X617788Y38347D01*
X617867Y38357D01*
X618028Y38382D01*
X618107Y38399D01*
X618183Y38420D01*
X618254Y38442D01*
X618320Y38467D01*
X618323Y38469D01*
X618333Y38475D01*
X618353Y38483D01*
X618374Y38494D01*
X618402Y38508D01*
X618435Y38527D01*
X618470Y38546D01*
X618508Y38570D01*
X618549Y38595D01*
X618593Y38625D01*
X618680Y38691D01*
X618765Y38764D01*
X618806Y38805D01*
X618844Y38849D01*
X618847Y38852D01*
X618852Y38860D01*
X618863Y38873D01*
X618874Y38890D01*
X618890Y38912D01*
X618907Y38939D01*
X618926Y38966D01*
X618948Y39002D01*
X618970Y39037D01*
X618989Y39075D01*
X619032Y39160D01*
X619068Y39253D01*
X619084Y39299D01*
X619098Y39349D01*
Y39354D01*
X619101Y39368D01*
X619106Y39390D01*
X619112Y39419D01*
X619117Y39461D01*
X619125Y39510D01*
X619133Y39567D01*
X619142Y39635D01*
X619150Y39709D01*
X619158Y39794D01*
X619166Y39886D01*
X619172Y39990D01*
X619177Y40099D01*
X619183Y40219D01*
X619185Y40348D01*
Y42870D01*
D02*
G37*
G36*
X614984D02*
X611427D01*
Y42114D01*
X612753D01*
Y38396D01*
X613657D01*
Y42114D01*
X614984D01*
Y42870D01*
D02*
G37*
G36*
X622063Y42947D02*
X622019D01*
X621994Y42944D01*
X621967D01*
X621934Y42941D01*
X621899Y42939D01*
X621858Y42933D01*
X621814Y42928D01*
X621768Y42922D01*
X621719Y42914D01*
X621664Y42906D01*
X621609Y42895D01*
X621492Y42870D01*
X621369Y42838D01*
X621241Y42796D01*
X621110Y42747D01*
X620976Y42687D01*
X620911Y42655D01*
X620845Y42616D01*
X620780Y42578D01*
X620717Y42534D01*
X620654Y42491D01*
X620594Y42442D01*
X620537Y42387D01*
X620479Y42332D01*
X620477Y42330D01*
X620474Y42324D01*
X620466Y42316D01*
X620455Y42305D01*
X620441Y42289D01*
X620425Y42270D01*
X620406Y42245D01*
X620387Y42221D01*
X620365Y42191D01*
X620340Y42158D01*
X620316Y42122D01*
X620291Y42081D01*
X620264Y42038D01*
X620236Y41991D01*
X620209Y41942D01*
X620182Y41890D01*
X620154Y41833D01*
X620127Y41776D01*
X620100Y41713D01*
X620073Y41647D01*
X620048Y41579D01*
X620023Y41508D01*
X619999Y41431D01*
X619977Y41355D01*
X619958Y41273D01*
X619939Y41191D01*
X619922Y41104D01*
X619909Y41014D01*
X619898Y40921D01*
X619890Y40826D01*
X619887Y40727D01*
X619884Y40626D01*
Y40580D01*
X619887Y40552D01*
Y40522D01*
X619890Y40487D01*
X619892Y40449D01*
X619898Y40405D01*
X619903Y40356D01*
X619909Y40304D01*
X619914Y40252D01*
X619922Y40195D01*
X619933Y40135D01*
X619958Y40009D01*
X619988Y39875D01*
X620029Y39736D01*
X620075Y39594D01*
X620133Y39455D01*
X620165Y39384D01*
X620201Y39316D01*
X620239Y39248D01*
X620280Y39179D01*
X620324Y39114D01*
X620370Y39051D01*
X620419Y38991D01*
X620474Y38931D01*
X620477Y38928D01*
X620479Y38925D01*
X620490Y38917D01*
X620501Y38903D01*
X620517Y38890D01*
X620534Y38873D01*
X620556Y38857D01*
X620580Y38835D01*
X620610Y38813D01*
X620640Y38789D01*
X620676Y38764D01*
X620711Y38737D01*
X620752Y38712D01*
X620796Y38682D01*
X620842Y38655D01*
X620892Y38628D01*
X620943Y38598D01*
X620998Y38570D01*
X621058Y38543D01*
X621118Y38516D01*
X621181Y38489D01*
X621246Y38464D01*
X621388Y38418D01*
X621539Y38379D01*
X621700Y38349D01*
X621781Y38338D01*
X621869Y38330D01*
X621959Y38325D01*
X622049Y38322D01*
X622093D01*
X622117Y38325D01*
X622145D01*
X622177Y38328D01*
X622216Y38333D01*
X622254Y38336D01*
X622297Y38341D01*
X622347Y38347D01*
X622396Y38355D01*
X622450Y38363D01*
X622505Y38374D01*
X622622Y38399D01*
X622748Y38431D01*
X622876Y38469D01*
X623007Y38519D01*
X623141Y38579D01*
X623207Y38611D01*
X623272Y38647D01*
X623338Y38685D01*
X623400Y38729D01*
X623463Y38772D01*
X623523Y38822D01*
X623581Y38873D01*
X623638Y38928D01*
X623641Y38931D01*
X623643Y38936D01*
X623652Y38945D01*
X623663Y38955D01*
X623676Y38972D01*
X623693Y38991D01*
X623709Y39013D01*
X623731Y39040D01*
X623753Y39070D01*
X623774Y39103D01*
X623799Y39138D01*
X623824Y39176D01*
X623851Y39220D01*
X623878Y39264D01*
X623906Y39313D01*
X623933Y39365D01*
X623960Y39422D01*
X623987Y39480D01*
X624015Y39540D01*
X624042Y39605D01*
X624066Y39673D01*
X624091Y39742D01*
X624113Y39815D01*
X624135Y39892D01*
X624154Y39971D01*
X624173Y40053D01*
X624189Y40137D01*
X624203Y40225D01*
X624214Y40318D01*
X624222Y40411D01*
X624225Y40506D01*
X624228Y40604D01*
Y40651D01*
X624225Y40670D01*
Y40694D01*
Y40719D01*
X624222Y40776D01*
X624217Y40845D01*
X624211Y40921D01*
X624203Y41006D01*
X624192Y41093D01*
X624179Y41186D01*
X624162Y41281D01*
X624140Y41380D01*
X624118Y41475D01*
X624091Y41571D01*
X624058Y41664D01*
X624023Y41754D01*
X624020Y41756D01*
X624015Y41770D01*
X624007Y41786D01*
X623996Y41811D01*
X623979Y41841D01*
X623960Y41877D01*
X623938Y41915D01*
X623914Y41958D01*
X623886Y42005D01*
X623854Y42054D01*
X623821Y42103D01*
X623783Y42155D01*
X623744Y42210D01*
X623701Y42261D01*
X623608Y42365D01*
X623605Y42368D01*
X623597Y42376D01*
X623581Y42393D01*
X623561Y42409D01*
X623537Y42433D01*
X623507Y42458D01*
X623474Y42488D01*
X623436Y42518D01*
X623395Y42551D01*
X623349Y42584D01*
X623302Y42619D01*
X623250Y42652D01*
X623141Y42717D01*
X623084Y42745D01*
X623026Y42772D01*
X623021Y42775D01*
X623007Y42780D01*
X622986Y42788D01*
X622953Y42799D01*
X622912Y42813D01*
X622865Y42827D01*
X622811Y42843D01*
X622748Y42859D01*
X622682Y42876D01*
X622609Y42892D01*
X622527Y42906D01*
X622442Y42919D01*
X622355Y42930D01*
X622262Y42939D01*
X622164Y42944D01*
X622063Y42947D01*
D02*
G37*
%LPD*%
G36*
X622106Y42171D02*
X622145Y42169D01*
X622191Y42163D01*
X622246Y42155D01*
X622308Y42141D01*
X622374Y42128D01*
X622445Y42106D01*
X622519Y42081D01*
X622592Y42051D01*
X622669Y42013D01*
X622745Y41969D01*
X622819Y41917D01*
X622887Y41860D01*
X622955Y41792D01*
X622958Y41786D01*
X622969Y41773D01*
X622988Y41751D01*
X623007Y41721D01*
X623035Y41680D01*
X623065Y41631D01*
X623095Y41571D01*
X623125Y41505D01*
X623157Y41429D01*
X623187Y41341D01*
X623217Y41249D01*
X623242Y41145D01*
X623264Y41030D01*
X623283Y40907D01*
X623294Y40776D01*
X623297Y40637D01*
Y40634D01*
Y40629D01*
Y40618D01*
Y40604D01*
X623294Y40585D01*
Y40563D01*
Y40539D01*
X623291Y40512D01*
X623288Y40481D01*
X623286Y40449D01*
X623278Y40375D01*
X623267Y40293D01*
X623253Y40209D01*
X623234Y40116D01*
X623209Y40020D01*
X623182Y39925D01*
X623149Y39829D01*
X623108Y39736D01*
X623062Y39646D01*
X623007Y39562D01*
X622944Y39482D01*
X622939Y39477D01*
X622928Y39466D01*
X622909Y39447D01*
X622882Y39422D01*
X622846Y39392D01*
X622805Y39359D01*
X622756Y39324D01*
X622702Y39288D01*
X622639Y39250D01*
X622571Y39215D01*
X622500Y39182D01*
X622420Y39152D01*
X622336Y39127D01*
X622246Y39108D01*
X622150Y39097D01*
X622052Y39092D01*
X622027D01*
X622000Y39095D01*
X621962Y39097D01*
X621915Y39103D01*
X621863Y39114D01*
X621803Y39125D01*
X621738Y39141D01*
X621670Y39160D01*
X621599Y39187D01*
X621525Y39217D01*
X621451Y39256D01*
X621378Y39299D01*
X621304Y39351D01*
X621233Y39411D01*
X621167Y39480D01*
X621165Y39485D01*
X621154Y39499D01*
X621135Y39520D01*
X621113Y39553D01*
X621088Y39594D01*
X621058Y39643D01*
X621025Y39703D01*
X620993Y39772D01*
X620962Y39851D01*
X620930Y39935D01*
X620900Y40031D01*
X620875Y40137D01*
X620853Y40252D01*
X620834Y40375D01*
X620823Y40506D01*
X620821Y40648D01*
Y40651D01*
Y40656D01*
Y40667D01*
Y40681D01*
Y40700D01*
X620823Y40722D01*
Y40746D01*
X620826Y40774D01*
X620829Y40804D01*
X620831Y40839D01*
X620840Y40913D01*
X620848Y40992D01*
X620861Y41079D01*
X620881Y41172D01*
X620902Y41265D01*
X620930Y41361D01*
X620962Y41456D01*
X621001Y41549D01*
X621047Y41636D01*
X621099Y41721D01*
X621159Y41795D01*
X621162Y41800D01*
X621175Y41811D01*
X621195Y41830D01*
X621219Y41855D01*
X621255Y41882D01*
X621296Y41915D01*
X621342Y41950D01*
X621397Y41986D01*
X621457Y42018D01*
X621525Y42054D01*
X621599Y42087D01*
X621678Y42114D01*
X621762Y42139D01*
X621852Y42158D01*
X621951Y42169D01*
X622052Y42174D01*
X622076D01*
X622106Y42171D01*
D02*
G37*
%LPC*%
G36*
X619420Y-202824D02*
X618540D01*
X616709Y-205814D01*
Y-202824D01*
X615868D01*
Y-207299D01*
X616777D01*
X618581Y-204380D01*
Y-207299D01*
X619420D01*
Y-202824D01*
D02*
G37*
G36*
X623602D02*
X620282D01*
Y-203580D01*
X622698D01*
Y-204574D01*
X620449D01*
Y-205328D01*
X622698D01*
Y-206545D01*
X620198D01*
Y-207299D01*
X623602D01*
Y-202824D01*
D02*
G37*
G36*
X610744D02*
X607424D01*
Y-203580D01*
X609840D01*
Y-204574D01*
X607590D01*
Y-205328D01*
X609840D01*
Y-206545D01*
X607339D01*
Y-207299D01*
X610744D01*
Y-202824D01*
D02*
G37*
G36*
X626206Y-202748D02*
X626149D01*
X626124Y-202751D01*
X626097D01*
X626067Y-202753D01*
X626034Y-202756D01*
X625999Y-202759D01*
X625917Y-202767D01*
X625827Y-202778D01*
X625731Y-202794D01*
X625630Y-202813D01*
X625527Y-202838D01*
X625420Y-202868D01*
X625314Y-202904D01*
X625213Y-202944D01*
X625114Y-202994D01*
X625022Y-203051D01*
X624937Y-203116D01*
X624931Y-203122D01*
X624918Y-203133D01*
X624899Y-203155D01*
X624869Y-203185D01*
X624839Y-203220D01*
X624800Y-203267D01*
X624762Y-203318D01*
X624721Y-203379D01*
X624680Y-203444D01*
X624639Y-203518D01*
X624604Y-203600D01*
X624568Y-203687D01*
X624538Y-203783D01*
X624514Y-203884D01*
X624497Y-203990D01*
X624489Y-204102D01*
X625393Y-204143D01*
Y-204140D01*
X625396Y-204127D01*
X625398Y-204110D01*
X625404Y-204086D01*
X625412Y-204058D01*
X625423Y-204026D01*
X625434Y-203990D01*
X625448Y-203952D01*
X625480Y-203870D01*
X625524Y-203788D01*
X625549Y-203747D01*
X625578Y-203712D01*
X625608Y-203676D01*
X625644Y-203646D01*
X625647Y-203643D01*
X625652Y-203641D01*
X625663Y-203632D01*
X625679Y-203622D01*
X625699Y-203610D01*
X625723Y-203600D01*
X625753Y-203586D01*
X625786Y-203570D01*
X625824Y-203556D01*
X625865Y-203542D01*
X625912Y-203531D01*
X625963Y-203520D01*
X626021Y-203509D01*
X626081Y-203501D01*
X626146Y-203499D01*
X626215Y-203496D01*
X626253D01*
X626280Y-203499D01*
X626313Y-203501D01*
X626351Y-203504D01*
X626395Y-203509D01*
X626441Y-203515D01*
X626540Y-203534D01*
X626591Y-203548D01*
X626641Y-203564D01*
X626692Y-203583D01*
X626742Y-203602D01*
X626788Y-203630D01*
X626832Y-203657D01*
X626834D01*
X626837Y-203662D01*
X626853Y-203676D01*
X626878Y-203698D01*
X626902Y-203731D01*
X626930Y-203772D01*
X626954Y-203818D01*
X626971Y-203873D01*
X626973Y-203903D01*
X626976Y-203935D01*
Y-203938D01*
Y-203944D01*
Y-203952D01*
X626973Y-203963D01*
X626968Y-203990D01*
X626960Y-204028D01*
X626943Y-204072D01*
X626919Y-204116D01*
X626905Y-204140D01*
X626886Y-204162D01*
X626867Y-204184D01*
X626842Y-204206D01*
X626840Y-204208D01*
X626834Y-204211D01*
X626823Y-204219D01*
X626804Y-204230D01*
X626782Y-204244D01*
X626752Y-204260D01*
X626717Y-204277D01*
X626673Y-204298D01*
X626624Y-204320D01*
X626564Y-204342D01*
X626496Y-204367D01*
X626419Y-204394D01*
X626335Y-204421D01*
X626236Y-204449D01*
X626185Y-204462D01*
X626130Y-204476D01*
X626073Y-204492D01*
X626013Y-204506D01*
X626010D01*
X626004Y-204509D01*
X625996D01*
X625983Y-204514D01*
X625969Y-204517D01*
X625950Y-204522D01*
X625928Y-204528D01*
X625903Y-204533D01*
X625849Y-204547D01*
X625786Y-204563D01*
X625718Y-204582D01*
X625641Y-204604D01*
X625565Y-204629D01*
X625483Y-204653D01*
X625322Y-204708D01*
X625243Y-204735D01*
X625169Y-204765D01*
X625098Y-204798D01*
X625035Y-204828D01*
X625033Y-204831D01*
X625022Y-204836D01*
X625005Y-204844D01*
X624983Y-204858D01*
X624956Y-204874D01*
X624926Y-204896D01*
X624891Y-204921D01*
X624855Y-204948D01*
X624817Y-204978D01*
X624776Y-205014D01*
X624735Y-205049D01*
X624694Y-205090D01*
X624653Y-205134D01*
X624612Y-205180D01*
X624577Y-205232D01*
X624541Y-205284D01*
X624538Y-205287D01*
X624533Y-205298D01*
X624525Y-205314D01*
X624514Y-205336D01*
X624500Y-205363D01*
X624484Y-205396D01*
X624467Y-205437D01*
X624451Y-205481D01*
X624435Y-205530D01*
X624418Y-205584D01*
X624402Y-205642D01*
X624388Y-205704D01*
X624377Y-205773D01*
X624369Y-205844D01*
X624364Y-205917D01*
X624361Y-205997D01*
Y-206035D01*
X624364Y-206062D01*
X624366Y-206095D01*
X624372Y-206136D01*
X624380Y-206182D01*
X624388Y-206231D01*
X624399Y-206286D01*
X624413Y-206341D01*
X624432Y-206401D01*
X624451Y-206463D01*
X624476Y-206526D01*
X624506Y-206589D01*
X624538Y-206655D01*
X624577Y-206717D01*
X624579Y-206720D01*
X624587Y-206731D01*
X624598Y-206750D01*
X624615Y-206772D01*
X624637Y-206799D01*
X624664Y-206832D01*
X624697Y-206867D01*
X624732Y-206906D01*
X624773Y-206947D01*
X624817Y-206988D01*
X624866Y-207029D01*
X624921Y-207069D01*
X624978Y-207110D01*
X625041Y-207149D01*
X625109Y-207184D01*
X625180Y-207217D01*
X625185Y-207220D01*
X625199Y-207225D01*
X625221Y-207230D01*
X625251Y-207241D01*
X625289Y-207255D01*
X625333Y-207269D01*
X625387Y-207282D01*
X625448Y-207296D01*
X625516Y-207312D01*
X625589Y-207326D01*
X625669Y-207340D01*
X625756Y-207353D01*
X625849Y-207364D01*
X625944Y-207370D01*
X626048Y-207375D01*
X626155Y-207378D01*
X626193D01*
X626212Y-207375D01*
X626236D01*
X626264Y-207372D01*
X626294D01*
X626329Y-207370D01*
X626365Y-207367D01*
X626447Y-207356D01*
X626537Y-207345D01*
X626635Y-207329D01*
X626739Y-207310D01*
X626845Y-207282D01*
X626954Y-207252D01*
X627064Y-207214D01*
X627170Y-207168D01*
X627271Y-207116D01*
X627369Y-207056D01*
X627459Y-206988D01*
X627465Y-206982D01*
X627479Y-206968D01*
X627503Y-206947D01*
X627530Y-206914D01*
X627566Y-206873D01*
X627607Y-206824D01*
X627651Y-206764D01*
X627697Y-206698D01*
X627743Y-206622D01*
X627793Y-206534D01*
X627836Y-206442D01*
X627880Y-206338D01*
X627918Y-206229D01*
X627954Y-206108D01*
X627981Y-205980D01*
X628003Y-205844D01*
X627124Y-205759D01*
Y-205765D01*
X627121Y-205778D01*
X627115Y-205800D01*
X627107Y-205830D01*
X627096Y-205868D01*
X627085Y-205909D01*
X627069Y-205956D01*
X627053Y-206005D01*
X627034Y-206059D01*
X627009Y-206111D01*
X626982Y-206166D01*
X626954Y-206220D01*
X626922Y-206272D01*
X626883Y-206321D01*
X626845Y-206368D01*
X626801Y-206409D01*
X626799Y-206412D01*
X626791Y-206417D01*
X626777Y-206428D01*
X626758Y-206442D01*
X626733Y-206458D01*
X626703Y-206474D01*
X626668Y-206493D01*
X626629Y-206512D01*
X626583Y-206532D01*
X626534Y-206551D01*
X626482Y-206567D01*
X626422Y-206583D01*
X626359Y-206597D01*
X626294Y-206608D01*
X626223Y-206613D01*
X626146Y-206616D01*
X626105D01*
X626075Y-206613D01*
X626037Y-206611D01*
X625996Y-206605D01*
X625950Y-206600D01*
X625901Y-206594D01*
X625794Y-206573D01*
X625740Y-206556D01*
X625685Y-206540D01*
X625630Y-206518D01*
X625581Y-206493D01*
X625532Y-206466D01*
X625488Y-206433D01*
X625486Y-206431D01*
X625478Y-206425D01*
X625467Y-206414D01*
X625453Y-206401D01*
X625436Y-206382D01*
X625417Y-206362D01*
X625398Y-206338D01*
X625377Y-206311D01*
X625355Y-206278D01*
X625336Y-206245D01*
X625300Y-206171D01*
X625286Y-206130D01*
X625273Y-206089D01*
X625267Y-206046D01*
X625265Y-205999D01*
Y-205997D01*
Y-205991D01*
Y-205983D01*
X625267Y-205972D01*
X625270Y-205942D01*
X625276Y-205907D01*
X625289Y-205863D01*
X625306Y-205819D01*
X625327Y-205773D01*
X625360Y-205729D01*
X625365Y-205724D01*
X625379Y-205710D01*
X625401Y-205688D01*
X625436Y-205663D01*
X625456Y-205647D01*
X625480Y-205633D01*
X625507Y-205617D01*
X625537Y-205601D01*
X625568Y-205584D01*
X625603Y-205568D01*
X625644Y-205552D01*
X625685Y-205535D01*
X625688D01*
X625693Y-205533D01*
X625704Y-205530D01*
X625718Y-205524D01*
X625740Y-205519D01*
X625764Y-205511D01*
X625797Y-205500D01*
X625835Y-205489D01*
X625879Y-205478D01*
X625931Y-205464D01*
X625991Y-205448D01*
X626056Y-205429D01*
X626133Y-205410D01*
X626215Y-205388D01*
X626307Y-205363D01*
X626408Y-205339D01*
X626411D01*
X626417Y-205336D01*
X626428Y-205333D01*
X626441Y-205330D01*
X626458Y-205325D01*
X626477Y-205319D01*
X626501Y-205314D01*
X626526Y-205306D01*
X626586Y-205290D01*
X626654Y-205268D01*
X626728Y-205243D01*
X626807Y-205216D01*
X626892Y-205186D01*
X626976Y-205150D01*
X627061Y-205115D01*
X627145Y-205077D01*
X627225Y-205036D01*
X627298Y-204989D01*
X627367Y-204945D01*
X627427Y-204896D01*
X627432Y-204891D01*
X627443Y-204880D01*
X627465Y-204858D01*
X627492Y-204831D01*
X627522Y-204795D01*
X627558Y-204752D01*
X627593Y-204702D01*
X627632Y-204645D01*
X627672Y-204582D01*
X627708Y-204514D01*
X627743Y-204440D01*
X627773Y-204361D01*
X627801Y-204277D01*
X627820Y-204187D01*
X627834Y-204094D01*
X627839Y-203995D01*
Y-203993D01*
Y-203979D01*
Y-203963D01*
X627836Y-203938D01*
X627834Y-203908D01*
X627828Y-203873D01*
X627822Y-203832D01*
X627814Y-203788D01*
X627803Y-203739D01*
X627793Y-203690D01*
X627776Y-203638D01*
X627757Y-203583D01*
X627735Y-203526D01*
X627708Y-203469D01*
X627678Y-203414D01*
X627645Y-203357D01*
X627642Y-203354D01*
X627637Y-203343D01*
X627626Y-203329D01*
X627610Y-203308D01*
X627588Y-203283D01*
X627563Y-203253D01*
X627536Y-203223D01*
X627503Y-203187D01*
X627465Y-203152D01*
X627424Y-203116D01*
X627378Y-203078D01*
X627328Y-203040D01*
X627274Y-203002D01*
X627216Y-202966D01*
X627154Y-202934D01*
X627088Y-202904D01*
X627083Y-202901D01*
X627072Y-202898D01*
X627050Y-202890D01*
X627023Y-202879D01*
X626987Y-202868D01*
X626946Y-202854D01*
X626897Y-202841D01*
X626840Y-202824D01*
X626780Y-202811D01*
X626711Y-202797D01*
X626641Y-202783D01*
X626561Y-202772D01*
X626479Y-202762D01*
X626392Y-202753D01*
X626302Y-202751D01*
X626206Y-202748D01*
D02*
G37*
G36*
X613348D02*
X613291D01*
X613266Y-202751D01*
X613239D01*
X613209Y-202753D01*
X613176Y-202756D01*
X613141Y-202759D01*
X613059Y-202767D01*
X612969Y-202778D01*
X612873Y-202794D01*
X612772Y-202813D01*
X612668Y-202838D01*
X612562Y-202868D01*
X612455Y-202904D01*
X612354Y-202944D01*
X612256Y-202994D01*
X612163Y-203051D01*
X612079Y-203116D01*
X612073Y-203122D01*
X612059Y-203133D01*
X612040Y-203155D01*
X612010Y-203185D01*
X611980Y-203220D01*
X611942Y-203267D01*
X611904Y-203318D01*
X611863Y-203379D01*
X611822Y-203444D01*
X611781Y-203518D01*
X611746Y-203600D01*
X611710Y-203687D01*
X611680Y-203783D01*
X611656Y-203884D01*
X611639Y-203990D01*
X611631Y-204102D01*
X612535Y-204143D01*
Y-204140D01*
X612537Y-204127D01*
X612540Y-204110D01*
X612545Y-204086D01*
X612554Y-204058D01*
X612565Y-204026D01*
X612575Y-203990D01*
X612589Y-203952D01*
X612622Y-203870D01*
X612666Y-203788D01*
X612690Y-203747D01*
X612720Y-203712D01*
X612750Y-203676D01*
X612786Y-203646D01*
X612788Y-203643D01*
X612794Y-203641D01*
X612805Y-203632D01*
X612821Y-203622D01*
X612840Y-203610D01*
X612865Y-203600D01*
X612895Y-203586D01*
X612928Y-203570D01*
X612966Y-203556D01*
X613007Y-203542D01*
X613053Y-203531D01*
X613105Y-203520D01*
X613162Y-203509D01*
X613223Y-203501D01*
X613288Y-203499D01*
X613356Y-203496D01*
X613394D01*
X613422Y-203499D01*
X613455Y-203501D01*
X613493Y-203504D01*
X613537Y-203509D01*
X613583Y-203515D01*
X613681Y-203534D01*
X613733Y-203548D01*
X613782Y-203564D01*
X613834Y-203583D01*
X613883Y-203602D01*
X613930Y-203630D01*
X613973Y-203657D01*
X613976D01*
X613979Y-203662D01*
X613995Y-203676D01*
X614020Y-203698D01*
X614044Y-203731D01*
X614072Y-203772D01*
X614096Y-203818D01*
X614113Y-203873D01*
X614115Y-203903D01*
X614118Y-203935D01*
Y-203938D01*
Y-203944D01*
Y-203952D01*
X614115Y-203963D01*
X614110Y-203990D01*
X614102Y-204028D01*
X614085Y-204072D01*
X614061Y-204116D01*
X614047Y-204140D01*
X614028Y-204162D01*
X614009Y-204184D01*
X613984Y-204206D01*
X613981Y-204208D01*
X613976Y-204211D01*
X613965Y-204219D01*
X613946Y-204230D01*
X613924Y-204244D01*
X613894Y-204260D01*
X613859Y-204277D01*
X613815Y-204298D01*
X613766Y-204320D01*
X613706Y-204342D01*
X613637Y-204367D01*
X613561Y-204394D01*
X613476Y-204421D01*
X613378Y-204449D01*
X613326Y-204462D01*
X613272Y-204476D01*
X613214Y-204492D01*
X613154Y-204506D01*
X613152D01*
X613146Y-204509D01*
X613138D01*
X613124Y-204514D01*
X613111Y-204517D01*
X613092Y-204522D01*
X613070Y-204528D01*
X613045Y-204533D01*
X612991Y-204547D01*
X612928Y-204563D01*
X612859Y-204582D01*
X612783Y-204604D01*
X612707Y-204629D01*
X612625Y-204653D01*
X612464Y-204708D01*
X612384Y-204735D01*
X612311Y-204765D01*
X612240Y-204798D01*
X612177Y-204828D01*
X612174Y-204831D01*
X612163Y-204836D01*
X612147Y-204844D01*
X612125Y-204858D01*
X612098Y-204874D01*
X612068Y-204896D01*
X612032Y-204921D01*
X611997Y-204948D01*
X611959Y-204978D01*
X611918Y-205014D01*
X611877Y-205049D01*
X611836Y-205090D01*
X611795Y-205134D01*
X611754Y-205180D01*
X611718Y-205232D01*
X611683Y-205284D01*
X611680Y-205287D01*
X611675Y-205298D01*
X611666Y-205314D01*
X611656Y-205336D01*
X611642Y-205363D01*
X611625Y-205396D01*
X611609Y-205437D01*
X611593Y-205481D01*
X611576Y-205530D01*
X611560Y-205584D01*
X611544Y-205642D01*
X611530Y-205704D01*
X611519Y-205773D01*
X611511Y-205844D01*
X611505Y-205917D01*
X611503Y-205997D01*
Y-206035D01*
X611505Y-206062D01*
X611508Y-206095D01*
X611514Y-206136D01*
X611522Y-206182D01*
X611530Y-206231D01*
X611541Y-206286D01*
X611554Y-206341D01*
X611574Y-206401D01*
X611593Y-206463D01*
X611617Y-206526D01*
X611647Y-206589D01*
X611680Y-206655D01*
X611718Y-206717D01*
X611721Y-206720D01*
X611729Y-206731D01*
X611740Y-206750D01*
X611757Y-206772D01*
X611778Y-206799D01*
X611806Y-206832D01*
X611838Y-206867D01*
X611874Y-206906D01*
X611915Y-206947D01*
X611959Y-206988D01*
X612008Y-207029D01*
X612062Y-207069D01*
X612120Y-207110D01*
X612182Y-207149D01*
X612251Y-207184D01*
X612322Y-207217D01*
X612327Y-207220D01*
X612341Y-207225D01*
X612363Y-207230D01*
X612393Y-207241D01*
X612431Y-207255D01*
X612474Y-207269D01*
X612529Y-207282D01*
X612589Y-207296D01*
X612657Y-207312D01*
X612731Y-207326D01*
X612810Y-207340D01*
X612898Y-207353D01*
X612991Y-207364D01*
X613086Y-207370D01*
X613190Y-207375D01*
X613296Y-207378D01*
X613334D01*
X613353Y-207375D01*
X613378D01*
X613405Y-207372D01*
X613436D01*
X613471Y-207370D01*
X613506Y-207367D01*
X613588Y-207356D01*
X613678Y-207345D01*
X613777Y-207329D01*
X613880Y-207310D01*
X613987Y-207282D01*
X614096Y-207252D01*
X614205Y-207214D01*
X614312Y-207168D01*
X614413Y-207116D01*
X614511Y-207056D01*
X614601Y-206988D01*
X614607Y-206982D01*
X614620Y-206968D01*
X614645Y-206947D01*
X614672Y-206914D01*
X614708Y-206873D01*
X614749Y-206824D01*
X614792Y-206764D01*
X614839Y-206698D01*
X614885Y-206622D01*
X614934Y-206534D01*
X614978Y-206442D01*
X615022Y-206338D01*
X615060Y-206229D01*
X615095Y-206108D01*
X615123Y-205980D01*
X615144Y-205844D01*
X614265Y-205759D01*
Y-205765D01*
X614263Y-205778D01*
X614257Y-205800D01*
X614249Y-205830D01*
X614238Y-205868D01*
X614227Y-205909D01*
X614211Y-205956D01*
X614194Y-206005D01*
X614175Y-206059D01*
X614151Y-206111D01*
X614123Y-206166D01*
X614096Y-206220D01*
X614063Y-206272D01*
X614025Y-206321D01*
X613987Y-206368D01*
X613943Y-206409D01*
X613940Y-206412D01*
X613932Y-206417D01*
X613919Y-206428D01*
X613900Y-206442D01*
X613875Y-206458D01*
X613845Y-206474D01*
X613809Y-206493D01*
X613771Y-206512D01*
X613725Y-206532D01*
X613676Y-206551D01*
X613624Y-206567D01*
X613564Y-206583D01*
X613501Y-206597D01*
X613436Y-206608D01*
X613365Y-206613D01*
X613288Y-206616D01*
X613247D01*
X613217Y-206613D01*
X613179Y-206611D01*
X613138Y-206605D01*
X613092Y-206600D01*
X613042Y-206594D01*
X612936Y-206573D01*
X612881Y-206556D01*
X612827Y-206540D01*
X612772Y-206518D01*
X612723Y-206493D01*
X612674Y-206466D01*
X612630Y-206433D01*
X612627Y-206431D01*
X612619Y-206425D01*
X612608Y-206414D01*
X612595Y-206401D01*
X612578Y-206382D01*
X612559Y-206362D01*
X612540Y-206338D01*
X612518Y-206311D01*
X612496Y-206278D01*
X612477Y-206245D01*
X612442Y-206171D01*
X612428Y-206130D01*
X612414Y-206089D01*
X612409Y-206046D01*
X612406Y-205999D01*
Y-205997D01*
Y-205991D01*
Y-205983D01*
X612409Y-205972D01*
X612412Y-205942D01*
X612417Y-205907D01*
X612431Y-205863D01*
X612447Y-205819D01*
X612469Y-205773D01*
X612502Y-205729D01*
X612507Y-205724D01*
X612521Y-205710D01*
X612543Y-205688D01*
X612578Y-205663D01*
X612597Y-205647D01*
X612622Y-205633D01*
X612649Y-205617D01*
X612679Y-205601D01*
X612709Y-205584D01*
X612745Y-205568D01*
X612786Y-205552D01*
X612827Y-205535D01*
X612829D01*
X612835Y-205533D01*
X612846Y-205530D01*
X612859Y-205524D01*
X612881Y-205519D01*
X612906Y-205511D01*
X612939Y-205500D01*
X612977Y-205489D01*
X613021Y-205478D01*
X613072Y-205464D01*
X613132Y-205448D01*
X613198Y-205429D01*
X613274Y-205410D01*
X613356Y-205388D01*
X613449Y-205363D01*
X613550Y-205339D01*
X613553D01*
X613558Y-205336D01*
X613569Y-205333D01*
X613583Y-205330D01*
X613599Y-205325D01*
X613618Y-205319D01*
X613643Y-205314D01*
X613667Y-205306D01*
X613728Y-205290D01*
X613796Y-205268D01*
X613869Y-205243D01*
X613949Y-205216D01*
X614033Y-205186D01*
X614118Y-205150D01*
X614203Y-205115D01*
X614287Y-205077D01*
X614366Y-205036D01*
X614440Y-204989D01*
X614508Y-204945D01*
X614568Y-204896D01*
X614574Y-204891D01*
X614585Y-204880D01*
X614607Y-204858D01*
X614634Y-204831D01*
X614664Y-204795D01*
X614699Y-204752D01*
X614735Y-204702D01*
X614773Y-204645D01*
X614814Y-204582D01*
X614850Y-204514D01*
X614885Y-204440D01*
X614915Y-204361D01*
X614942Y-204277D01*
X614961Y-204187D01*
X614975Y-204094D01*
X614981Y-203995D01*
Y-203993D01*
Y-203979D01*
Y-203963D01*
X614978Y-203938D01*
X614975Y-203908D01*
X614970Y-203873D01*
X614964Y-203832D01*
X614956Y-203788D01*
X614945Y-203739D01*
X614934Y-203690D01*
X614918Y-203638D01*
X614899Y-203583D01*
X614877Y-203526D01*
X614850Y-203469D01*
X614820Y-203414D01*
X614787Y-203357D01*
X614784Y-203354D01*
X614779Y-203343D01*
X614768Y-203329D01*
X614751Y-203308D01*
X614729Y-203283D01*
X614705Y-203253D01*
X614678Y-203223D01*
X614645Y-203187D01*
X614607Y-203152D01*
X614566Y-203116D01*
X614519Y-203078D01*
X614470Y-203040D01*
X614416Y-203002D01*
X614358Y-202966D01*
X614295Y-202934D01*
X614230Y-202904D01*
X614224Y-202901D01*
X614214Y-202898D01*
X614192Y-202890D01*
X614164Y-202879D01*
X614129Y-202868D01*
X614088Y-202854D01*
X614039Y-202841D01*
X613981Y-202824D01*
X613921Y-202811D01*
X613853Y-202797D01*
X613782Y-202783D01*
X613703Y-202772D01*
X613621Y-202762D01*
X613534Y-202753D01*
X613444Y-202751D01*
X613348Y-202748D01*
D02*
G37*
%LPD*%
D32*
X118532Y-126435D02*
G03*
X118532Y-126435I-492J0D01*
G01*
Y-92881D02*
G03*
X118532Y-92881I-492J0D01*
G01*
X118532Y-59482D02*
G03*
X118532Y-59482I-492J0D01*
G01*
D33*
X579824Y-209755D02*
Y-189755D01*
X539824Y-209755D02*
Y-189755D01*
X499824Y-209755D02*
Y-189755D01*
X459824Y-209755D02*
Y-189755D01*
X419824Y-209755D02*
Y-189755D01*
X335887Y-209755D02*
Y-189755D01*
X295887Y-209755D02*
Y-189755D01*
X255887Y-209755D02*
Y-189755D01*
X215887Y-209755D02*
Y-189755D01*
X175887Y-209755D02*
Y-189755D01*
X579724Y26445D02*
Y46445D01*
X539724Y26445D02*
Y46445D01*
X499724Y26445D02*
Y46445D01*
X459724Y26445D02*
Y46445D01*
X419724Y26445D02*
Y46445D01*
X335787Y26445D02*
Y46445D01*
X295787Y26445D02*
Y46445D01*
X255787Y26445D02*
Y46445D01*
X215787Y26445D02*
Y46445D01*
X175787Y26445D02*
Y46445D01*
X34001Y17001D02*
X33501Y17501D01*
Y18500D01*
X34001Y19000D01*
X36000D01*
X36500Y18500D01*
Y17501D01*
X36000Y17001D01*
X35001D01*
Y18000D01*
D34*
X377887Y-209755D02*
Y-189755D01*
X377787Y26445D02*
Y46445D01*
D35*
X124437Y-124575D02*
Y-104890D01*
X130736Y-124575D02*
Y-104890D01*
X124437Y-124575D02*
X130736D01*
X124437Y-104890D02*
X130736D01*
X124437Y-91021D02*
Y-71335D01*
X130736Y-91021D02*
Y-71335D01*
X124437Y-91021D02*
X130736D01*
X124437Y-71335D02*
X130736D01*
X124438Y-57622D02*
Y-37937D01*
X130737Y-57622D02*
Y-37937D01*
X124438Y-57622D02*
X130737D01*
X124438Y-37937D02*
X130737D01*
D36*
X25700Y-180501D02*
X21701D01*
X23701Y-178502D02*
Y-182500D01*
X15703Y-177502D02*
X19702D01*
Y-180501D01*
X17703Y-179501D01*
X16703D01*
X15703Y-180501D01*
Y-182500D01*
X16703Y-183500D01*
X18702D01*
X19702Y-182500D01*
X13704Y-177502D02*
Y-181501D01*
X11705Y-183500D01*
X9705Y-181501D01*
Y-177502D01*
X55200Y-179901D02*
X51201D01*
X53201Y-177902D02*
Y-181900D01*
X49202Y-177902D02*
X48202Y-176902D01*
X46203D01*
X45203Y-177902D01*
Y-178901D01*
X46203Y-179901D01*
X47203D01*
X46203D01*
X45203Y-180901D01*
Y-181900D01*
X46203Y-182900D01*
X48202D01*
X49202Y-181900D01*
X43204Y-176902D02*
Y-180901D01*
X41205Y-182900D01*
X39205Y-180901D01*
Y-176902D01*
X37206Y-177902D02*
X36206Y-176902D01*
X34207D01*
X33207Y-177902D01*
Y-178901D01*
X34207Y-179901D01*
X35206D01*
X34207D01*
X33207Y-180901D01*
Y-181900D01*
X34207Y-182900D01*
X36206D01*
X37206Y-181900D01*
X90400Y-176702D02*
X86401D01*
X88401D01*
Y-182700D01*
X84402Y-178701D02*
X80403Y-182700D01*
X82403Y-180701D01*
X80403Y-178701D01*
X84402Y-182700D01*
X124301Y-177502D02*
X125301Y-176502D01*
X127300D01*
X128300Y-177502D01*
Y-181500D01*
X127300Y-182500D01*
X125301D01*
X124301Y-181500D01*
Y-179501D01*
X126301D01*
X122302Y-182500D02*
Y-176502D01*
X118303Y-182500D01*
Y-176502D01*
X116304D02*
Y-182500D01*
X113305D01*
X112305Y-181500D01*
Y-177502D01*
X113305Y-176502D01*
X116304D01*
X86800Y18498D02*
Y12500D01*
X83801D01*
X82801Y13500D01*
Y17498D01*
X83801Y18498D01*
X86800D01*
X79802Y16499D02*
X77803D01*
X76803Y15499D01*
Y12500D01*
X79802D01*
X80802Y13500D01*
X79802Y14499D01*
X76803D01*
X73804Y17498D02*
Y16499D01*
X74804D01*
X72804D01*
X73804D01*
Y13500D01*
X72804Y12500D01*
X68806Y16499D02*
X66807D01*
X65807Y15499D01*
Y12500D01*
X68806D01*
X69806Y13500D01*
X68806Y14499D01*
X65807D01*
X110101Y17198D02*
X111101Y18198D01*
X113100D01*
X114100Y17198D01*
Y13200D01*
X113100Y12200D01*
X111101D01*
X110101Y13200D01*
Y15199D01*
X112101D01*
X108102Y12200D02*
Y18198D01*
X104103Y12200D01*
Y18198D01*
X102104D02*
Y12200D01*
X99105D01*
X98105Y13200D01*
Y17198D01*
X99105Y18198D01*
X102104D01*
X118801Y43298D02*
X119801Y44298D01*
X121800D01*
X122800Y43298D01*
Y39300D01*
X121800Y38300D01*
X119801D01*
X118801Y39300D01*
X116802Y38300D02*
X114803D01*
X115802D01*
Y44298D01*
X116802D01*
X110804Y38300D02*
X108805D01*
X107805Y39300D01*
Y41299D01*
X108805Y42299D01*
X110804D01*
X111804Y41299D01*
Y39300D01*
X110804Y38300D01*
X101807Y42299D02*
X104806D01*
X105806Y41299D01*
Y39300D01*
X104806Y38300D01*
X101807D01*
X99807D02*
Y44298D01*
Y40299D02*
X96808Y42299D01*
X99807Y40299D02*
X96808Y38300D01*
X89301Y43098D02*
X90301Y44098D01*
X92300D01*
X93300Y43098D01*
Y42099D01*
X92300Y41099D01*
X90301D01*
X89301Y40099D01*
Y39100D01*
X90301Y38100D01*
X92300D01*
X93300Y39100D01*
X86302Y43098D02*
Y42099D01*
X87302D01*
X85303D01*
X86302D01*
Y39100D01*
X85303Y38100D01*
X82304Y42099D02*
Y38100D01*
Y40099D01*
X81304Y41099D01*
X80304Y42099D01*
X79304D01*
X75306Y38100D02*
X73307D01*
X72307Y39100D01*
Y41099D01*
X73307Y42099D01*
X75306D01*
X76306Y41099D01*
Y39100D01*
X75306Y38100D01*
X70307Y44098D02*
Y38100D01*
X67308D01*
X66309Y39100D01*
Y40099D01*
Y41099D01*
X67308Y42099D01*
X70307D01*
X61310Y38100D02*
X63310D01*
X64309Y39100D01*
Y41099D01*
X63310Y42099D01*
X61310D01*
X60311Y41099D01*
Y40099D01*
X64309D01*
X627824Y-192478D02*
Y-197476D01*
X624492D01*
X612829Y-192478D02*
Y-197476D01*
Y-194977D01*
X609497D01*
Y-192478D01*
Y-197476D01*
X243887Y-192478D02*
Y-197476D01*
X240555D01*
X228892Y-192478D02*
Y-197476D01*
Y-194977D01*
X225560D01*
Y-192478D01*
Y-197476D01*
X240949Y-203790D02*
X241782Y-202957D01*
X243448D01*
X244281Y-203790D01*
Y-207122D01*
X243448Y-207955D01*
X241782D01*
X240949Y-207122D01*
X239283Y-202957D02*
Y-207955D01*
Y-205456D01*
X235950D01*
Y-202957D01*
Y-207955D01*
X234284D02*
X232618D01*
X233451D01*
Y-202957D01*
X234284Y-203790D01*
X230119Y-207122D02*
X229286Y-207955D01*
X227620D01*
X226787Y-207122D01*
Y-203790D01*
X227620Y-202957D01*
X229286D01*
X230119Y-203790D01*
Y-204623D01*
X229286Y-205456D01*
X226787D01*
X567824Y-192478D02*
Y-197476D01*
X564492D01*
X552829Y-192478D02*
Y-197476D01*
Y-194977D01*
X549497D01*
Y-192478D01*
Y-197476D01*
X407824Y-192478D02*
Y-197476D01*
X404492D01*
X392829Y-192478D02*
Y-197476D01*
Y-194977D01*
X389497D01*
Y-192478D01*
Y-197476D01*
X447824Y-192478D02*
Y-197476D01*
X444492D01*
X432829Y-192478D02*
Y-197476D01*
Y-194977D01*
X429497D01*
Y-192478D01*
Y-197476D01*
X283887Y-192478D02*
Y-197476D01*
X280555D01*
X268892Y-192478D02*
Y-197476D01*
Y-194977D01*
X265560D01*
Y-192478D01*
Y-197476D01*
X323887Y-192478D02*
Y-197476D01*
X320555D01*
X308892Y-192478D02*
Y-197476D01*
Y-194977D01*
X305560D01*
Y-192478D01*
Y-197476D01*
X563992Y-203790D02*
X564825Y-202957D01*
X566491D01*
X567324Y-203790D01*
Y-207122D01*
X566491Y-207955D01*
X564825D01*
X563992Y-207122D01*
X562326Y-202957D02*
Y-207955D01*
Y-205456D01*
X558994D01*
Y-202957D01*
Y-207955D01*
X557328D02*
X555661D01*
X556495D01*
Y-202957D01*
X557328Y-203790D01*
X553162Y-207955D02*
X551496D01*
X552329D01*
Y-202957D01*
X553162Y-203790D01*
X403992D02*
X404825Y-202957D01*
X406491D01*
X407324Y-203790D01*
Y-207122D01*
X406491Y-207955D01*
X404825D01*
X403992Y-207122D01*
X402326Y-202957D02*
Y-207955D01*
Y-205456D01*
X398994D01*
Y-202957D01*
Y-207955D01*
X397328D02*
X395661D01*
X396495D01*
Y-202957D01*
X397328Y-203790D01*
X389830Y-202957D02*
X393162D01*
Y-205456D01*
X391496Y-204623D01*
X390663D01*
X389830Y-205456D01*
Y-207122D01*
X390663Y-207955D01*
X392329D01*
X393162Y-207122D01*
X443992Y-203790D02*
X444825Y-202957D01*
X446491D01*
X447324Y-203790D01*
Y-207122D01*
X446491Y-207955D01*
X444825D01*
X443992Y-207122D01*
X442326Y-202957D02*
Y-207955D01*
Y-205456D01*
X438994D01*
Y-202957D01*
Y-207955D01*
X437328D02*
X435662D01*
X436495D01*
Y-202957D01*
X437328Y-203790D01*
X430663Y-207955D02*
Y-202957D01*
X433162Y-205456D01*
X429830D01*
X280949Y-203790D02*
X281782Y-202957D01*
X283448D01*
X284281Y-203790D01*
Y-207122D01*
X283448Y-207955D01*
X281782D01*
X280949Y-207122D01*
X279283Y-202957D02*
Y-207955D01*
Y-205456D01*
X275951D01*
Y-202957D01*
Y-207955D01*
X274284D02*
X272618D01*
X273451D01*
Y-202957D01*
X274284Y-203790D01*
X270119D02*
X269286Y-202957D01*
X267620D01*
X266787Y-203790D01*
Y-204623D01*
X267620Y-205456D01*
X266787Y-206289D01*
Y-207122D01*
X267620Y-207955D01*
X269286D01*
X270119Y-207122D01*
Y-206289D01*
X269286Y-205456D01*
X270119Y-204623D01*
Y-203790D01*
X269286Y-205456D02*
X267620D01*
X320949Y-203790D02*
X321782Y-202957D01*
X323448D01*
X324281Y-203790D01*
Y-207122D01*
X323448Y-207955D01*
X321782D01*
X320949Y-207122D01*
X319283Y-202957D02*
Y-207955D01*
Y-205456D01*
X315950D01*
Y-202957D01*
Y-207955D01*
X314284D02*
X312618D01*
X313451D01*
Y-202957D01*
X314284Y-203790D01*
X310119Y-202957D02*
X306787D01*
Y-203790D01*
X310119Y-207122D01*
Y-207955D01*
X527824Y-192478D02*
Y-197476D01*
X524492D01*
X512829Y-192478D02*
Y-197476D01*
Y-194977D01*
X509497D01*
Y-192478D01*
Y-197476D01*
X487824Y-192478D02*
Y-197476D01*
X484492D01*
X472829Y-192478D02*
Y-197476D01*
Y-194977D01*
X469497D01*
Y-192478D01*
Y-197476D01*
X363887Y-192478D02*
Y-197476D01*
X360555D01*
X348892Y-192478D02*
Y-197476D01*
Y-194977D01*
X345560D01*
Y-192478D01*
Y-197476D01*
X203887Y-192478D02*
Y-197476D01*
X200555D01*
X188892Y-192478D02*
Y-197476D01*
Y-194977D01*
X185560D01*
Y-192478D01*
Y-197476D01*
X523992Y-203790D02*
X524825Y-202957D01*
X526491D01*
X527324Y-203790D01*
Y-207122D01*
X526491Y-207955D01*
X524825D01*
X523992Y-207122D01*
X522326Y-202957D02*
Y-207955D01*
Y-205456D01*
X518994D01*
Y-202957D01*
Y-207955D01*
X517328D02*
X515661D01*
X516495D01*
Y-202957D01*
X517328Y-203790D01*
X509830Y-207955D02*
X513162D01*
X509830Y-204623D01*
Y-203790D01*
X510663Y-202957D01*
X512329D01*
X513162Y-203790D01*
X483992D02*
X484825Y-202957D01*
X486491D01*
X487324Y-203790D01*
Y-207122D01*
X486491Y-207955D01*
X484825D01*
X483992Y-207122D01*
X482326Y-202957D02*
Y-207955D01*
Y-205456D01*
X478994D01*
Y-202957D01*
Y-207955D01*
X477328D02*
X475662D01*
X476495D01*
Y-202957D01*
X477328Y-203790D01*
X473162D02*
X472329Y-202957D01*
X470663D01*
X469830Y-203790D01*
Y-204623D01*
X470663Y-205456D01*
X471496D01*
X470663D01*
X469830Y-206289D01*
Y-207122D01*
X470663Y-207955D01*
X472329D01*
X473162Y-207122D01*
X360949Y-203790D02*
X361782Y-202957D01*
X363448D01*
X364281Y-203790D01*
Y-207122D01*
X363448Y-207955D01*
X361782D01*
X360949Y-207122D01*
X359283Y-202957D02*
Y-207955D01*
Y-205456D01*
X355950D01*
Y-202957D01*
Y-207955D01*
X354284D02*
X352618D01*
X353451D01*
Y-202957D01*
X354284Y-203790D01*
X346787Y-202957D02*
X348453Y-203790D01*
X350119Y-205456D01*
Y-207122D01*
X349286Y-207955D01*
X347620D01*
X346787Y-207122D01*
Y-206289D01*
X347620Y-205456D01*
X350119D01*
X200949Y-203790D02*
X201782Y-202957D01*
X203448D01*
X204281Y-203790D01*
Y-207122D01*
X203448Y-207955D01*
X201782D01*
X200949Y-207122D01*
X199283Y-202957D02*
Y-207955D01*
Y-205456D01*
X195950D01*
Y-202957D01*
Y-207955D01*
X190952D02*
X194284D01*
X190952Y-204623D01*
Y-203790D01*
X191785Y-202957D01*
X193451D01*
X194284Y-203790D01*
X189286D02*
X188453Y-202957D01*
X186787D01*
X185954Y-203790D01*
Y-207122D01*
X186787Y-207955D01*
X188453D01*
X189286Y-207122D01*
Y-203790D01*
X627724Y33943D02*
Y28945D01*
X624392D01*
X612729Y33943D02*
Y28945D01*
Y31444D01*
X609397D01*
Y33943D01*
Y28945D01*
X243787Y33943D02*
Y28945D01*
X240455D01*
X228792Y33943D02*
Y28945D01*
Y31444D01*
X225460D01*
Y33943D01*
Y28945D01*
X567724Y33943D02*
Y28945D01*
X564392D01*
X552729Y33943D02*
Y28945D01*
Y31444D01*
X549397D01*
Y33943D01*
Y28945D01*
X562892Y43110D02*
X563725Y43943D01*
X565391D01*
X566224Y43110D01*
Y39778D01*
X565391Y38945D01*
X563725D01*
X562892Y39778D01*
X561226Y43943D02*
Y38945D01*
Y41444D01*
X557894D01*
Y43943D01*
Y38945D01*
X556228D02*
X554562D01*
X555395D01*
Y43943D01*
X556228Y43110D01*
X447724Y33943D02*
Y28945D01*
X444392D01*
X432729Y33943D02*
Y28945D01*
Y31444D01*
X429397D01*
Y33943D01*
Y28945D01*
X442892Y43110D02*
X443725Y43943D01*
X445391D01*
X446224Y43110D01*
Y39778D01*
X445391Y38945D01*
X443725D01*
X442892Y39778D01*
X441226Y43943D02*
Y38945D01*
Y41444D01*
X437894D01*
Y43943D01*
Y38945D01*
X433728D02*
Y43943D01*
X436228Y41444D01*
X432895D01*
X407724Y33943D02*
Y28945D01*
X404392D01*
X392729Y33943D02*
Y28945D01*
Y31444D01*
X389397D01*
Y33943D01*
Y28945D01*
X402892Y43110D02*
X403725Y43943D01*
X405391D01*
X406224Y43110D01*
Y39778D01*
X405391Y38945D01*
X403725D01*
X402892Y39778D01*
X401226Y43943D02*
Y38945D01*
Y41444D01*
X397894D01*
Y43943D01*
Y38945D01*
X392895Y43943D02*
X396228D01*
Y41444D01*
X394562Y42277D01*
X393728D01*
X392895Y41444D01*
Y39778D01*
X393728Y38945D01*
X395395D01*
X396228Y39778D01*
X323787Y33943D02*
Y28945D01*
X320455D01*
X308792Y33943D02*
Y28945D01*
Y31444D01*
X305460D01*
Y33943D01*
Y28945D01*
X283787Y33943D02*
Y28945D01*
X280455D01*
X268792Y33943D02*
Y28945D01*
Y31444D01*
X265460D01*
Y33943D01*
Y28945D01*
X278955Y43110D02*
X279788Y43943D01*
X281454D01*
X282287Y43110D01*
Y39778D01*
X281454Y38945D01*
X279788D01*
X278955Y39778D01*
X277289Y43943D02*
Y38945D01*
Y41444D01*
X273957D01*
Y43943D01*
Y38945D01*
X272291Y43110D02*
X271458Y43943D01*
X269791D01*
X268958Y43110D01*
Y42277D01*
X269791Y41444D01*
X268958Y40611D01*
Y39778D01*
X269791Y38945D01*
X271458D01*
X272291Y39778D01*
Y40611D01*
X271458Y41444D01*
X272291Y42277D01*
Y43110D01*
X271458Y41444D02*
X269791D01*
X522892Y43110D02*
X523725Y43943D01*
X525391D01*
X526224Y43110D01*
Y39778D01*
X525391Y38945D01*
X523725D01*
X522892Y39778D01*
X521226Y43943D02*
Y38945D01*
Y41444D01*
X517894D01*
Y43943D01*
Y38945D01*
X512895D02*
X516228D01*
X512895Y42277D01*
Y43110D01*
X513728Y43943D01*
X515395D01*
X516228Y43110D01*
X527724Y33943D02*
Y28945D01*
X524392D01*
X512729Y33943D02*
Y28945D01*
Y31444D01*
X509397D01*
Y33943D01*
Y28945D01*
X487724Y33943D02*
Y28945D01*
X484392D01*
X472729Y33943D02*
Y28945D01*
Y31444D01*
X469397D01*
Y33943D01*
Y28945D01*
X482892Y43110D02*
X483725Y43943D01*
X485391D01*
X486224Y43110D01*
Y39778D01*
X485391Y38945D01*
X483725D01*
X482892Y39778D01*
X481226Y43943D02*
Y38945D01*
Y41444D01*
X477894D01*
Y43943D01*
Y38945D01*
X476228Y43110D02*
X475395Y43943D01*
X473728D01*
X472895Y43110D01*
Y42277D01*
X473728Y41444D01*
X474562D01*
X473728D01*
X472895Y40611D01*
Y39778D01*
X473728Y38945D01*
X475395D01*
X476228Y39778D01*
X363787Y33943D02*
Y28945D01*
X360455D01*
X348792Y33943D02*
Y28945D01*
Y31444D01*
X345460D01*
Y33943D01*
Y28945D01*
X358955Y43110D02*
X359788Y43943D01*
X361454D01*
X362287Y43110D01*
Y39778D01*
X361454Y38945D01*
X359788D01*
X358955Y39778D01*
X357289Y43943D02*
Y38945D01*
Y41444D01*
X353957D01*
Y43943D01*
Y38945D01*
X348958Y43943D02*
X350624Y43110D01*
X352291Y41444D01*
Y39778D01*
X351458Y38945D01*
X349791D01*
X348958Y39778D01*
Y40611D01*
X349791Y41444D01*
X352291D01*
X318955Y43110D02*
X319788Y43943D01*
X321454D01*
X322287Y43110D01*
Y39778D01*
X321454Y38945D01*
X319788D01*
X318955Y39778D01*
X317289Y43943D02*
Y38945D01*
Y41444D01*
X313957D01*
Y43943D01*
Y38945D01*
X312291Y43943D02*
X308958D01*
Y43110D01*
X312291Y39778D01*
Y38945D01*
X238955Y43110D02*
X239788Y43943D01*
X241454D01*
X242287Y43110D01*
Y39778D01*
X241454Y38945D01*
X239788D01*
X238955Y39778D01*
X237289Y43943D02*
Y38945D01*
Y41444D01*
X233957D01*
Y43943D01*
Y38945D01*
X232291Y39778D02*
X231458Y38945D01*
X229791D01*
X228958Y39778D01*
Y43110D01*
X229791Y43943D01*
X231458D01*
X232291Y43110D01*
Y42277D01*
X231458Y41444D01*
X228958D01*
X203787Y33943D02*
Y28945D01*
X200455D01*
X188792Y33943D02*
Y28945D01*
Y31444D01*
X185460D01*
Y33943D01*
Y28945D01*
X200849Y43110D02*
X201682Y43943D01*
X203348D01*
X204181Y43110D01*
Y39778D01*
X203348Y38945D01*
X201682D01*
X200849Y39778D01*
X199183Y43943D02*
Y38945D01*
Y41444D01*
X195851D01*
Y43943D01*
Y38945D01*
X194184D02*
X192518D01*
X193351D01*
Y43943D01*
X194184Y43110D01*
X190019D02*
X189186Y43943D01*
X187520D01*
X186687Y43110D01*
Y39778D01*
X187520Y38945D01*
X189186D01*
X190019Y39778D01*
Y43110D01*
%TF.MD5,9ccbd5d7b09ada32f49b203ab7bfbc66*%
M02*
