%TF.GenerationSoftware,Altium Limited,Altium Designer,20.0.1 (14)*%
G04 Layer_Color=0*
%FSLAX25Y25*%
%MOIN*%
%TF.FileFunction,NonPlated,1,2,NPTH,Drill*%
%TF.Part,Single*%
G01*
G75*
G36*
X662294Y31371D02*
X661775Y31371D01*
X660774Y31639D01*
X659875Y32157D01*
X659142Y32891D01*
X658623Y33789D01*
X658355Y34790D01*
X658355Y35827D01*
X658623Y36829D01*
X659141Y37727D01*
X659875Y38461D01*
X660773Y38979D01*
X661774Y39248D01*
X662293Y39248D01*
Y39248D01*
X779303Y39263D01*
X779592Y39263D01*
X780164Y39179D01*
X780717Y39012D01*
X781241Y38766D01*
X781481Y38606D01*
D01*
X781481Y38606D01*
X783448Y37355D01*
X787502Y35057D01*
X791703Y33039D01*
X796031Y31312D01*
X800466Y29881D01*
X804988Y28756D01*
X809577Y27939D01*
X814210Y27437D01*
X818866Y27249D01*
X823525Y27379D01*
X828164Y27824D01*
X832762Y28583D01*
X837298Y29652D01*
X841751Y31027D01*
X846100Y32701D01*
X850325Y34666D01*
X852386Y35755D01*
X852387Y35756D01*
X852389Y35757D01*
X852391Y35758D01*
X852392Y35759D01*
X852393Y35759D01*
Y35759D01*
X852386Y35755D01*
X852835Y36004D01*
X853833Y36255D01*
X854860Y36241D01*
X855850Y35963D01*
X856736Y35441D01*
X857458Y34710D01*
X857968Y33817D01*
X858232Y32824D01*
Y32309D01*
D01*
Y-2691D01*
Y-3209D01*
X857963Y-4211D01*
X857445Y-5109D01*
X856712Y-5842D01*
X855814Y-6361D01*
X854812Y-6629D01*
X853775D01*
X852773Y-6361D01*
X851875Y-5842D01*
X851142Y-5109D01*
X850623Y-4211D01*
X850355Y-3209D01*
Y-2691D01*
D01*
X850355Y25961D01*
X848200Y25004D01*
X843780Y23358D01*
X839267Y21987D01*
X834678Y20897D01*
X830030Y20091D01*
X825342Y19574D01*
X820631Y19346D01*
X815915Y19409D01*
X811212Y19762D01*
X806539Y20405D01*
X801915Y21334D01*
X797357Y22546D01*
X792882Y24036D01*
X788507Y25800D01*
X784250Y27829D01*
X780125Y30117D01*
X778137Y31386D01*
D01*
X662294Y31371D01*
D02*
G37*
G36*
X662331Y-202666D02*
X661812Y-202666D01*
X660810Y-202398D01*
X659912Y-201879D01*
X659179Y-201146D01*
X658661Y-200248D01*
X658393Y-199246D01*
X658393Y-198209D01*
X658661Y-197207D01*
X659180Y-196309D01*
X659913Y-195576D01*
X660811Y-195057D01*
X661813Y-194789D01*
X662332Y-194789D01*
X662332Y-194789D01*
X778175Y-194805D01*
X780163Y-193536D01*
X784288Y-191248D01*
X788545Y-189218D01*
X792920Y-187455D01*
X797395Y-185964D01*
X801953Y-184752D01*
X806577Y-183823D01*
X811250Y-183181D01*
X815953Y-182827D01*
X820669Y-182765D01*
X825380Y-182992D01*
X830068Y-183510D01*
X834716Y-184315D01*
X839305Y-185405D01*
X843818Y-186776D01*
X848238Y-188422D01*
X850393Y-189380D01*
X850393Y-189380D01*
Y-160728D01*
Y-160209D01*
X850661Y-159208D01*
X851180Y-158309D01*
X851913Y-157576D01*
X852811Y-157058D01*
X853813Y-156789D01*
X854850D01*
X855851Y-157058D01*
X856749Y-157576D01*
X857483Y-158309D01*
X858001Y-159208D01*
X858270Y-160209D01*
Y-160728D01*
D01*
Y-195728D01*
Y-196242D01*
X858006Y-197235D01*
X857496Y-198128D01*
X856774Y-198860D01*
X855888Y-199382D01*
X854898Y-199659D01*
X853870Y-199673D01*
X852873Y-199423D01*
X852424Y-199174D01*
X852424Y-199174D01*
X852425Y-199174D01*
X852427Y-199175D01*
X852428Y-199176D01*
X852430Y-199177D01*
X852431Y-199178D01*
D01*
X852424Y-199174D01*
X850363Y-198084D01*
X846138Y-196119D01*
X841788Y-194445D01*
X837336Y-193070D01*
X832800Y-192001D01*
X828202Y-191242D01*
X823563Y-190797D01*
X818904Y-190668D01*
X814248Y-190855D01*
X809614Y-191358D01*
X805026Y-192174D01*
X800504Y-193300D01*
X796069Y-194730D01*
X791741Y-196458D01*
X787540Y-198476D01*
X783486Y-200774D01*
X781519Y-202025D01*
X781518Y-202025D01*
X781517Y-202026D01*
X781515Y-202028D01*
X781513Y-202029D01*
X781512Y-202029D01*
Y-202029D01*
X781519Y-202025D01*
X781278Y-202185D01*
X780755Y-202430D01*
X780202Y-202597D01*
X779630Y-202682D01*
X779341Y-202682D01*
D01*
X662331Y-202666D01*
D02*
G37*
%TF.MD5,fef8cf0d6fb2541265657f47eb31b5ed*%
M02*
