%TF.GenerationSoftware,Altium Limited,Altium Designer,20.0.1 (14)*%
G04 Layer_Color=8388736*
%FSLAX25Y25*%
%MOIN*%
%TF.FileFunction,Other,BoardOutline*%
%TF.Part,Single*%
G01*
G75*
%TA.AperFunction,NonConductor*%
%ADD48C,0.02000*%
%ADD57C,0.07874*%
D48*
X784193Y51209D02*
G03*
X854193Y51209I35000J50182D01*
G01*
X854231Y-214828D02*
G03*
X784231Y-214828I-35000J-50182D01*
G01*
X869193Y41209D02*
G03*
X859193Y51209I-10000J0D01*
G01*
Y-214791D02*
G03*
X869193Y-204791I0J10000D01*
G01*
X-20807Y51209D02*
G03*
X-30807Y41209I0J-10000D01*
G01*
Y-204791D02*
G03*
X-20807Y-214791I10000J0D01*
G01*
X756193Y57209D02*
G03*
X753193Y60210I-3000J0D01*
G01*
Y-223791D02*
G03*
X756193Y-220791I0J3000D01*
G01*
X-20807Y51209D02*
X735193D01*
X-20807Y-214791D02*
X735231D01*
X735193Y51209D02*
X744193Y60210D01*
X735193Y-214791D02*
X744193Y-223791D01*
X854193Y51209D02*
X859193D01*
X854231Y-214828D02*
X859231D01*
X756193Y51209D02*
X784193D01*
X756193Y-214828D02*
X784231D01*
X744193Y60210D02*
X753193D01*
X744193Y-223791D02*
X753193D01*
X869193Y-204791D02*
Y41209D01*
X-30807Y-204791D02*
Y41209D01*
X756193Y51209D02*
Y57209D01*
Y-220791D02*
Y-214791D01*
X683665Y-183069D02*
X681998Y-181403D01*
X678666D01*
X677000Y-183069D01*
Y-184736D01*
X678666Y-186402D01*
X681998D01*
X683665Y-188068D01*
Y-189734D01*
X681998Y-191400D01*
X678666D01*
X677000Y-189734D01*
X686997Y-191400D02*
X690329D01*
X688663D01*
Y-181403D01*
X686997D01*
X696993Y-191400D02*
X700326D01*
X701992Y-189734D01*
Y-186402D01*
X700326Y-184736D01*
X696993D01*
X695327Y-186402D01*
Y-189734D01*
X696993Y-191400D01*
X706990Y-183069D02*
Y-184736D01*
X705324D01*
X708656D01*
X706990D01*
Y-189734D01*
X708656Y-191400D01*
X730316D02*
X723652D01*
X730316Y-184736D01*
Y-183069D01*
X728650Y-181403D01*
X725318D01*
X723652Y-183069D01*
X733648Y-191400D02*
Y-184736D01*
X735315D01*
X736981Y-186402D01*
Y-191400D01*
Y-186402D01*
X738647Y-184736D01*
X740313Y-186402D01*
Y-191400D01*
X743645D02*
Y-184736D01*
X745311D01*
X746977Y-186402D01*
Y-191400D01*
Y-186402D01*
X748643Y-184736D01*
X750310Y-186402D01*
Y-191400D01*
X683665Y26531D02*
X681998Y28197D01*
X678666D01*
X677000Y26531D01*
Y24864D01*
X678666Y23198D01*
X681998D01*
X683665Y21532D01*
Y19866D01*
X681998Y18200D01*
X678666D01*
X677000Y19866D01*
X686997Y18200D02*
X690329D01*
X688663D01*
Y28197D01*
X686997D01*
X696993Y18200D02*
X700326D01*
X701992Y19866D01*
Y23198D01*
X700326Y24864D01*
X696993D01*
X695327Y23198D01*
Y19866D01*
X696993Y18200D01*
X706990Y26531D02*
Y24864D01*
X705324D01*
X708656D01*
X706990D01*
Y19866D01*
X708656Y18200D01*
X730316D02*
X723652D01*
X730316Y24864D01*
Y26531D01*
X728650Y28197D01*
X725318D01*
X723652Y26531D01*
X733648Y18200D02*
Y24864D01*
X735315D01*
X736981Y23198D01*
Y18200D01*
Y23198D01*
X738647Y24864D01*
X740313Y23198D01*
Y18200D01*
X743645D02*
Y24864D01*
X745311D01*
X746977Y23198D01*
Y18200D01*
Y23198D01*
X748643Y24864D01*
X750310Y23198D01*
Y18200D01*
D57*
X779203Y35225D02*
G03*
X854193Y32209I39990J60540D01*
G01*
X854231Y-195828D02*
G03*
X779241Y-198843I-35000J-63556D01*
G01*
X662231Y-198828D02*
X779241Y-198843D01*
X662193Y35209D02*
X779203Y35225D01*
X854193Y-2791D02*
Y32209D01*
X854231Y-195828D02*
Y-160828D01*
%TF.MD5,975aca4f18cbbc869fc92a1465264449*%
M02*
