%TF.GenerationSoftware,Altium Limited,Altium Designer,20.0.1 (14)*%
G04 Layer_Color=0*
%FSLAX25Y25*%
%MOIN*%
%TF.FileFunction,Plated,1,2,PTH,Drill*%
%TF.Part,Single*%
G01*
G75*
%TA.AperFunction,ComponentDrill*%
%ADD58C,0.03543*%
%ADD59C,0.05118*%
%ADD60C,0.05118*%
%ADD61C,0.11417*%
%ADD62C,0.04331*%
%ADD63C,0.02362*%
%TA.AperFunction,ViaDrill,NotFilled*%
%ADD64C,0.01575*%
%ADD65C,0.11811*%
D58*
X379724Y-57378D02*
D03*
X389724D02*
D03*
X379724Y-27378D02*
D03*
X389724D02*
D03*
X409724D02*
D03*
X399724D02*
D03*
X409724Y-57378D02*
D03*
X399724D02*
D03*
X419724D02*
D03*
X429724D02*
D03*
X419724Y-27378D02*
D03*
X429724D02*
D03*
X449724D02*
D03*
X439724D02*
D03*
X449724Y-57378D02*
D03*
X439724D02*
D03*
X459724D02*
D03*
X469724D02*
D03*
X459724Y-27378D02*
D03*
X469724D02*
D03*
X489724D02*
D03*
X479724D02*
D03*
X489724Y-57378D02*
D03*
X479724D02*
D03*
X499724D02*
D03*
X509724D02*
D03*
X499724Y-27378D02*
D03*
X509724D02*
D03*
X529724D02*
D03*
X519724D02*
D03*
X529724Y-57378D02*
D03*
X519724D02*
D03*
X539724D02*
D03*
X549724D02*
D03*
X539724Y-27378D02*
D03*
X549724D02*
D03*
X569724D02*
D03*
X559724D02*
D03*
X569724Y-57378D02*
D03*
X559724D02*
D03*
X175787D02*
D03*
X185787D02*
D03*
X175787Y-27378D02*
D03*
X185787D02*
D03*
X205787D02*
D03*
X195787D02*
D03*
X205787Y-57378D02*
D03*
X195787D02*
D03*
X215787D02*
D03*
X225787D02*
D03*
X215787Y-27378D02*
D03*
X225787D02*
D03*
X245787D02*
D03*
X235787D02*
D03*
X245787Y-57378D02*
D03*
X235787D02*
D03*
X255787D02*
D03*
X265787D02*
D03*
X255787Y-27378D02*
D03*
X265787D02*
D03*
X285787D02*
D03*
X275787D02*
D03*
X285787Y-57378D02*
D03*
X275787D02*
D03*
X295787D02*
D03*
X305787D02*
D03*
X295787Y-27378D02*
D03*
X305787D02*
D03*
X325787D02*
D03*
X315787D02*
D03*
X325787Y-57378D02*
D03*
X315787D02*
D03*
X335787D02*
D03*
X345787D02*
D03*
X335787Y-27378D02*
D03*
X345787D02*
D03*
X365787D02*
D03*
X355787D02*
D03*
X365787Y-57378D02*
D03*
X355787D02*
D03*
X389724Y-105378D02*
D03*
X379724D02*
D03*
X389724Y-135378D02*
D03*
X379724D02*
D03*
X399724D02*
D03*
X409724D02*
D03*
X399724Y-105378D02*
D03*
X409724D02*
D03*
X429724D02*
D03*
X419724D02*
D03*
X429724Y-135378D02*
D03*
X419724D02*
D03*
X439724D02*
D03*
X449724D02*
D03*
X439724Y-105378D02*
D03*
X449724D02*
D03*
X469724D02*
D03*
X459724D02*
D03*
X469724Y-135378D02*
D03*
X459724D02*
D03*
X479724D02*
D03*
X489724D02*
D03*
X479724Y-105378D02*
D03*
X489724D02*
D03*
X509724D02*
D03*
X499724D02*
D03*
X509724Y-135378D02*
D03*
X499724D02*
D03*
X519724D02*
D03*
X529724D02*
D03*
X519724Y-105378D02*
D03*
X529724D02*
D03*
X549724D02*
D03*
X539724D02*
D03*
X549724Y-135378D02*
D03*
X539724D02*
D03*
X559724D02*
D03*
X569724D02*
D03*
X559724Y-105378D02*
D03*
X569724D02*
D03*
X185787D02*
D03*
X175787D02*
D03*
X185787Y-135378D02*
D03*
X175787D02*
D03*
X195787D02*
D03*
X205787D02*
D03*
X195787Y-105378D02*
D03*
X205787D02*
D03*
X225787D02*
D03*
X215787D02*
D03*
X225787Y-135378D02*
D03*
X215787D02*
D03*
X235787D02*
D03*
X245787D02*
D03*
X235787Y-105378D02*
D03*
X245787D02*
D03*
X265787D02*
D03*
X255787D02*
D03*
X265787Y-135378D02*
D03*
X255787D02*
D03*
X275787D02*
D03*
X285787D02*
D03*
X275787Y-105378D02*
D03*
X285787D02*
D03*
X305787D02*
D03*
X295787D02*
D03*
X305787Y-135378D02*
D03*
X295787D02*
D03*
X315787D02*
D03*
X325787D02*
D03*
X315787Y-105378D02*
D03*
X325787D02*
D03*
X345787D02*
D03*
X335787D02*
D03*
X345787Y-135378D02*
D03*
X335787D02*
D03*
X355787D02*
D03*
X365787D02*
D03*
X355787Y-105378D02*
D03*
X365787D02*
D03*
X599724Y-57378D02*
D03*
X609724D02*
D03*
X599724Y-27378D02*
D03*
X609724D02*
D03*
X629724D02*
D03*
X619724D02*
D03*
X629724Y-57378D02*
D03*
X619724D02*
D03*
X609724Y-105378D02*
D03*
X599724D02*
D03*
X609724Y-135378D02*
D03*
X599724D02*
D03*
X619724D02*
D03*
X629724D02*
D03*
X619724Y-105378D02*
D03*
X629724D02*
D03*
D59*
X105000Y5000D02*
D03*
X83987Y-190678D02*
D03*
X17087Y-191378D02*
D03*
X629724Y1945D02*
D03*
X609724D02*
D03*
X629724Y-165378D02*
D03*
X609724D02*
D03*
X569724Y1945D02*
D03*
X549724D02*
D03*
X529724D02*
D03*
X509724D02*
D03*
X489724D02*
D03*
X469724D02*
D03*
X449724D02*
D03*
X429724D02*
D03*
X409724D02*
D03*
X389724D02*
D03*
X185787D02*
D03*
X205787D02*
D03*
X225787D02*
D03*
X245787D02*
D03*
X265787D02*
D03*
X285787D02*
D03*
X305787D02*
D03*
X325787D02*
D03*
X345787D02*
D03*
X365787D02*
D03*
X389724Y-165378D02*
D03*
X409724D02*
D03*
X429724D02*
D03*
X449724D02*
D03*
X469724D02*
D03*
X489724D02*
D03*
X509724D02*
D03*
X529724D02*
D03*
X549724D02*
D03*
X569724D02*
D03*
X365787D02*
D03*
X345787D02*
D03*
X325787D02*
D03*
X305787D02*
D03*
X285787D02*
D03*
X265787D02*
D03*
X245787D02*
D03*
X225787D02*
D03*
X205787D02*
D03*
X185787D02*
D03*
D60*
X75000Y5000D02*
D03*
X105000Y30000D02*
D03*
X75000D02*
D03*
X120287Y-190678D02*
D03*
X43387Y-190778D02*
D03*
D61*
X-20000Y20000D02*
D03*
Y-170000D02*
D03*
D62*
X-10000Y0D02*
D03*
Y-10000D02*
D03*
Y-20000D02*
D03*
Y-30000D02*
D03*
Y-40000D02*
D03*
Y-50000D02*
D03*
Y-60000D02*
D03*
Y-70000D02*
D03*
Y-80000D02*
D03*
Y-90000D02*
D03*
Y-100000D02*
D03*
Y-110000D02*
D03*
Y-120000D02*
D03*
Y-130000D02*
D03*
Y-140000D02*
D03*
Y-150000D02*
D03*
X0Y0D02*
D03*
Y-10000D02*
D03*
Y-20000D02*
D03*
Y-30000D02*
D03*
Y-40000D02*
D03*
Y-50000D02*
D03*
Y-60000D02*
D03*
Y-70000D02*
D03*
Y-80000D02*
D03*
Y-90000D02*
D03*
Y-100000D02*
D03*
Y-110000D02*
D03*
Y-120000D02*
D03*
Y-130000D02*
D03*
Y-140000D02*
D03*
Y-150000D02*
D03*
D63*
X25166Y26522D02*
D03*
X30087D02*
D03*
X35009D02*
D03*
X39930D02*
D03*
X44851D02*
D03*
X49772D02*
D03*
D64*
X95400Y-156000D02*
D03*
X118000Y-164900D02*
D03*
X142871Y-97538D02*
D03*
Y-66142D02*
D03*
X42800Y-27900D02*
D03*
X60400Y-40100D02*
D03*
X106900Y-71400D02*
D03*
X75500Y-156500D02*
D03*
X36000Y-160500D02*
D03*
X43300Y-131700D02*
D03*
X39661Y-85700D02*
D03*
X38200Y-76400D02*
D03*
X40700Y-96200D02*
D03*
X31000Y-85700D02*
D03*
X10500Y-77400D02*
D03*
X35100Y-73400D02*
D03*
X35200Y-17800D02*
D03*
X30000Y-24600D02*
D03*
X29900Y-45100D02*
D03*
X30500Y-15601D02*
D03*
X51000Y-62900D02*
D03*
X44400Y-63300D02*
D03*
X70100Y-43400D02*
D03*
X73500Y-40100D02*
D03*
X94660Y-55900D02*
D03*
X92000Y-51500D02*
D03*
X88553Y-48400D02*
D03*
X84596Y-45400D02*
D03*
X91988Y-42494D02*
D03*
X88400Y-39600D02*
D03*
X84800Y-36500D02*
D03*
X97744Y-75050D02*
D03*
X100820Y-67312D02*
D03*
X102650Y-78650D02*
D03*
X95402Y-63000D02*
D03*
X107116Y-83310D02*
D03*
X103988Y-90469D02*
D03*
X88600Y-65200D02*
D03*
X83700Y-60600D02*
D03*
X112600Y-132700D02*
D03*
X96457Y-118110D02*
D03*
X102362Y-122047D02*
D03*
X90551Y-114173D02*
D03*
X102362Y-110236D02*
D03*
X96457Y-106299D02*
D03*
X90551Y-102362D02*
D03*
X98616Y-86869D02*
D03*
X90551Y-125984D02*
D03*
X130500Y-130500D02*
D03*
X21300Y-114500D02*
D03*
X17636Y-137100D02*
D03*
X7800Y-142100D02*
D03*
D65*
X749724Y1945D02*
D03*
Y-165378D02*
D03*
X145787Y1945D02*
D03*
X145787Y-165378D02*
D03*
X669724D02*
D03*
Y1945D02*
D03*
%TF.MD5,0468df83b5123d6ebfdbeff63edfa0f7*%
M02*
