M48
;Layer_Color=9474304
;FILE_FORMAT=2:5
INCH,TZ
;TYPE=PLATED
T1F00S00C0.01575
T2F00S00C0.02362
T3F00S00C0.03543
T4F00S00C0.04331
T5F00S00C0.05118
T6F00S00C0.11417
T7F00S00C0.12992
%
T01
X-217987Y-144045
X-208151Y-139045
X-206787Y-126145
X-182487Y-133645
X-189820Y-148980
X-150287Y-158445
X-130387Y-157945
X-135236Y-127929
Y-116118
X-129331Y-120055
X-123425Y-123992
Y-112181
X-129331Y-108244
X-135236Y-104307
X-127171Y-88813
X-121799Y-92413
X-123137Y-80595
X-128043Y-76995
X-124967Y-69257
X-130385Y-64945
X-131127Y-57845
X-137187Y-67145
X-142087Y-62545
X-118887Y-73345
X-174787Y-64845
X-181387Y-65245
X-187587Y-78345
X-190687Y-75345
X-193966Y-84792
X-186126Y-87645
X-185087Y-98145
X-217717Y-80114
X-118672Y-85255
X-82916Y-99483
Y-68087
X-95287Y-132445
X-114755Y-133077
X-107787Y-166845
X-133787Y-53445
X-137234Y-50345
X-141192Y-47345
X-140987Y-38445
X-137387Y-41545
X-133799Y-44439
X-152287Y-42045
X-155687Y-45345
X-165387Y-42045
X-182987Y-29845
X-195787Y-26545
X-195287Y-17546
X-190587Y-19745
X-195887Y-47045
T02
X-200621Y24577
X-195700
X-190779
X-185857
X-180936
X-176015
T03
X-50000Y-137323
X-40000
X-30000
X-20000
X-10000
X0
X10000
X20000
X30000
Y-107323
X20000
X10000
X0
X-10000
X-20000
X-30000
X-40000
X-50000
X-50000Y-59323
X-40000
X-30000
X-20000
X-10000
X0
X10000
X20000
X30000
X40000
X50000
X60000
X70000
X80000
X90000
X100000
X110000
X120000
X130000
X140000
X153937
X163937
X173937
X183937
X183937Y-107323
X173937
X163937
X153937
X140000
X130000
X120000
X110000
X100000
X90000
X80000
X70000
X60000
X50000
X40000
Y-137323
X50000
X60000
X70000
X80000
X90000
X100000
X110000
X120000
X130000
X140000
X153937
X163937
X173937
X183937
X193937
X203937
X213937
X223937
X233937
X243937
X253937
X263937
X273937
X283937
X293937
X303937
X313937
X323937
X333937
X343937
Y-107323
X333937
X323937
X313937
X303937
X293937
X283937
X273937
X263937
X253937
X243937
X233937
X223937
X213937
X203937
X193937
X193937Y-59323
X203937
X213937
X223937
X233937
X243937
X253937
X263937
X273937
X283937
X293937
X303937
X313937
X323937
X333937
X343937
X373937
X383937
X393937
X403937
Y-107323
X393937
X383937
X373937
Y-137323
X383937
X393937
X403937
Y-29323
X393937
X383937
X373937
X343937
X333937
X323937
X313937
X303937
X293937
X283937
X273937
X263937
X253937
X243937
X233937
X223937
X213937
X203937
X193937
X183937
X173937
X163937
X153937
X140000
X130000
X120000
X110000
X100000
X90000
X80000
X70000
X60000
X50000
X40000
X30000
X20000
X10000
X0
X-10000
X-20000
X-30000
X-40000
X-50000
T04
X-235787Y-158706
X-225787
Y-148706
Y-138706
Y-128706
Y-118706
Y-108706
Y-98706
Y-88706
Y-78706
Y-68706
Y-58706
X-235787
Y-68706
Y-78706
Y-88706
Y-98706
Y-108706
Y-118706
Y-128706
Y-138706
Y-148706
X-40000Y-167323
X-20000
X0
X20000
X40000
X60000
X80000
X100000
X120000
X140000
X163937
X183937
X203937
X223937
X243937
X263937
X283937
X303937
X323937
X343937
X383937
X403937
Y0
X383937
X343937
X323937
X303937
X283937
X263937
X243937
X223937
X203937
X183937
X163937
X140000
X120000
X100000
X80000
X60000
X40000
X20000
X-0
X-20000
X-40000
X-225787Y-8706
Y-18706
Y-28706
Y-38706
Y-48706
X-235787
Y-38706
Y-28706
Y-18706
Y-8706
T05
X-208700Y-193323
X-182400
X-141800
X-107677Y-193323
X-80216
X-120787Y3055
Y28055
X-150787
Y3055
T06
X-245787Y-178706
Y11294
T07
X-80000Y-167323
X443937
X523937
Y0
X443937
X-80000
M30
