%TF.GenerationSoftware,Altium Limited,Altium Designer,20.0.1 (14)*%
G04 Layer_Color=128*
%FSLAX25Y25*%
%MOIN*%
%TF.FileFunction,Drillmap*%
%TF.Part,Single*%
G01*
G75*
%TA.AperFunction,NonConductor*%
%ADD67C,0.00500*%
D67*
X377953Y-57378D02*
X381496D01*
X379724Y-59150D02*
Y-55606D01*
X387953Y-57378D02*
X391496D01*
X389724Y-59150D02*
Y-55606D01*
X377953Y-27378D02*
X381496D01*
X379724Y-29150D02*
Y-25606D01*
X387953Y-27378D02*
X391496D01*
X389724Y-29150D02*
Y-25606D01*
X407953Y-27378D02*
X411496D01*
X409724Y-29150D02*
Y-25606D01*
X397953Y-27378D02*
X401496D01*
X399724Y-29150D02*
Y-25606D01*
X407953Y-57378D02*
X411496D01*
X409724Y-59150D02*
Y-55606D01*
X397953Y-57378D02*
X401496D01*
X399724Y-59150D02*
Y-55606D01*
X417953Y-57378D02*
X421496D01*
X419724Y-59150D02*
Y-55606D01*
X427953Y-57378D02*
X431496D01*
X429724Y-59150D02*
Y-55606D01*
X417953Y-27378D02*
X421496D01*
X419724Y-29150D02*
Y-25606D01*
X427953Y-27378D02*
X431496D01*
X429724Y-29150D02*
Y-25606D01*
X447953Y-27378D02*
X451496D01*
X449724Y-29150D02*
Y-25606D01*
X437953Y-27378D02*
X441496D01*
X439724Y-29150D02*
Y-25606D01*
X447953Y-57378D02*
X451496D01*
X449724Y-59150D02*
Y-55606D01*
X437953Y-57378D02*
X441496D01*
X439724Y-59150D02*
Y-55606D01*
X457953Y-57378D02*
X461496D01*
X459724Y-59150D02*
Y-55606D01*
X467953Y-57378D02*
X471496D01*
X469724Y-59150D02*
Y-55606D01*
X457953Y-27378D02*
X461496D01*
X459724Y-29150D02*
Y-25606D01*
X467953Y-27378D02*
X471496D01*
X469724Y-29150D02*
Y-25606D01*
X487953Y-27378D02*
X491496D01*
X489724Y-29150D02*
Y-25606D01*
X477953Y-27378D02*
X481496D01*
X479724Y-29150D02*
Y-25606D01*
X487953Y-57378D02*
X491496D01*
X489724Y-59150D02*
Y-55606D01*
X477953Y-57378D02*
X481496D01*
X479724Y-59150D02*
Y-55606D01*
X497953Y-57378D02*
X501496D01*
X499724Y-59150D02*
Y-55606D01*
X507953Y-57378D02*
X511496D01*
X509724Y-59150D02*
Y-55606D01*
X497953Y-27378D02*
X501496D01*
X499724Y-29150D02*
Y-25606D01*
X507953Y-27378D02*
X511496D01*
X509724Y-29150D02*
Y-25606D01*
X527953Y-27378D02*
X531496D01*
X529724Y-29150D02*
Y-25606D01*
X517953Y-27378D02*
X521496D01*
X519724Y-29150D02*
Y-25606D01*
X527953Y-57378D02*
X531496D01*
X529724Y-59150D02*
Y-55606D01*
X517953Y-57378D02*
X521496D01*
X519724Y-59150D02*
Y-55606D01*
X537953Y-57378D02*
X541496D01*
X539724Y-59150D02*
Y-55606D01*
X547953Y-57378D02*
X551496D01*
X549724Y-59150D02*
Y-55606D01*
X537953Y-27378D02*
X541496D01*
X539724Y-29150D02*
Y-25606D01*
X547953Y-27378D02*
X551496D01*
X549724Y-29150D02*
Y-25606D01*
X567953Y-27378D02*
X571496D01*
X569724Y-29150D02*
Y-25606D01*
X557953Y-27378D02*
X561496D01*
X559724Y-29150D02*
Y-25606D01*
X567953Y-57378D02*
X571496D01*
X569724Y-59150D02*
Y-55606D01*
X557953Y-57378D02*
X561496D01*
X559724Y-59150D02*
Y-55606D01*
X174016Y-57378D02*
X177559D01*
X175787Y-59150D02*
Y-55606D01*
X184016Y-57378D02*
X187559D01*
X185787Y-59150D02*
Y-55606D01*
X174016Y-27378D02*
X177559D01*
X175787Y-29150D02*
Y-25606D01*
X184016Y-27378D02*
X187559D01*
X185787Y-29150D02*
Y-25606D01*
X204016Y-27378D02*
X207559D01*
X205787Y-29150D02*
Y-25606D01*
X194016Y-27378D02*
X197559D01*
X195787Y-29150D02*
Y-25606D01*
X204016Y-57378D02*
X207559D01*
X205787Y-59150D02*
Y-55606D01*
X194016Y-57378D02*
X197559D01*
X195787Y-59150D02*
Y-55606D01*
X214016Y-57378D02*
X217559D01*
X215787Y-59150D02*
Y-55606D01*
X224016Y-57378D02*
X227559D01*
X225787Y-59150D02*
Y-55606D01*
X214016Y-27378D02*
X217559D01*
X215787Y-29150D02*
Y-25606D01*
X224016Y-27378D02*
X227559D01*
X225787Y-29150D02*
Y-25606D01*
X244016Y-27378D02*
X247559D01*
X245787Y-29150D02*
Y-25606D01*
X234016Y-27378D02*
X237559D01*
X235787Y-29150D02*
Y-25606D01*
X244016Y-57378D02*
X247559D01*
X245787Y-59150D02*
Y-55606D01*
X234016Y-57378D02*
X237559D01*
X235787Y-59150D02*
Y-55606D01*
X254016Y-57378D02*
X257559D01*
X255787Y-59150D02*
Y-55606D01*
X264016Y-57378D02*
X267559D01*
X265787Y-59150D02*
Y-55606D01*
X254016Y-27378D02*
X257559D01*
X255787Y-29150D02*
Y-25606D01*
X264016Y-27378D02*
X267559D01*
X265787Y-29150D02*
Y-25606D01*
X284016Y-27378D02*
X287559D01*
X285787Y-29150D02*
Y-25606D01*
X274016Y-27378D02*
X277559D01*
X275787Y-29150D02*
Y-25606D01*
X284016Y-57378D02*
X287559D01*
X285787Y-59150D02*
Y-55606D01*
X274016Y-57378D02*
X277559D01*
X275787Y-59150D02*
Y-55606D01*
X294016Y-57378D02*
X297559D01*
X295787Y-59150D02*
Y-55606D01*
X304016Y-57378D02*
X307559D01*
X305787Y-59150D02*
Y-55606D01*
X294016Y-27378D02*
X297559D01*
X295787Y-29150D02*
Y-25606D01*
X304016Y-27378D02*
X307559D01*
X305787Y-29150D02*
Y-25606D01*
X324016Y-27378D02*
X327559D01*
X325787Y-29150D02*
Y-25606D01*
X314016Y-27378D02*
X317559D01*
X315787Y-29150D02*
Y-25606D01*
X324016Y-57378D02*
X327559D01*
X325787Y-59150D02*
Y-55606D01*
X314016Y-57378D02*
X317559D01*
X315787Y-59150D02*
Y-55606D01*
X334016Y-57378D02*
X337559D01*
X335787Y-59150D02*
Y-55606D01*
X344016Y-57378D02*
X347559D01*
X345787Y-59150D02*
Y-55606D01*
X334016Y-27378D02*
X337559D01*
X335787Y-29150D02*
Y-25606D01*
X344016Y-27378D02*
X347559D01*
X345787Y-29150D02*
Y-25606D01*
X364016Y-27378D02*
X367559D01*
X365787Y-29150D02*
Y-25606D01*
X354016Y-27378D02*
X357559D01*
X355787Y-29150D02*
Y-25606D01*
X364016Y-57378D02*
X367559D01*
X365787Y-59150D02*
Y-55606D01*
X354016Y-57378D02*
X357559D01*
X355787Y-59150D02*
Y-55606D01*
X387953Y-105378D02*
X391496D01*
X389724Y-107150D02*
Y-103606D01*
X377953Y-105378D02*
X381496D01*
X379724Y-107150D02*
Y-103606D01*
X387953Y-135378D02*
X391496D01*
X389724Y-137150D02*
Y-133606D01*
X377953Y-135378D02*
X381496D01*
X379724Y-137150D02*
Y-133606D01*
X397953Y-135378D02*
X401496D01*
X399724Y-137150D02*
Y-133606D01*
X407953Y-135378D02*
X411496D01*
X409724Y-137150D02*
Y-133606D01*
X397953Y-105378D02*
X401496D01*
X399724Y-107150D02*
Y-103606D01*
X407953Y-105378D02*
X411496D01*
X409724Y-107150D02*
Y-103606D01*
X427953Y-105378D02*
X431496D01*
X429724Y-107150D02*
Y-103606D01*
X417953Y-105378D02*
X421496D01*
X419724Y-107150D02*
Y-103606D01*
X427953Y-135378D02*
X431496D01*
X429724Y-137150D02*
Y-133606D01*
X417953Y-135378D02*
X421496D01*
X419724Y-137150D02*
Y-133606D01*
X437953Y-135378D02*
X441496D01*
X439724Y-137150D02*
Y-133606D01*
X447953Y-135378D02*
X451496D01*
X449724Y-137150D02*
Y-133606D01*
X437953Y-105378D02*
X441496D01*
X439724Y-107150D02*
Y-103606D01*
X447953Y-105378D02*
X451496D01*
X449724Y-107150D02*
Y-103606D01*
X467953Y-105378D02*
X471496D01*
X469724Y-107150D02*
Y-103606D01*
X457953Y-105378D02*
X461496D01*
X459724Y-107150D02*
Y-103606D01*
X467953Y-135378D02*
X471496D01*
X469724Y-137150D02*
Y-133606D01*
X457953Y-135378D02*
X461496D01*
X459724Y-137150D02*
Y-133606D01*
X477953Y-135378D02*
X481496D01*
X479724Y-137150D02*
Y-133606D01*
X487953Y-135378D02*
X491496D01*
X489724Y-137150D02*
Y-133606D01*
X477953Y-105378D02*
X481496D01*
X479724Y-107150D02*
Y-103606D01*
X487953Y-105378D02*
X491496D01*
X489724Y-107150D02*
Y-103606D01*
X507953Y-105378D02*
X511496D01*
X509724Y-107150D02*
Y-103606D01*
X497953Y-105378D02*
X501496D01*
X499724Y-107150D02*
Y-103606D01*
X507953Y-135378D02*
X511496D01*
X509724Y-137150D02*
Y-133606D01*
X497953Y-135378D02*
X501496D01*
X499724Y-137150D02*
Y-133606D01*
X517953Y-135378D02*
X521496D01*
X519724Y-137150D02*
Y-133606D01*
X527953Y-135378D02*
X531496D01*
X529724Y-137150D02*
Y-133606D01*
X517953Y-105378D02*
X521496D01*
X519724Y-107150D02*
Y-103606D01*
X527953Y-105378D02*
X531496D01*
X529724Y-107150D02*
Y-103606D01*
X547953Y-105378D02*
X551496D01*
X549724Y-107150D02*
Y-103606D01*
X537953Y-105378D02*
X541496D01*
X539724Y-107150D02*
Y-103606D01*
X547953Y-135378D02*
X551496D01*
X549724Y-137150D02*
Y-133606D01*
X537953Y-135378D02*
X541496D01*
X539724Y-137150D02*
Y-133606D01*
X557953Y-135378D02*
X561496D01*
X559724Y-137150D02*
Y-133606D01*
X567953Y-135378D02*
X571496D01*
X569724Y-137150D02*
Y-133606D01*
X557953Y-105378D02*
X561496D01*
X559724Y-107150D02*
Y-103606D01*
X567953Y-105378D02*
X571496D01*
X569724Y-107150D02*
Y-103606D01*
X184016Y-105378D02*
X187559D01*
X185787Y-107150D02*
Y-103606D01*
X174016Y-105378D02*
X177559D01*
X175787Y-107150D02*
Y-103606D01*
X184016Y-135378D02*
X187559D01*
X185787Y-137150D02*
Y-133606D01*
X174016Y-135378D02*
X177559D01*
X175787Y-137150D02*
Y-133606D01*
X194016Y-135378D02*
X197559D01*
X195787Y-137150D02*
Y-133606D01*
X204016Y-135378D02*
X207559D01*
X205787Y-137150D02*
Y-133606D01*
X194016Y-105378D02*
X197559D01*
X195787Y-107150D02*
Y-103606D01*
X204016Y-105378D02*
X207559D01*
X205787Y-107150D02*
Y-103606D01*
X224016Y-105378D02*
X227559D01*
X225787Y-107150D02*
Y-103606D01*
X214016Y-105378D02*
X217559D01*
X215787Y-107150D02*
Y-103606D01*
X224016Y-135378D02*
X227559D01*
X225787Y-137150D02*
Y-133606D01*
X214016Y-135378D02*
X217559D01*
X215787Y-137150D02*
Y-133606D01*
X234016Y-135378D02*
X237559D01*
X235787Y-137150D02*
Y-133606D01*
X244016Y-135378D02*
X247559D01*
X245787Y-137150D02*
Y-133606D01*
X234016Y-105378D02*
X237559D01*
X235787Y-107150D02*
Y-103606D01*
X244016Y-105378D02*
X247559D01*
X245787Y-107150D02*
Y-103606D01*
X264016Y-105378D02*
X267559D01*
X265787Y-107150D02*
Y-103606D01*
X254016Y-105378D02*
X257559D01*
X255787Y-107150D02*
Y-103606D01*
X264016Y-135378D02*
X267559D01*
X265787Y-137150D02*
Y-133606D01*
X254016Y-135378D02*
X257559D01*
X255787Y-137150D02*
Y-133606D01*
X274016Y-135378D02*
X277559D01*
X275787Y-137150D02*
Y-133606D01*
X284016Y-135378D02*
X287559D01*
X285787Y-137150D02*
Y-133606D01*
X274016Y-105378D02*
X277559D01*
X275787Y-107150D02*
Y-103606D01*
X284016Y-105378D02*
X287559D01*
X285787Y-107150D02*
Y-103606D01*
X304016Y-105378D02*
X307559D01*
X305787Y-107150D02*
Y-103606D01*
X294016Y-105378D02*
X297559D01*
X295787Y-107150D02*
Y-103606D01*
X304016Y-135378D02*
X307559D01*
X305787Y-137150D02*
Y-133606D01*
X294016Y-135378D02*
X297559D01*
X295787Y-137150D02*
Y-133606D01*
X314016Y-135378D02*
X317559D01*
X315787Y-137150D02*
Y-133606D01*
X324016Y-135378D02*
X327559D01*
X325787Y-137150D02*
Y-133606D01*
X314016Y-105378D02*
X317559D01*
X315787Y-107150D02*
Y-103606D01*
X324016Y-105378D02*
X327559D01*
X325787Y-107150D02*
Y-103606D01*
X344016Y-105378D02*
X347559D01*
X345787Y-107150D02*
Y-103606D01*
X334016Y-105378D02*
X337559D01*
X335787Y-107150D02*
Y-103606D01*
X344016Y-135378D02*
X347559D01*
X345787Y-137150D02*
Y-133606D01*
X334016Y-135378D02*
X337559D01*
X335787Y-137150D02*
Y-133606D01*
X354016Y-135378D02*
X357559D01*
X355787Y-137150D02*
Y-133606D01*
X364016Y-135378D02*
X367559D01*
X365787Y-137150D02*
Y-133606D01*
X354016Y-105378D02*
X357559D01*
X355787Y-107150D02*
Y-103606D01*
X364016Y-105378D02*
X367559D01*
X365787Y-107150D02*
Y-103606D01*
X597953Y-57378D02*
X601496D01*
X599724Y-59150D02*
Y-55606D01*
X607953Y-57378D02*
X611496D01*
X609724Y-59150D02*
Y-55606D01*
X597953Y-27378D02*
X601496D01*
X599724Y-29150D02*
Y-25606D01*
X607953Y-27378D02*
X611496D01*
X609724Y-29150D02*
Y-25606D01*
X627953Y-27378D02*
X631496D01*
X629724Y-29150D02*
Y-25606D01*
X617953Y-27378D02*
X621496D01*
X619724Y-29150D02*
Y-25606D01*
X627953Y-57378D02*
X631496D01*
X629724Y-59150D02*
Y-55606D01*
X617953Y-57378D02*
X621496D01*
X619724Y-59150D02*
Y-55606D01*
X607953Y-105378D02*
X611496D01*
X609724Y-107150D02*
Y-103606D01*
X597953Y-105378D02*
X601496D01*
X599724Y-107150D02*
Y-103606D01*
X607953Y-135378D02*
X611496D01*
X609724Y-137150D02*
Y-133606D01*
X597953Y-135378D02*
X601496D01*
X599724Y-137150D02*
Y-133606D01*
X617953Y-135378D02*
X621496D01*
X619724Y-137150D02*
Y-133606D01*
X627953Y-135378D02*
X631496D01*
X629724Y-137150D02*
Y-133606D01*
X617953Y-105378D02*
X621496D01*
X619724Y-107150D02*
Y-103606D01*
X627953Y-105378D02*
X631496D01*
X629724Y-107150D02*
Y-103606D01*
X102441Y5000D02*
X107559D01*
X105000Y2441D02*
Y7559D01*
X72441Y5000D02*
X77559D01*
X75000Y2441D02*
Y7559D01*
X102441Y30000D02*
X107559D01*
X105000Y27441D02*
Y32559D01*
X72441Y30000D02*
X77559D01*
X75000Y27441D02*
Y32559D01*
X117728Y-190678D02*
X122846D01*
X120287Y-193237D02*
Y-188119D01*
X81428Y-190678D02*
X86546D01*
X83987Y-193237D02*
Y-188119D01*
X40828Y-190778D02*
X45946D01*
X43387Y-193337D02*
Y-188219D01*
X14528Y-191378D02*
X19646D01*
X17087Y-193937D02*
Y-188819D01*
X627165Y1945D02*
X632283D01*
X629724Y-614D02*
Y4504D01*
X607165Y1945D02*
X612283D01*
X609724Y-614D02*
Y4504D01*
X627165Y-165378D02*
X632283D01*
X629724Y-167937D02*
Y-162819D01*
X607165Y-165378D02*
X612283D01*
X609724Y-167937D02*
Y-162819D01*
X567165Y1945D02*
X572283D01*
X569724Y-614D02*
Y4504D01*
X547165Y1945D02*
X552283D01*
X549724Y-614D02*
Y4504D01*
X527165Y1945D02*
X532283D01*
X529724Y-614D02*
Y4504D01*
X507165Y1945D02*
X512283D01*
X509724Y-614D02*
Y4504D01*
X487165Y1945D02*
X492283D01*
X489724Y-614D02*
Y4504D01*
X467165Y1945D02*
X472283D01*
X469724Y-614D02*
Y4504D01*
X447165Y1945D02*
X452283D01*
X449724Y-614D02*
Y4504D01*
X427165Y1945D02*
X432283D01*
X429724Y-614D02*
Y4504D01*
X407165Y1945D02*
X412283D01*
X409724Y-614D02*
Y4504D01*
X387165Y1945D02*
X392283D01*
X389724Y-614D02*
Y4504D01*
X183228Y1945D02*
X188346D01*
X185787Y-614D02*
Y4504D01*
X203228Y1945D02*
X208346D01*
X205787Y-614D02*
Y4504D01*
X223228Y1945D02*
X228346D01*
X225787Y-614D02*
Y4504D01*
X243228Y1945D02*
X248346D01*
X245787Y-614D02*
Y4504D01*
X263228Y1945D02*
X268346D01*
X265787Y-614D02*
Y4504D01*
X283228Y1945D02*
X288346D01*
X285787Y-614D02*
Y4504D01*
X303228Y1945D02*
X308346D01*
X305787Y-614D02*
Y4504D01*
X323228Y1945D02*
X328346D01*
X325787Y-614D02*
Y4504D01*
X343228Y1945D02*
X348346D01*
X345787Y-614D02*
Y4504D01*
X363228Y1945D02*
X368346D01*
X365787Y-614D02*
Y4504D01*
X387165Y-165378D02*
X392283D01*
X389724Y-167937D02*
Y-162819D01*
X407165Y-165378D02*
X412283D01*
X409724Y-167937D02*
Y-162819D01*
X427165Y-165378D02*
X432283D01*
X429724Y-167937D02*
Y-162819D01*
X447165Y-165378D02*
X452283D01*
X449724Y-167937D02*
Y-162819D01*
X467165Y-165378D02*
X472283D01*
X469724Y-167937D02*
Y-162819D01*
X487165Y-165378D02*
X492283D01*
X489724Y-167937D02*
Y-162819D01*
X507165Y-165378D02*
X512283D01*
X509724Y-167937D02*
Y-162819D01*
X527165Y-165378D02*
X532283D01*
X529724Y-167937D02*
Y-162819D01*
X547165Y-165378D02*
X552283D01*
X549724Y-167937D02*
Y-162819D01*
X567165Y-165378D02*
X572283D01*
X569724Y-167937D02*
Y-162819D01*
X363228Y-165378D02*
X368347D01*
X365787Y-167937D02*
Y-162819D01*
X343228Y-165378D02*
X348346D01*
X345787Y-167937D02*
Y-162819D01*
X323228Y-165378D02*
X328346D01*
X325787Y-167937D02*
Y-162819D01*
X303228Y-165378D02*
X308347D01*
X305787Y-167937D02*
Y-162819D01*
X283228Y-165378D02*
X288347D01*
X285787Y-167937D02*
Y-162819D01*
X263228Y-165378D02*
X268347D01*
X265787Y-167937D02*
Y-162819D01*
X243228Y-165378D02*
X248346D01*
X245787Y-167937D02*
Y-162819D01*
X223228Y-165378D02*
X228346D01*
X225787Y-167937D02*
Y-162819D01*
X203228Y-165378D02*
X208347D01*
X205787Y-167937D02*
Y-162819D01*
X183228Y-165378D02*
X188347D01*
X185787Y-167937D02*
Y-162819D01*
X-25709Y20000D02*
X-14291D01*
X-20000Y14291D02*
Y25709D01*
X-25709Y-170000D02*
X-14291D01*
X-20000Y-175709D02*
Y-164291D01*
X-12165Y0D02*
X-7835D01*
X-10000Y-2165D02*
Y2165D01*
X-12165Y-10000D02*
X-7835D01*
X-10000Y-12165D02*
Y-7835D01*
X-12165Y-20000D02*
X-7835D01*
X-10000Y-22165D02*
Y-17835D01*
X-12165Y-30000D02*
X-7835D01*
X-10000Y-32165D02*
Y-27835D01*
X-12165Y-40000D02*
X-7835D01*
X-10000Y-42165D02*
Y-37835D01*
X-12165Y-50000D02*
X-7835D01*
X-10000Y-52165D02*
Y-47835D01*
X-12165Y-60000D02*
X-7835D01*
X-10000Y-62165D02*
Y-57835D01*
X-12165Y-70000D02*
X-7835D01*
X-10000Y-72165D02*
Y-67835D01*
X-12165Y-80000D02*
X-7835D01*
X-10000Y-82165D02*
Y-77835D01*
X-12165Y-90000D02*
X-7835D01*
X-10000Y-92165D02*
Y-87835D01*
X-12165Y-100000D02*
X-7835D01*
X-10000Y-102165D02*
Y-97835D01*
X-12165Y-110000D02*
X-7835D01*
X-10000Y-112165D02*
Y-107835D01*
X-12165Y-120000D02*
X-7835D01*
X-10000Y-122165D02*
Y-117835D01*
X-12165Y-130000D02*
X-7835D01*
X-10000Y-132165D02*
Y-127835D01*
X-12165Y-140000D02*
X-7835D01*
X-10000Y-142165D02*
Y-137835D01*
X-12165Y-150000D02*
X-7835D01*
X-10000Y-152165D02*
Y-147835D01*
X-2165Y0D02*
X2165D01*
X0Y-2165D02*
Y2165D01*
X-2165Y-10000D02*
X2165D01*
X0Y-12165D02*
Y-7835D01*
X-2165Y-20000D02*
X2165D01*
X0Y-22165D02*
Y-17835D01*
X-2165Y-30000D02*
X2165D01*
X0Y-32165D02*
Y-27835D01*
X-2165Y-40000D02*
X2165D01*
X0Y-42165D02*
Y-37835D01*
X-2165Y-50000D02*
X2165D01*
X0Y-52165D02*
Y-47835D01*
X-2165Y-60000D02*
X2165D01*
X0Y-62165D02*
Y-57835D01*
X-2165Y-70000D02*
X2165D01*
X0Y-72165D02*
Y-67835D01*
X-2165Y-80000D02*
X2165D01*
X0Y-82165D02*
Y-77835D01*
X-2165Y-90000D02*
X2165D01*
X0Y-92165D02*
Y-87835D01*
X-2165Y-100000D02*
X2165D01*
X0Y-102165D02*
Y-97835D01*
X-2165Y-110000D02*
X2165D01*
X0Y-112165D02*
Y-107835D01*
X-2165Y-120000D02*
X2165D01*
X0Y-122165D02*
Y-117835D01*
X-2165Y-130000D02*
X2165D01*
X0Y-132165D02*
Y-127835D01*
X-2165Y-140000D02*
X2165D01*
X0Y-142165D02*
Y-137835D01*
X-2165Y-150000D02*
X2165D01*
X0Y-152165D02*
Y-147835D01*
X23985Y26522D02*
X26347D01*
X25166Y25341D02*
Y27703D01*
X28906Y26522D02*
X31269D01*
X30087Y25341D02*
Y27703D01*
X33828Y26522D02*
X36190D01*
X35009Y25341D02*
Y27703D01*
X38749Y26522D02*
X41111D01*
X39930Y25341D02*
Y27703D01*
X43670Y26522D02*
X46032D01*
X44851Y25341D02*
Y27703D01*
X48591Y26522D02*
X50954D01*
X49772Y25341D02*
Y27703D01*
X94613Y-156000D02*
X96187D01*
X95400Y-156787D02*
Y-155213D01*
X117213Y-164900D02*
X118787D01*
X118000Y-165687D02*
Y-164113D01*
X142084Y-97538D02*
X143658D01*
X142871Y-98326D02*
Y-96751D01*
X142084Y-66142D02*
X143658D01*
X142871Y-66930D02*
Y-65355D01*
X42013Y-27900D02*
X43587D01*
X42800Y-28687D02*
Y-27113D01*
X59613Y-40100D02*
X61187D01*
X60400Y-40887D02*
Y-39313D01*
X106113Y-71400D02*
X107687D01*
X106900Y-72187D02*
Y-70613D01*
X74713Y-156500D02*
X76287D01*
X75500Y-157287D02*
Y-155713D01*
X35213Y-160500D02*
X36787D01*
X36000Y-161287D02*
Y-159713D01*
X42513Y-131700D02*
X44087D01*
X43300Y-132487D02*
Y-130913D01*
X38874Y-85700D02*
X40449D01*
X39661Y-86487D02*
Y-84913D01*
X37413Y-76400D02*
X38987D01*
X38200Y-77187D02*
Y-75613D01*
X39913Y-96200D02*
X41487D01*
X40700Y-96987D02*
Y-95413D01*
X30213Y-85700D02*
X31787D01*
X31000Y-86487D02*
Y-84913D01*
X9713Y-77400D02*
X11287D01*
X10500Y-78187D02*
Y-76613D01*
X34313Y-73400D02*
X35887D01*
X35100Y-74187D02*
Y-72613D01*
X34413Y-17800D02*
X35987D01*
X35200Y-18587D02*
Y-17013D01*
X29213Y-24600D02*
X30787D01*
X30000Y-25387D02*
Y-23813D01*
X29113Y-45100D02*
X30687D01*
X29900Y-45887D02*
Y-44313D01*
X29713Y-15601D02*
X31287D01*
X30500Y-16389D02*
Y-14814D01*
X50213Y-62900D02*
X51787D01*
X51000Y-63687D02*
Y-62113D01*
X43613Y-63300D02*
X45187D01*
X44400Y-64087D02*
Y-62513D01*
X69313Y-43400D02*
X70887D01*
X70100Y-44187D02*
Y-42613D01*
X72713Y-40100D02*
X74287D01*
X73500Y-40887D02*
Y-39313D01*
X93873Y-55900D02*
X95448D01*
X94660Y-56687D02*
Y-55113D01*
X91213Y-51500D02*
X92787D01*
X92000Y-52287D02*
Y-50713D01*
X87766Y-48400D02*
X89340D01*
X88553Y-49187D02*
Y-47613D01*
X83808Y-45400D02*
X85383D01*
X84596Y-46187D02*
Y-44613D01*
X91201Y-42494D02*
X92776D01*
X91988Y-43281D02*
Y-41706D01*
X87613Y-39600D02*
X89187D01*
X88400Y-40387D02*
Y-38813D01*
X84013Y-36500D02*
X85587D01*
X84800Y-37287D02*
Y-35713D01*
X96957Y-75050D02*
X98531D01*
X97744Y-75837D02*
Y-74263D01*
X100033Y-67312D02*
X101608D01*
X100820Y-68099D02*
Y-66524D01*
X101863Y-78650D02*
X103437D01*
X102650Y-79437D02*
Y-77863D01*
X94615Y-63000D02*
X96190D01*
X95402Y-63787D02*
Y-62213D01*
X106328Y-83310D02*
X107903D01*
X107116Y-84097D02*
Y-82523D01*
X103201Y-90469D02*
X104776D01*
X103988Y-91256D02*
Y-89681D01*
X87813Y-65200D02*
X89387D01*
X88600Y-65987D02*
Y-64413D01*
X82913Y-60600D02*
X84487D01*
X83700Y-61387D02*
Y-59813D01*
X111813Y-132700D02*
X113387D01*
X112600Y-133487D02*
Y-131913D01*
X95669Y-118110D02*
X97244D01*
X96457Y-118898D02*
Y-117323D01*
X101575Y-122047D02*
X103150D01*
X102362Y-122835D02*
Y-121260D01*
X89764Y-114173D02*
X91339D01*
X90551Y-114961D02*
Y-113386D01*
X101575Y-110236D02*
X103150D01*
X102362Y-111024D02*
Y-109449D01*
X95669Y-106299D02*
X97244D01*
X96457Y-107087D02*
Y-105512D01*
X89764Y-102362D02*
X91339D01*
X90551Y-103150D02*
Y-101575D01*
X97829Y-86869D02*
X99404D01*
X98616Y-87656D02*
Y-86081D01*
X89764Y-125984D02*
X91339D01*
X90551Y-126772D02*
Y-125197D01*
X129713Y-130500D02*
X131287D01*
X130500Y-131287D02*
Y-129713D01*
X20513Y-114500D02*
X22087D01*
X21300Y-115287D02*
Y-113713D01*
X16849Y-137100D02*
X18423D01*
X17636Y-137887D02*
Y-136313D01*
X7013Y-142100D02*
X8587D01*
X7800Y-142887D02*
Y-141313D01*
X743819Y1945D02*
X755630D01*
X749724Y-3961D02*
Y7850D01*
X743819Y-165378D02*
X755630D01*
X749724Y-171283D02*
Y-159472D01*
X139882Y1945D02*
X151693D01*
X145787Y-3961D02*
Y7850D01*
X139882Y-165378D02*
X151693D01*
X145787Y-171283D02*
Y-159472D01*
X663819Y-165378D02*
X675630D01*
X669724Y-171283D02*
Y-159472D01*
X663819Y1945D02*
X675630D01*
X669724Y-3961D02*
Y7850D01*
%TF.MD5,ce5815aae57d15f90a73d88e20d15788*%
M02*
