%TF.GenerationSoftware,Altium Limited,Altium Designer,20.0.1 (14)*%
G04 Layer_Color=16711935*
%FSLAX25Y25*%
%MOIN*%
%TF.FileFunction,Soldermask,Bot*%
%TF.Part,Single*%
G01*
G75*
%TA.AperFunction,SMDPad,CuDef*%
%ADD37O,0.10839X0.02178*%
%TA.AperFunction,ComponentPad*%
%ADD38R,0.08280X0.08280*%
%ADD39C,0.08280*%
%ADD40O,0.04973X0.10642*%
%ADD41R,0.08280X0.08280*%
%ADD42C,0.10642*%
%ADD43C,0.18517*%
%ADD44C,0.08674*%
%ADD45O,0.03950X0.07099*%
%TA.AperFunction,ViaPad*%
%ADD46C,0.32296*%
D37*
X118039Y-123482D02*
D03*
Y-120982D02*
D03*
Y-118482D02*
D03*
Y-115982D02*
D03*
Y-113482D02*
D03*
Y-110982D02*
D03*
Y-108482D02*
D03*
Y-105982D02*
D03*
X137134Y-123482D02*
D03*
Y-120982D02*
D03*
Y-118482D02*
D03*
Y-115982D02*
D03*
Y-113482D02*
D03*
Y-110982D02*
D03*
Y-108482D02*
D03*
Y-105982D02*
D03*
X118039Y-89928D02*
D03*
Y-87428D02*
D03*
Y-84928D02*
D03*
Y-82428D02*
D03*
Y-79928D02*
D03*
Y-77428D02*
D03*
Y-74928D02*
D03*
Y-72428D02*
D03*
X137134Y-89928D02*
D03*
Y-87428D02*
D03*
Y-84928D02*
D03*
Y-82428D02*
D03*
Y-79928D02*
D03*
Y-77428D02*
D03*
Y-74928D02*
D03*
Y-72428D02*
D03*
X118040Y-56529D02*
D03*
Y-54030D02*
D03*
Y-51530D02*
D03*
Y-49029D02*
D03*
Y-46529D02*
D03*
Y-44030D02*
D03*
Y-41530D02*
D03*
Y-39029D02*
D03*
X137135Y-56529D02*
D03*
Y-54030D02*
D03*
Y-51530D02*
D03*
Y-49029D02*
D03*
Y-46529D02*
D03*
Y-44030D02*
D03*
Y-41530D02*
D03*
Y-39029D02*
D03*
D38*
X379724Y-57378D02*
D03*
X399724D02*
D03*
X419724D02*
D03*
X439724D02*
D03*
X459724D02*
D03*
X479724D02*
D03*
X499724D02*
D03*
X519724D02*
D03*
X539724D02*
D03*
X559724D02*
D03*
X175787D02*
D03*
X195787D02*
D03*
X215787D02*
D03*
X235787D02*
D03*
X255787D02*
D03*
X275787D02*
D03*
X295787D02*
D03*
X315787D02*
D03*
X335787D02*
D03*
X355787D02*
D03*
X389724Y-105378D02*
D03*
X409724D02*
D03*
X429724D02*
D03*
X449724D02*
D03*
X469724D02*
D03*
X489724D02*
D03*
X509724D02*
D03*
X529724D02*
D03*
X549724D02*
D03*
X569724D02*
D03*
X185787D02*
D03*
X205787D02*
D03*
X225787D02*
D03*
X245787D02*
D03*
X265787D02*
D03*
X285787D02*
D03*
X305787D02*
D03*
X325787D02*
D03*
X345787D02*
D03*
X365787D02*
D03*
X599724Y-57378D02*
D03*
X619724D02*
D03*
X609724Y-105378D02*
D03*
X629724D02*
D03*
X75000Y5000D02*
D03*
X105000Y30000D02*
D03*
X75000D02*
D03*
X120287Y-190678D02*
D03*
X43387Y-190778D02*
D03*
D39*
X389724Y-57378D02*
D03*
X409724D02*
D03*
X429724D02*
D03*
X449724D02*
D03*
X469724D02*
D03*
X489724D02*
D03*
X509724D02*
D03*
X529724D02*
D03*
X549724D02*
D03*
X569724D02*
D03*
X185787D02*
D03*
X205787D02*
D03*
X225787D02*
D03*
X245787D02*
D03*
X265787D02*
D03*
X285787D02*
D03*
X305787D02*
D03*
X325787D02*
D03*
X345787D02*
D03*
X365787D02*
D03*
X379724Y-105378D02*
D03*
X399724D02*
D03*
X419724D02*
D03*
X439724D02*
D03*
X459724D02*
D03*
X479724D02*
D03*
X499724D02*
D03*
X519724D02*
D03*
X539724D02*
D03*
X559724D02*
D03*
X175787D02*
D03*
X195787D02*
D03*
X215787D02*
D03*
X235787D02*
D03*
X255787D02*
D03*
X275787D02*
D03*
X295787D02*
D03*
X315787D02*
D03*
X335787D02*
D03*
X355787D02*
D03*
X609724Y-57378D02*
D03*
X629724D02*
D03*
X599724Y-105378D02*
D03*
X619724D02*
D03*
D40*
X379724Y-27378D02*
D03*
X389724D02*
D03*
X409724D02*
D03*
X399724D02*
D03*
X419724D02*
D03*
X429724D02*
D03*
X449724D02*
D03*
X439724D02*
D03*
X459724D02*
D03*
X469724D02*
D03*
X489724D02*
D03*
X479724D02*
D03*
X499724D02*
D03*
X509724D02*
D03*
X529724D02*
D03*
X519724D02*
D03*
X539724D02*
D03*
X549724D02*
D03*
X569724D02*
D03*
X559724D02*
D03*
X175787D02*
D03*
X185787D02*
D03*
X205787D02*
D03*
X195787D02*
D03*
X215787D02*
D03*
X225787D02*
D03*
X245787D02*
D03*
X235787D02*
D03*
X255787D02*
D03*
X265787D02*
D03*
X285787D02*
D03*
X275787D02*
D03*
X295787D02*
D03*
X305787D02*
D03*
X325787D02*
D03*
X315787D02*
D03*
X335787D02*
D03*
X345787D02*
D03*
X365787D02*
D03*
X355787D02*
D03*
X389724Y-135378D02*
D03*
X379724D02*
D03*
X399724D02*
D03*
X409724D02*
D03*
X429724D02*
D03*
X419724D02*
D03*
X439724D02*
D03*
X449724D02*
D03*
X469724D02*
D03*
X459724D02*
D03*
X479724D02*
D03*
X489724D02*
D03*
X509724D02*
D03*
X499724D02*
D03*
X519724D02*
D03*
X529724D02*
D03*
X549724D02*
D03*
X539724D02*
D03*
X559724D02*
D03*
X569724D02*
D03*
X185787D02*
D03*
X175787D02*
D03*
X195787D02*
D03*
X205787D02*
D03*
X225787D02*
D03*
X215787D02*
D03*
X235787D02*
D03*
X245787D02*
D03*
X265787D02*
D03*
X255787D02*
D03*
X275787D02*
D03*
X285787D02*
D03*
X305787D02*
D03*
X295787D02*
D03*
X315787D02*
D03*
X325787D02*
D03*
X345787D02*
D03*
X335787D02*
D03*
X355787D02*
D03*
X365787D02*
D03*
X599724Y-27378D02*
D03*
X609724D02*
D03*
X629724D02*
D03*
X619724D02*
D03*
X609724Y-135378D02*
D03*
X599724D02*
D03*
X619724D02*
D03*
X629724D02*
D03*
D41*
X105000Y5000D02*
D03*
X83987Y-190678D02*
D03*
X17087Y-191378D02*
D03*
D42*
X629724Y1945D02*
D03*
X609724D02*
D03*
X629724Y-165378D02*
D03*
X609724D02*
D03*
X569724Y1945D02*
D03*
X549724D02*
D03*
X529724D02*
D03*
X509724D02*
D03*
X489724D02*
D03*
X469724D02*
D03*
X449724D02*
D03*
X429724D02*
D03*
X409724D02*
D03*
X389724D02*
D03*
X185787D02*
D03*
X205787D02*
D03*
X225787D02*
D03*
X245787D02*
D03*
X265787D02*
D03*
X285787D02*
D03*
X305787D02*
D03*
X325787D02*
D03*
X345787D02*
D03*
X365787D02*
D03*
X389724Y-165378D02*
D03*
X409724D02*
D03*
X429724D02*
D03*
X449724D02*
D03*
X469724D02*
D03*
X489724D02*
D03*
X509724D02*
D03*
X529724D02*
D03*
X549724D02*
D03*
X569724D02*
D03*
X365787D02*
D03*
X345787D02*
D03*
X325787D02*
D03*
X305787D02*
D03*
X285787D02*
D03*
X265787D02*
D03*
X245787D02*
D03*
X225787D02*
D03*
X205787D02*
D03*
X185787D02*
D03*
D43*
X-20000Y20000D02*
D03*
Y-170000D02*
D03*
D44*
X-10000Y0D02*
D03*
Y-10000D02*
D03*
Y-20000D02*
D03*
Y-30000D02*
D03*
Y-40000D02*
D03*
Y-50000D02*
D03*
Y-60000D02*
D03*
Y-70000D02*
D03*
Y-80000D02*
D03*
Y-90000D02*
D03*
Y-100000D02*
D03*
Y-110000D02*
D03*
Y-120000D02*
D03*
Y-130000D02*
D03*
Y-140000D02*
D03*
Y-150000D02*
D03*
X0Y0D02*
D03*
Y-10000D02*
D03*
Y-20000D02*
D03*
Y-30000D02*
D03*
Y-40000D02*
D03*
Y-50000D02*
D03*
Y-60000D02*
D03*
Y-70000D02*
D03*
Y-80000D02*
D03*
Y-90000D02*
D03*
Y-100000D02*
D03*
Y-110000D02*
D03*
Y-120000D02*
D03*
Y-130000D02*
D03*
Y-140000D02*
D03*
Y-150000D02*
D03*
D45*
X25166Y26522D02*
D03*
X30087D02*
D03*
X35009D02*
D03*
X39930D02*
D03*
X44851D02*
D03*
X49772D02*
D03*
D46*
X749724Y1945D02*
D03*
Y-165378D02*
D03*
X145787Y1945D02*
D03*
X145787Y-165378D02*
D03*
X669724D02*
D03*
Y1945D02*
D03*
%TF.MD5,e43ef7b0b3adf6cf6a48605cfc874b7c*%
M02*
