%TF.GenerationSoftware,Altium Limited,Altium Designer,20.0.1 (14)*%
G04 Layer_Color=65535*
%FSLAX25Y25*%
%MOIN*%
%TF.FileFunction,Legend,Top*%
%TF.Part,Single*%
G01*
G75*
%TA.AperFunction,NonConductor*%
%ADD32C,0.00984*%
%ADD33C,0.00800*%
%ADD34C,0.02362*%
%ADD35C,0.00787*%
%ADD36C,0.01000*%
%ADD47C,0.00600*%
%ADD48C,0.02000*%
G36*
X629224Y36322D02*
X609624D01*
Y44947D01*
X629224D01*
Y36322D01*
D02*
G37*
G36*
X630788Y-209378D02*
X606124D01*
Y-200748D01*
X630788D01*
Y-209378D01*
D02*
G37*
%LPC*%
G36*
X621634Y42870D02*
X620731D01*
Y40394D01*
Y40299D01*
X620728Y40209D01*
Y40127D01*
X620725Y40053D01*
X620722Y39985D01*
X620717Y39922D01*
X620714Y39865D01*
X620712Y39815D01*
X620706Y39772D01*
X620703Y39736D01*
X620701Y39703D01*
X620695Y39679D01*
X620692Y39660D01*
Y39646D01*
X620690Y39638D01*
Y39635D01*
X620682Y39594D01*
X620668Y39553D01*
X620635Y39477D01*
X620597Y39411D01*
X620556Y39357D01*
X620537Y39332D01*
X620518Y39310D01*
X620499Y39291D01*
X620485Y39275D01*
X620471Y39264D01*
X620460Y39256D01*
X620455Y39250D01*
X620452Y39248D01*
X620414Y39220D01*
X620373Y39196D01*
X620327Y39176D01*
X620280Y39157D01*
X620231Y39144D01*
X620185Y39130D01*
X620089Y39111D01*
X620046Y39106D01*
X620005Y39100D01*
X619969Y39097D01*
X619936Y39095D01*
X619912Y39092D01*
X619874D01*
X619805Y39095D01*
X619740Y39100D01*
X619680Y39108D01*
X619622Y39116D01*
X619568Y39130D01*
X619519Y39144D01*
X619475Y39157D01*
X619434Y39174D01*
X619398Y39190D01*
X619368Y39204D01*
X619341Y39217D01*
X619319Y39231D01*
X619300Y39239D01*
X619289Y39248D01*
X619281Y39253D01*
X619278Y39256D01*
X619240Y39288D01*
X619205Y39324D01*
X619172Y39359D01*
X619142Y39395D01*
X619117Y39433D01*
X619095Y39469D01*
X619074Y39504D01*
X619057Y39540D01*
X619044Y39572D01*
X619030Y39602D01*
X619022Y39630D01*
X619014Y39652D01*
X619008Y39671D01*
X619003Y39687D01*
X619000Y39695D01*
Y39698D01*
X618994Y39733D01*
X618989Y39780D01*
X618984Y39832D01*
X618981Y39886D01*
X618978Y39946D01*
X618975Y40009D01*
X618973Y40137D01*
X618970Y40198D01*
Y40255D01*
X618967Y40307D01*
Y40353D01*
Y40391D01*
Y40421D01*
Y40432D01*
Y40440D01*
Y40443D01*
Y40446D01*
Y42870D01*
X618063D01*
Y40348D01*
X618066Y40219D01*
X618072Y40099D01*
X618077Y39990D01*
X618083Y39886D01*
X618091Y39794D01*
X618099Y39709D01*
X618107Y39635D01*
X618115Y39567D01*
X618124Y39510D01*
X618132Y39461D01*
X618137Y39419D01*
X618143Y39390D01*
X618148Y39368D01*
X618151Y39354D01*
Y39349D01*
X618164Y39299D01*
X618181Y39253D01*
X618216Y39160D01*
X618260Y39075D01*
X618279Y39037D01*
X618301Y39002D01*
X618323Y38966D01*
X618342Y38939D01*
X618358Y38912D01*
X618375Y38890D01*
X618386Y38873D01*
X618397Y38860D01*
X618402Y38852D01*
X618405Y38849D01*
X618443Y38805D01*
X618484Y38764D01*
X618569Y38691D01*
X618656Y38625D01*
X618700Y38595D01*
X618741Y38570D01*
X618779Y38546D01*
X618814Y38527D01*
X618847Y38508D01*
X618874Y38494D01*
X618896Y38483D01*
X618915Y38475D01*
X618926Y38469D01*
X618929Y38467D01*
X618994Y38442D01*
X619065Y38420D01*
X619142Y38399D01*
X619221Y38382D01*
X619382Y38357D01*
X619461Y38347D01*
X619538Y38341D01*
X619611Y38333D01*
X619680Y38330D01*
X619742Y38328D01*
X619794Y38325D01*
X619841Y38322D01*
X619901D01*
X619999Y38325D01*
X620092Y38328D01*
X620179Y38336D01*
X620261Y38344D01*
X620338Y38352D01*
X620409Y38366D01*
X620474Y38377D01*
X620531Y38390D01*
X620583Y38401D01*
X620630Y38415D01*
X620671Y38426D01*
X620703Y38434D01*
X620731Y38445D01*
X620747Y38450D01*
X620761Y38453D01*
X620763Y38456D01*
X620823Y38483D01*
X620881Y38510D01*
X620935Y38540D01*
X620985Y38568D01*
X621031Y38601D01*
X621075Y38631D01*
X621116Y38658D01*
X621151Y38688D01*
X621184Y38715D01*
X621211Y38740D01*
X621236Y38762D01*
X621255Y38781D01*
X621271Y38797D01*
X621282Y38808D01*
X621288Y38816D01*
X621290Y38819D01*
X621326Y38863D01*
X621359Y38909D01*
X621389Y38955D01*
X621416Y39005D01*
X621462Y39097D01*
X621501Y39187D01*
X621514Y39226D01*
X621528Y39264D01*
X621539Y39297D01*
X621547Y39327D01*
X621552Y39349D01*
X621558Y39368D01*
X621561Y39379D01*
Y39381D01*
X621566Y39414D01*
X621574Y39450D01*
X621585Y39526D01*
X621596Y39611D01*
X621604Y39701D01*
X621610Y39794D01*
X621615Y39889D01*
X621621Y39982D01*
X621626Y40075D01*
X621629Y40165D01*
X621632Y40247D01*
Y40323D01*
Y40356D01*
X621634Y40389D01*
Y42870D01*
D02*
G37*
G36*
X625822D02*
X622265D01*
Y42114D01*
X623592D01*
Y38396D01*
X624495D01*
Y42114D01*
X625822D01*
Y42870D01*
D02*
G37*
G36*
X615230Y42947D02*
X615186D01*
X615085Y42944D01*
X614987Y42939D01*
X614894Y42930D01*
X614807Y42919D01*
X614722Y42906D01*
X614640Y42892D01*
X614566Y42876D01*
X614501Y42859D01*
X614438Y42843D01*
X614384Y42827D01*
X614337Y42813D01*
X614296Y42799D01*
X614263Y42788D01*
X614242Y42780D01*
X614228Y42775D01*
X614222Y42772D01*
X614165Y42745D01*
X614108Y42717D01*
X613999Y42652D01*
X613947Y42619D01*
X613900Y42584D01*
X613854Y42551D01*
X613813Y42518D01*
X613775Y42488D01*
X613742Y42458D01*
X613712Y42433D01*
X613687Y42409D01*
X613668Y42393D01*
X613652Y42376D01*
X613644Y42368D01*
X613641Y42365D01*
X613548Y42261D01*
X613504Y42210D01*
X613466Y42155D01*
X613428Y42103D01*
X613395Y42054D01*
X613362Y42005D01*
X613335Y41958D01*
X613311Y41915D01*
X613289Y41877D01*
X613270Y41841D01*
X613253Y41811D01*
X613242Y41786D01*
X613234Y41770D01*
X613229Y41756D01*
X613226Y41754D01*
X613190Y41664D01*
X613158Y41571D01*
X613130Y41475D01*
X613109Y41380D01*
X613087Y41281D01*
X613070Y41186D01*
X613057Y41093D01*
X613046Y41006D01*
X613038Y40921D01*
X613032Y40845D01*
X613027Y40776D01*
X613024Y40719D01*
Y40694D01*
Y40670D01*
X613021Y40651D01*
Y40604D01*
X613024Y40506D01*
X613027Y40411D01*
X613035Y40318D01*
X613046Y40225D01*
X613059Y40137D01*
X613076Y40053D01*
X613095Y39971D01*
X613114Y39892D01*
X613136Y39815D01*
X613158Y39742D01*
X613182Y39673D01*
X613207Y39605D01*
X613234Y39540D01*
X613261Y39480D01*
X613289Y39422D01*
X613316Y39365D01*
X613343Y39313D01*
X613371Y39264D01*
X613398Y39220D01*
X613425Y39176D01*
X613450Y39138D01*
X613474Y39103D01*
X613496Y39070D01*
X613518Y39040D01*
X613540Y39013D01*
X613556Y38991D01*
X613573Y38972D01*
X613586Y38955D01*
X613597Y38945D01*
X613605Y38936D01*
X613608Y38931D01*
X613611Y38928D01*
X613668Y38873D01*
X613726Y38822D01*
X613786Y38772D01*
X613848Y38729D01*
X613911Y38685D01*
X613977Y38647D01*
X614042Y38611D01*
X614108Y38579D01*
X614242Y38519D01*
X614372Y38469D01*
X614501Y38431D01*
X614626Y38399D01*
X614744Y38374D01*
X614798Y38363D01*
X614853Y38355D01*
X614902Y38347D01*
X614951Y38341D01*
X614995Y38336D01*
X615033Y38333D01*
X615071Y38328D01*
X615104Y38325D01*
X615132D01*
X615156Y38322D01*
X615200D01*
X615290Y38325D01*
X615380Y38330D01*
X615467Y38338D01*
X615549Y38349D01*
X615710Y38379D01*
X615860Y38418D01*
X616002Y38464D01*
X616068Y38489D01*
X616131Y38516D01*
X616191Y38543D01*
X616251Y38570D01*
X616305Y38598D01*
X616357Y38628D01*
X616406Y38655D01*
X616453Y38682D01*
X616497Y38712D01*
X616537Y38737D01*
X616573Y38764D01*
X616608Y38789D01*
X616638Y38813D01*
X616669Y38835D01*
X616693Y38857D01*
X616715Y38873D01*
X616731Y38890D01*
X616748Y38903D01*
X616759Y38917D01*
X616770Y38925D01*
X616772Y38928D01*
X616775Y38931D01*
X616829Y38991D01*
X616879Y39051D01*
X616925Y39114D01*
X616969Y39179D01*
X617010Y39248D01*
X617048Y39316D01*
X617083Y39384D01*
X617116Y39455D01*
X617173Y39594D01*
X617220Y39736D01*
X617261Y39875D01*
X617291Y40009D01*
X617315Y40135D01*
X617326Y40195D01*
X617335Y40252D01*
X617340Y40304D01*
X617346Y40356D01*
X617351Y40405D01*
X617356Y40449D01*
X617359Y40487D01*
X617362Y40522D01*
Y40552D01*
X617365Y40580D01*
Y40626D01*
X617362Y40727D01*
X617359Y40826D01*
X617351Y40921D01*
X617340Y41014D01*
X617326Y41104D01*
X617310Y41191D01*
X617291Y41273D01*
X617272Y41355D01*
X617250Y41431D01*
X617225Y41508D01*
X617201Y41579D01*
X617176Y41647D01*
X617149Y41713D01*
X617122Y41776D01*
X617094Y41833D01*
X617067Y41890D01*
X617040Y41942D01*
X617012Y41991D01*
X616985Y42038D01*
X616958Y42081D01*
X616933Y42122D01*
X616909Y42158D01*
X616884Y42191D01*
X616862Y42221D01*
X616843Y42245D01*
X616824Y42270D01*
X616808Y42289D01*
X616794Y42305D01*
X616783Y42316D01*
X616775Y42324D01*
X616772Y42330D01*
X616770Y42332D01*
X616712Y42387D01*
X616655Y42442D01*
X616595Y42491D01*
X616532Y42534D01*
X616469Y42578D01*
X616404Y42616D01*
X616338Y42655D01*
X616273Y42687D01*
X616139Y42747D01*
X616008Y42796D01*
X615879Y42838D01*
X615757Y42870D01*
X615639Y42895D01*
X615585Y42906D01*
X615530Y42914D01*
X615481Y42922D01*
X615435Y42928D01*
X615391Y42933D01*
X615350Y42939D01*
X615314Y42941D01*
X615282Y42944D01*
X615254D01*
X615230Y42947D01*
D02*
G37*
%LPD*%
G36*
X615298Y42169D02*
X615396Y42158D01*
X615486Y42139D01*
X615571Y42114D01*
X615650Y42087D01*
X615724Y42054D01*
X615792Y42018D01*
X615852Y41986D01*
X615907Y41950D01*
X615953Y41915D01*
X615994Y41882D01*
X616030Y41855D01*
X616054Y41830D01*
X616073Y41811D01*
X616087Y41800D01*
X616090Y41795D01*
X616150Y41721D01*
X616202Y41636D01*
X616248Y41549D01*
X616286Y41456D01*
X616319Y41361D01*
X616346Y41265D01*
X616368Y41172D01*
X616387Y41079D01*
X616401Y40992D01*
X616409Y40913D01*
X616417Y40839D01*
X616420Y40804D01*
X616423Y40774D01*
X616426Y40746D01*
Y40722D01*
X616428Y40700D01*
Y40681D01*
Y40667D01*
Y40656D01*
Y40651D01*
Y40648D01*
X616426Y40506D01*
X616415Y40375D01*
X616396Y40252D01*
X616374Y40137D01*
X616349Y40031D01*
X616319Y39935D01*
X616286Y39851D01*
X616256Y39772D01*
X616223Y39703D01*
X616191Y39643D01*
X616161Y39594D01*
X616136Y39553D01*
X616114Y39520D01*
X616095Y39499D01*
X616084Y39485D01*
X616081Y39480D01*
X616016Y39411D01*
X615945Y39351D01*
X615871Y39299D01*
X615798Y39256D01*
X615724Y39217D01*
X615650Y39187D01*
X615579Y39160D01*
X615511Y39141D01*
X615445Y39125D01*
X615385Y39114D01*
X615334Y39103D01*
X615287Y39097D01*
X615249Y39095D01*
X615222Y39092D01*
X615197D01*
X615099Y39097D01*
X615003Y39108D01*
X614913Y39127D01*
X614828Y39152D01*
X614749Y39182D01*
X614678Y39215D01*
X614610Y39250D01*
X614547Y39288D01*
X614493Y39324D01*
X614443Y39359D01*
X614403Y39392D01*
X614367Y39422D01*
X614340Y39447D01*
X614321Y39466D01*
X614310Y39477D01*
X614304Y39482D01*
X614242Y39562D01*
X614187Y39646D01*
X614141Y39736D01*
X614100Y39829D01*
X614067Y39925D01*
X614040Y40020D01*
X614015Y40116D01*
X613996Y40209D01*
X613982Y40293D01*
X613971Y40375D01*
X613963Y40449D01*
X613960Y40481D01*
X613958Y40512D01*
X613955Y40539D01*
Y40563D01*
Y40585D01*
X613952Y40604D01*
Y40618D01*
Y40629D01*
Y40634D01*
Y40637D01*
X613955Y40776D01*
X613966Y40907D01*
X613985Y41030D01*
X614007Y41145D01*
X614031Y41249D01*
X614061Y41341D01*
X614091Y41429D01*
X614124Y41505D01*
X614154Y41571D01*
X614184Y41631D01*
X614214Y41680D01*
X614242Y41721D01*
X614261Y41751D01*
X614280Y41773D01*
X614291Y41786D01*
X614293Y41792D01*
X614362Y41860D01*
X614430Y41917D01*
X614504Y41969D01*
X614580Y42013D01*
X614656Y42051D01*
X614730Y42081D01*
X614804Y42106D01*
X614875Y42128D01*
X614940Y42141D01*
X615003Y42155D01*
X615058Y42163D01*
X615104Y42169D01*
X615142Y42171D01*
X615172Y42174D01*
X615197D01*
X615298Y42169D01*
D02*
G37*
%LPC*%
G36*
X622834Y-202748D02*
X622776D01*
X622681Y-202751D01*
X622591Y-202753D01*
X622503Y-202762D01*
X622421Y-202772D01*
X622342Y-202783D01*
X622271Y-202797D01*
X622203Y-202811D01*
X622143Y-202824D01*
X622086Y-202841D01*
X622037Y-202854D01*
X621995Y-202868D01*
X621960Y-202879D01*
X621933Y-202890D01*
X621911Y-202898D01*
X621900Y-202901D01*
X621895Y-202904D01*
X621829Y-202934D01*
X621766Y-202966D01*
X621709Y-203002D01*
X621654Y-203040D01*
X621605Y-203078D01*
X621559Y-203116D01*
X621518Y-203152D01*
X621480Y-203187D01*
X621447Y-203223D01*
X621419Y-203253D01*
X621395Y-203283D01*
X621373Y-203308D01*
X621357Y-203329D01*
X621346Y-203343D01*
X621340Y-203354D01*
X621338Y-203357D01*
X621305Y-203414D01*
X621275Y-203469D01*
X621247Y-203526D01*
X621226Y-203583D01*
X621207Y-203638D01*
X621190Y-203690D01*
X621179Y-203739D01*
X621168Y-203788D01*
X621160Y-203832D01*
X621155Y-203873D01*
X621149Y-203908D01*
X621146Y-203938D01*
X621144Y-203963D01*
Y-203979D01*
Y-203993D01*
Y-203995D01*
X621149Y-204094D01*
X621163Y-204187D01*
X621182Y-204277D01*
X621209Y-204361D01*
X621239Y-204440D01*
X621275Y-204514D01*
X621310Y-204582D01*
X621351Y-204645D01*
X621389Y-204702D01*
X621425Y-204752D01*
X621460Y-204795D01*
X621490Y-204831D01*
X621518Y-204858D01*
X621540Y-204880D01*
X621551Y-204891D01*
X621556Y-204896D01*
X621616Y-204945D01*
X621684Y-204989D01*
X621758Y-205036D01*
X621837Y-205077D01*
X621922Y-205115D01*
X622007Y-205150D01*
X622091Y-205186D01*
X622176Y-205216D01*
X622255Y-205243D01*
X622329Y-205268D01*
X622397Y-205290D01*
X622457Y-205306D01*
X622481Y-205314D01*
X622506Y-205319D01*
X622525Y-205325D01*
X622542Y-205330D01*
X622555Y-205333D01*
X622566Y-205336D01*
X622572Y-205339D01*
X622574D01*
X622675Y-205363D01*
X622768Y-205388D01*
X622850Y-205410D01*
X622927Y-205429D01*
X622992Y-205448D01*
X623052Y-205464D01*
X623104Y-205478D01*
X623148Y-205489D01*
X623186Y-205500D01*
X623219Y-205511D01*
X623243Y-205519D01*
X623265Y-205524D01*
X623279Y-205530D01*
X623289Y-205533D01*
X623295Y-205535D01*
X623298D01*
X623339Y-205552D01*
X623380Y-205568D01*
X623415Y-205584D01*
X623445Y-205601D01*
X623475Y-205617D01*
X623502Y-205633D01*
X623527Y-205647D01*
X623546Y-205663D01*
X623582Y-205688D01*
X623603Y-205710D01*
X623617Y-205724D01*
X623623Y-205729D01*
X623655Y-205773D01*
X623677Y-205819D01*
X623694Y-205863D01*
X623707Y-205907D01*
X623713Y-205942D01*
X623715Y-205972D01*
X623718Y-205983D01*
Y-205991D01*
Y-205997D01*
Y-205999D01*
X623715Y-206046D01*
X623710Y-206089D01*
X623696Y-206130D01*
X623683Y-206171D01*
X623647Y-206245D01*
X623628Y-206278D01*
X623606Y-206311D01*
X623584Y-206338D01*
X623565Y-206362D01*
X623546Y-206382D01*
X623530Y-206401D01*
X623516Y-206414D01*
X623505Y-206425D01*
X623497Y-206431D01*
X623494Y-206433D01*
X623451Y-206466D01*
X623401Y-206493D01*
X623352Y-206518D01*
X623298Y-206540D01*
X623243Y-206556D01*
X623188Y-206573D01*
X623082Y-206594D01*
X623033Y-206600D01*
X622987Y-206605D01*
X622946Y-206611D01*
X622907Y-206613D01*
X622877Y-206616D01*
X622836D01*
X622760Y-206613D01*
X622689Y-206608D01*
X622623Y-206597D01*
X622561Y-206583D01*
X622501Y-206567D01*
X622449Y-206551D01*
X622400Y-206532D01*
X622353Y-206512D01*
X622315Y-206493D01*
X622279Y-206474D01*
X622249Y-206458D01*
X622225Y-206442D01*
X622206Y-206428D01*
X622192Y-206417D01*
X622184Y-206412D01*
X622181Y-206409D01*
X622137Y-206368D01*
X622099Y-206321D01*
X622061Y-206272D01*
X622028Y-206220D01*
X622001Y-206166D01*
X621974Y-206111D01*
X621949Y-206059D01*
X621930Y-206005D01*
X621914Y-205956D01*
X621897Y-205909D01*
X621886Y-205868D01*
X621875Y-205830D01*
X621867Y-205800D01*
X621862Y-205778D01*
X621859Y-205765D01*
Y-205759D01*
X620980Y-205844D01*
X621002Y-205980D01*
X621029Y-206108D01*
X621065Y-206229D01*
X621103Y-206338D01*
X621146Y-206442D01*
X621190Y-206534D01*
X621239Y-206622D01*
X621286Y-206698D01*
X621332Y-206764D01*
X621376Y-206824D01*
X621417Y-206873D01*
X621452Y-206914D01*
X621480Y-206947D01*
X621504Y-206968D01*
X621518Y-206982D01*
X621523Y-206988D01*
X621613Y-207056D01*
X621712Y-207116D01*
X621813Y-207168D01*
X621919Y-207214D01*
X622028Y-207252D01*
X622137Y-207282D01*
X622244Y-207310D01*
X622348Y-207329D01*
X622446Y-207345D01*
X622536Y-207356D01*
X622618Y-207367D01*
X622653Y-207370D01*
X622689Y-207372D01*
X622719D01*
X622746Y-207375D01*
X622771D01*
X622790Y-207378D01*
X622828D01*
X622935Y-207375D01*
X623038Y-207370D01*
X623134Y-207364D01*
X623227Y-207353D01*
X623314Y-207340D01*
X623393Y-207326D01*
X623467Y-207312D01*
X623535Y-207296D01*
X623595Y-207282D01*
X623650Y-207269D01*
X623694Y-207255D01*
X623732Y-207241D01*
X623762Y-207230D01*
X623784Y-207225D01*
X623797Y-207220D01*
X623803Y-207217D01*
X623874Y-207184D01*
X623942Y-207149D01*
X624005Y-207110D01*
X624062Y-207069D01*
X624117Y-207029D01*
X624166Y-206988D01*
X624210Y-206947D01*
X624251Y-206906D01*
X624286Y-206867D01*
X624319Y-206832D01*
X624346Y-206799D01*
X624368Y-206772D01*
X624384Y-206750D01*
X624395Y-206731D01*
X624403Y-206720D01*
X624406Y-206717D01*
X624444Y-206655D01*
X624477Y-206589D01*
X624507Y-206526D01*
X624532Y-206463D01*
X624551Y-206401D01*
X624570Y-206341D01*
X624584Y-206286D01*
X624594Y-206231D01*
X624603Y-206182D01*
X624611Y-206136D01*
X624616Y-206095D01*
X624619Y-206062D01*
X624622Y-206035D01*
Y-205997D01*
X624619Y-205917D01*
X624614Y-205844D01*
X624605Y-205773D01*
X624594Y-205704D01*
X624581Y-205642D01*
X624565Y-205584D01*
X624548Y-205530D01*
X624532Y-205481D01*
X624515Y-205437D01*
X624499Y-205396D01*
X624483Y-205363D01*
X624469Y-205336D01*
X624458Y-205314D01*
X624450Y-205298D01*
X624444Y-205287D01*
X624442Y-205284D01*
X624406Y-205232D01*
X624371Y-205180D01*
X624330Y-205134D01*
X624289Y-205090D01*
X624248Y-205049D01*
X624207Y-205014D01*
X624166Y-204978D01*
X624128Y-204948D01*
X624092Y-204921D01*
X624057Y-204896D01*
X624027Y-204874D01*
X623999Y-204858D01*
X623978Y-204844D01*
X623961Y-204836D01*
X623950Y-204831D01*
X623947Y-204828D01*
X623885Y-204798D01*
X623814Y-204765D01*
X623740Y-204735D01*
X623661Y-204708D01*
X623500Y-204653D01*
X623418Y-204629D01*
X623341Y-204604D01*
X623265Y-204582D01*
X623197Y-204563D01*
X623134Y-204547D01*
X623079Y-204533D01*
X623055Y-204528D01*
X623033Y-204522D01*
X623014Y-204517D01*
X623000Y-204514D01*
X622987Y-204509D01*
X622978D01*
X622973Y-204506D01*
X622970D01*
X622910Y-204492D01*
X622853Y-204476D01*
X622798Y-204462D01*
X622746Y-204449D01*
X622648Y-204421D01*
X622563Y-204394D01*
X622487Y-204367D01*
X622419Y-204342D01*
X622359Y-204320D01*
X622309Y-204298D01*
X622266Y-204277D01*
X622230Y-204260D01*
X622200Y-204244D01*
X622178Y-204230D01*
X622159Y-204219D01*
X622148Y-204211D01*
X622143Y-204208D01*
X622140Y-204206D01*
X622116Y-204184D01*
X622096Y-204162D01*
X622077Y-204140D01*
X622064Y-204116D01*
X622039Y-204072D01*
X622023Y-204028D01*
X622015Y-203990D01*
X622009Y-203963D01*
X622007Y-203952D01*
Y-203944D01*
Y-203938D01*
Y-203935D01*
X622009Y-203903D01*
X622012Y-203873D01*
X622028Y-203818D01*
X622053Y-203772D01*
X622080Y-203731D01*
X622105Y-203698D01*
X622129Y-203676D01*
X622146Y-203662D01*
X622148Y-203657D01*
X622151D01*
X622195Y-203630D01*
X622241Y-203602D01*
X622290Y-203583D01*
X622342Y-203564D01*
X622391Y-203548D01*
X622443Y-203534D01*
X622542Y-203515D01*
X622588Y-203509D01*
X622632Y-203504D01*
X622670Y-203501D01*
X622703Y-203499D01*
X622730Y-203496D01*
X622768D01*
X622836Y-203499D01*
X622902Y-203501D01*
X622962Y-203509D01*
X623019Y-203520D01*
X623071Y-203531D01*
X623118Y-203542D01*
X623159Y-203556D01*
X623197Y-203570D01*
X623230Y-203586D01*
X623259Y-203600D01*
X623284Y-203610D01*
X623303Y-203622D01*
X623320Y-203632D01*
X623330Y-203641D01*
X623336Y-203643D01*
X623339Y-203646D01*
X623374Y-203676D01*
X623404Y-203712D01*
X623434Y-203747D01*
X623459Y-203788D01*
X623502Y-203870D01*
X623535Y-203952D01*
X623549Y-203990D01*
X623560Y-204026D01*
X623571Y-204058D01*
X623579Y-204086D01*
X623584Y-204110D01*
X623587Y-204127D01*
X623590Y-204140D01*
Y-204143D01*
X624494Y-204102D01*
X624485Y-203990D01*
X624469Y-203884D01*
X624444Y-203783D01*
X624414Y-203687D01*
X624379Y-203600D01*
X624343Y-203518D01*
X624302Y-203444D01*
X624261Y-203379D01*
X624221Y-203318D01*
X624182Y-203267D01*
X624144Y-203220D01*
X624114Y-203185D01*
X624084Y-203155D01*
X624065Y-203133D01*
X624051Y-203122D01*
X624046Y-203116D01*
X623961Y-203051D01*
X623868Y-202994D01*
X623770Y-202944D01*
X623669Y-202904D01*
X623563Y-202868D01*
X623456Y-202838D01*
X623352Y-202813D01*
X623251Y-202794D01*
X623156Y-202778D01*
X623066Y-202767D01*
X622984Y-202759D01*
X622948Y-202756D01*
X622916Y-202753D01*
X622886Y-202751D01*
X622858D01*
X622834Y-202748D01*
D02*
G37*
G36*
X609975D02*
X609918D01*
X609823Y-202751D01*
X609732Y-202753D01*
X609645Y-202762D01*
X609563Y-202772D01*
X609484Y-202783D01*
X609413Y-202797D01*
X609345Y-202811D01*
X609285Y-202824D01*
X609227Y-202841D01*
X609178Y-202854D01*
X609137Y-202868D01*
X609102Y-202879D01*
X609074Y-202890D01*
X609053Y-202898D01*
X609042Y-202901D01*
X609036Y-202904D01*
X608971Y-202934D01*
X608908Y-202966D01*
X608851Y-203002D01*
X608796Y-203040D01*
X608747Y-203078D01*
X608700Y-203116D01*
X608660Y-203152D01*
X608621Y-203187D01*
X608589Y-203223D01*
X608561Y-203253D01*
X608537Y-203283D01*
X608515Y-203308D01*
X608498Y-203329D01*
X608488Y-203343D01*
X608482Y-203354D01*
X608479Y-203357D01*
X608447Y-203414D01*
X608417Y-203469D01*
X608389Y-203526D01*
X608367Y-203583D01*
X608348Y-203638D01*
X608332Y-203690D01*
X608321Y-203739D01*
X608310Y-203788D01*
X608302Y-203832D01*
X608296Y-203873D01*
X608291Y-203908D01*
X608288Y-203938D01*
X608286Y-203963D01*
Y-203979D01*
Y-203993D01*
Y-203995D01*
X608291Y-204094D01*
X608305Y-204187D01*
X608324Y-204277D01*
X608351Y-204361D01*
X608381Y-204440D01*
X608417Y-204514D01*
X608452Y-204582D01*
X608493Y-204645D01*
X608531Y-204702D01*
X608567Y-204752D01*
X608602Y-204795D01*
X608632Y-204831D01*
X608660Y-204858D01*
X608681Y-204880D01*
X608692Y-204891D01*
X608698Y-204896D01*
X608758Y-204945D01*
X608826Y-204989D01*
X608900Y-205036D01*
X608979Y-205077D01*
X609063Y-205115D01*
X609148Y-205150D01*
X609233Y-205186D01*
X609317Y-205216D01*
X609397Y-205243D01*
X609470Y-205268D01*
X609539Y-205290D01*
X609599Y-205306D01*
X609623Y-205314D01*
X609648Y-205319D01*
X609667Y-205325D01*
X609683Y-205330D01*
X609697Y-205333D01*
X609708Y-205336D01*
X609713Y-205339D01*
X609716D01*
X609817Y-205363D01*
X609910Y-205388D01*
X609992Y-205410D01*
X610068Y-205429D01*
X610134Y-205448D01*
X610194Y-205464D01*
X610246Y-205478D01*
X610289Y-205489D01*
X610327Y-205500D01*
X610360Y-205511D01*
X610385Y-205519D01*
X610407Y-205524D01*
X610420Y-205530D01*
X610431Y-205533D01*
X610437Y-205535D01*
X610439D01*
X610480Y-205552D01*
X610521Y-205568D01*
X610557Y-205584D01*
X610587Y-205601D01*
X610617Y-205617D01*
X610644Y-205633D01*
X610669Y-205647D01*
X610688Y-205663D01*
X610723Y-205688D01*
X610745Y-205710D01*
X610759Y-205724D01*
X610764Y-205729D01*
X610797Y-205773D01*
X610819Y-205819D01*
X610835Y-205863D01*
X610849Y-205907D01*
X610854Y-205942D01*
X610857Y-205972D01*
X610860Y-205983D01*
Y-205991D01*
Y-205997D01*
Y-205999D01*
X610857Y-206046D01*
X610852Y-206089D01*
X610838Y-206130D01*
X610824Y-206171D01*
X610789Y-206245D01*
X610770Y-206278D01*
X610748Y-206311D01*
X610726Y-206338D01*
X610707Y-206362D01*
X610688Y-206382D01*
X610672Y-206401D01*
X610658Y-206414D01*
X610647Y-206425D01*
X610639Y-206431D01*
X610636Y-206433D01*
X610592Y-206466D01*
X610543Y-206493D01*
X610494Y-206518D01*
X610439Y-206540D01*
X610385Y-206556D01*
X610330Y-206573D01*
X610224Y-206594D01*
X610175Y-206600D01*
X610128Y-206605D01*
X610087Y-206611D01*
X610049Y-206613D01*
X610019Y-206616D01*
X609978D01*
X609902Y-206613D01*
X609831Y-206608D01*
X609765Y-206597D01*
X609702Y-206583D01*
X609642Y-206567D01*
X609590Y-206551D01*
X609541Y-206532D01*
X609495Y-206512D01*
X609457Y-206493D01*
X609421Y-206474D01*
X609391Y-206458D01*
X609367Y-206442D01*
X609347Y-206428D01*
X609334Y-206417D01*
X609326Y-206412D01*
X609323Y-206409D01*
X609279Y-206368D01*
X609241Y-206321D01*
X609203Y-206272D01*
X609170Y-206220D01*
X609143Y-206166D01*
X609115Y-206111D01*
X609091Y-206059D01*
X609072Y-206005D01*
X609055Y-205956D01*
X609039Y-205909D01*
X609028Y-205868D01*
X609017Y-205830D01*
X609009Y-205800D01*
X609003Y-205778D01*
X609001Y-205765D01*
Y-205759D01*
X608122Y-205844D01*
X608144Y-205980D01*
X608171Y-206108D01*
X608206Y-206229D01*
X608245Y-206338D01*
X608288Y-206442D01*
X608332Y-206534D01*
X608381Y-206622D01*
X608427Y-206698D01*
X608474Y-206764D01*
X608518Y-206824D01*
X608559Y-206873D01*
X608594Y-206914D01*
X608621Y-206947D01*
X608646Y-206968D01*
X608660Y-206982D01*
X608665Y-206988D01*
X608755Y-207056D01*
X608853Y-207116D01*
X608954Y-207168D01*
X609061Y-207214D01*
X609170Y-207252D01*
X609279Y-207282D01*
X609386Y-207310D01*
X609489Y-207329D01*
X609588Y-207345D01*
X609678Y-207356D01*
X609760Y-207367D01*
X609795Y-207370D01*
X609831Y-207372D01*
X609861D01*
X609888Y-207375D01*
X609913D01*
X609932Y-207378D01*
X609970D01*
X610076Y-207375D01*
X610180Y-207370D01*
X610276Y-207364D01*
X610368Y-207353D01*
X610456Y-207340D01*
X610535Y-207326D01*
X610609Y-207312D01*
X610677Y-207296D01*
X610737Y-207282D01*
X610792Y-207269D01*
X610835Y-207255D01*
X610874Y-207241D01*
X610904Y-207230D01*
X610925Y-207225D01*
X610939Y-207220D01*
X610945Y-207217D01*
X611016Y-207184D01*
X611084Y-207149D01*
X611146Y-207110D01*
X611204Y-207069D01*
X611258Y-207029D01*
X611308Y-206988D01*
X611351Y-206947D01*
X611392Y-206906D01*
X611428Y-206867D01*
X611460Y-206832D01*
X611488Y-206799D01*
X611510Y-206772D01*
X611526Y-206750D01*
X611537Y-206731D01*
X611545Y-206720D01*
X611548Y-206717D01*
X611586Y-206655D01*
X611619Y-206589D01*
X611649Y-206526D01*
X611673Y-206463D01*
X611692Y-206401D01*
X611712Y-206341D01*
X611725Y-206286D01*
X611736Y-206231D01*
X611744Y-206182D01*
X611753Y-206136D01*
X611758Y-206095D01*
X611761Y-206062D01*
X611763Y-206035D01*
Y-205997D01*
X611761Y-205917D01*
X611755Y-205844D01*
X611747Y-205773D01*
X611736Y-205704D01*
X611723Y-205642D01*
X611706Y-205584D01*
X611690Y-205530D01*
X611673Y-205481D01*
X611657Y-205437D01*
X611641Y-205396D01*
X611624Y-205363D01*
X611611Y-205336D01*
X611600Y-205314D01*
X611591Y-205298D01*
X611586Y-205287D01*
X611583Y-205284D01*
X611548Y-205232D01*
X611512Y-205180D01*
X611471Y-205134D01*
X611430Y-205090D01*
X611389Y-205049D01*
X611348Y-205014D01*
X611308Y-204978D01*
X611269Y-204948D01*
X611234Y-204921D01*
X611198Y-204896D01*
X611168Y-204874D01*
X611141Y-204858D01*
X611119Y-204844D01*
X611103Y-204836D01*
X611092Y-204831D01*
X611089Y-204828D01*
X611026Y-204798D01*
X610955Y-204765D01*
X610882Y-204735D01*
X610803Y-204708D01*
X610641Y-204653D01*
X610560Y-204629D01*
X610483Y-204604D01*
X610407Y-204582D01*
X610338Y-204563D01*
X610276Y-204547D01*
X610221Y-204533D01*
X610196Y-204528D01*
X610175Y-204522D01*
X610155Y-204517D01*
X610142Y-204514D01*
X610128Y-204509D01*
X610120D01*
X610115Y-204506D01*
X610112D01*
X610052Y-204492D01*
X609994Y-204476D01*
X609940Y-204462D01*
X609888Y-204449D01*
X609790Y-204421D01*
X609705Y-204394D01*
X609629Y-204367D01*
X609560Y-204342D01*
X609500Y-204320D01*
X609451Y-204298D01*
X609408Y-204277D01*
X609372Y-204260D01*
X609342Y-204244D01*
X609320Y-204230D01*
X609301Y-204219D01*
X609290Y-204211D01*
X609285Y-204208D01*
X609282Y-204206D01*
X609257Y-204184D01*
X609238Y-204162D01*
X609219Y-204140D01*
X609205Y-204116D01*
X609181Y-204072D01*
X609164Y-204028D01*
X609156Y-203990D01*
X609151Y-203963D01*
X609148Y-203952D01*
Y-203944D01*
Y-203938D01*
Y-203935D01*
X609151Y-203903D01*
X609154Y-203873D01*
X609170Y-203818D01*
X609195Y-203772D01*
X609222Y-203731D01*
X609246Y-203698D01*
X609271Y-203676D01*
X609287Y-203662D01*
X609290Y-203657D01*
X609293D01*
X609337Y-203630D01*
X609383Y-203602D01*
X609432Y-203583D01*
X609484Y-203564D01*
X609533Y-203548D01*
X609585Y-203534D01*
X609683Y-203515D01*
X609730Y-203509D01*
X609773Y-203504D01*
X609811Y-203501D01*
X609844Y-203499D01*
X609872Y-203496D01*
X609910D01*
X609978Y-203499D01*
X610044Y-203501D01*
X610104Y-203509D01*
X610161Y-203520D01*
X610213Y-203531D01*
X610259Y-203542D01*
X610300Y-203556D01*
X610338Y-203570D01*
X610371Y-203586D01*
X610401Y-203600D01*
X610426Y-203610D01*
X610445Y-203622D01*
X610461Y-203632D01*
X610472Y-203641D01*
X610478Y-203643D01*
X610480Y-203646D01*
X610516Y-203676D01*
X610546Y-203712D01*
X610576Y-203747D01*
X610601Y-203788D01*
X610644Y-203870D01*
X610677Y-203952D01*
X610691Y-203990D01*
X610702Y-204026D01*
X610712Y-204058D01*
X610721Y-204086D01*
X610726Y-204110D01*
X610729Y-204127D01*
X610732Y-204140D01*
Y-204143D01*
X611635Y-204102D01*
X611627Y-203990D01*
X611611Y-203884D01*
X611586Y-203783D01*
X611556Y-203687D01*
X611520Y-203600D01*
X611485Y-203518D01*
X611444Y-203444D01*
X611403Y-203379D01*
X611362Y-203318D01*
X611324Y-203267D01*
X611286Y-203220D01*
X611256Y-203185D01*
X611226Y-203155D01*
X611207Y-203133D01*
X611193Y-203122D01*
X611188Y-203116D01*
X611103Y-203051D01*
X611010Y-202994D01*
X610912Y-202944D01*
X610811Y-202904D01*
X610704Y-202868D01*
X610598Y-202838D01*
X610494Y-202813D01*
X610393Y-202794D01*
X610297Y-202778D01*
X610207Y-202767D01*
X610125Y-202759D01*
X610090Y-202756D01*
X610057Y-202753D01*
X610027Y-202751D01*
X610000D01*
X609975Y-202748D01*
D02*
G37*
G36*
X620257Y-202824D02*
X619416D01*
Y-205814D01*
X617584Y-202824D01*
X616705D01*
Y-207299D01*
X617543D01*
Y-204380D01*
X619347Y-207299D01*
X620257D01*
Y-202824D01*
D02*
G37*
G36*
X628700D02*
X625381D01*
Y-207299D01*
X628785D01*
Y-206545D01*
X626284D01*
Y-205328D01*
X628534D01*
Y-204574D01*
X626284D01*
Y-203580D01*
X628700D01*
Y-202824D01*
D02*
G37*
G36*
X615842D02*
X612522D01*
Y-207299D01*
X615927D01*
Y-206545D01*
X613426D01*
Y-205328D01*
X615676D01*
Y-204574D01*
X613426D01*
Y-203580D01*
X615842D01*
Y-202824D01*
D02*
G37*
%LPD*%
D32*
X118532Y-103030D02*
G03*
X118532Y-103030I-492J0D01*
G01*
X118532Y-69474D02*
G03*
X118532Y-69474I-492J0D01*
G01*
Y-36075D02*
G03*
X118532Y-36075I-492J0D01*
G01*
X51437Y-66608D02*
G03*
X51437Y-66608I-492J0D01*
G01*
X46192Y-139816D02*
G03*
X46192Y-139816I-492J0D01*
G01*
D33*
X499724Y26445D02*
Y46445D01*
X539724Y26445D02*
Y46445D01*
X579724Y26445D02*
Y46445D01*
X459724Y26445D02*
Y46445D01*
X419724Y26445D02*
Y46445D01*
X335787Y26445D02*
Y46445D01*
X295787Y26445D02*
Y46445D01*
X255787Y26445D02*
Y46445D01*
X215787Y26445D02*
Y46445D01*
X175787Y26445D02*
Y46445D01*
X175887Y-209755D02*
Y-189755D01*
X215887Y-209755D02*
Y-189755D01*
X255887Y-209755D02*
Y-189755D01*
X295887Y-209755D02*
Y-189755D01*
X335887Y-209755D02*
Y-189755D01*
X419824Y-209755D02*
Y-189755D01*
X459824Y-209755D02*
Y-189755D01*
X579824Y-209755D02*
Y-189755D01*
X539824Y-209755D02*
Y-189755D01*
X499824Y-209755D02*
Y-189755D01*
X34001Y19199D02*
X33501Y18699D01*
Y17700D01*
X34001Y17200D01*
X36000D01*
X36500Y17700D01*
Y18699D01*
X36000Y19199D01*
X35001D01*
Y18200D01*
X26753Y-138686D02*
Y-137686D01*
Y-138186D01*
X29752D01*
Y-138686D01*
Y-137686D01*
X26753Y-136187D02*
X29752D01*
Y-134687D01*
X29253Y-134187D01*
X27253D01*
X26753Y-134687D01*
Y-136187D01*
X27753Y-133188D02*
Y-132688D01*
X28253D01*
Y-133188D01*
X27753D01*
X29253D02*
Y-132688D01*
X29752D01*
Y-133188D01*
X29253D01*
X29752Y-128689D02*
Y-130689D01*
X27753Y-128689D01*
X27253D01*
X26753Y-129189D01*
Y-130189D01*
X27253Y-130689D01*
Y-127690D02*
X26753Y-127190D01*
Y-126190D01*
X27253Y-125690D01*
X29253D01*
X29752Y-126190D01*
Y-127190D01*
X29253Y-127690D01*
X27253D01*
Y-124691D02*
X26753Y-124191D01*
Y-123191D01*
X27253Y-122691D01*
X29253D01*
X29752Y-123191D01*
Y-124191D01*
X29253Y-124691D01*
X27253D01*
Y-121692D02*
X26753Y-121192D01*
Y-120192D01*
X27253Y-119692D01*
X29253D01*
X29752Y-120192D01*
Y-121192D01*
X29253Y-121692D01*
X27253D01*
X28253Y-118693D02*
Y-116693D01*
X29752Y-113694D02*
Y-115693D01*
X27753Y-113694D01*
X27253D01*
X26753Y-114194D01*
Y-115194D01*
X27253Y-115693D01*
Y-112695D02*
X26753Y-112195D01*
Y-111195D01*
X27253Y-110695D01*
X29253D01*
X29752Y-111195D01*
Y-112195D01*
X29253Y-112695D01*
X27253D01*
X13721Y-129720D02*
Y-128720D01*
Y-129220D01*
X16720D01*
Y-129720D01*
Y-128720D01*
X13721Y-127220D02*
X16720D01*
Y-125721D01*
X16220Y-125221D01*
X14221D01*
X13721Y-125721D01*
Y-127220D01*
X14721Y-124222D02*
Y-123722D01*
X15221D01*
Y-124222D01*
X14721D01*
X16220D02*
Y-123722D01*
X16720D01*
Y-124222D01*
X16220D01*
X16720Y-119723D02*
Y-121722D01*
X14721Y-119723D01*
X14221D01*
X13721Y-120223D01*
Y-121222D01*
X14221Y-121722D01*
Y-118723D02*
X13721Y-118223D01*
Y-117224D01*
X14221Y-116724D01*
X16220D01*
X16720Y-117224D01*
Y-118223D01*
X16220Y-118723D01*
X14221D01*
Y-115724D02*
X13721Y-115224D01*
Y-114225D01*
X14221Y-113725D01*
X16220D01*
X16720Y-114225D01*
Y-115224D01*
X16220Y-115724D01*
X14221D01*
Y-112725D02*
X13721Y-112225D01*
Y-111226D01*
X14221Y-110726D01*
X16220D01*
X16720Y-111226D01*
Y-112225D01*
X16220Y-112725D01*
X14221D01*
D34*
X379488Y-46315D02*
G03*
X379488Y-46315I-1181J0D01*
G01*
X399488D02*
G03*
X399488Y-46315I-1181J0D01*
G01*
X419488D02*
G03*
X419488Y-46315I-1181J0D01*
G01*
X439488D02*
G03*
X439488Y-46315I-1181J0D01*
G01*
X459488D02*
G03*
X459488Y-46315I-1181J0D01*
G01*
X479488D02*
G03*
X479488Y-46315I-1181J0D01*
G01*
X499488D02*
G03*
X499488Y-46315I-1181J0D01*
G01*
X519488D02*
G03*
X519488Y-46315I-1181J0D01*
G01*
X539488D02*
G03*
X539488Y-46315I-1181J0D01*
G01*
X559488D02*
G03*
X559488Y-46315I-1181J0D01*
G01*
X175551D02*
G03*
X175551Y-46315I-1181J0D01*
G01*
X195551D02*
G03*
X195551Y-46315I-1181J0D01*
G01*
X215551D02*
G03*
X215551Y-46315I-1181J0D01*
G01*
X235551D02*
G03*
X235551Y-46315I-1181J0D01*
G01*
X255551D02*
G03*
X255551Y-46315I-1181J0D01*
G01*
X275551D02*
G03*
X275551Y-46315I-1181J0D01*
G01*
X295551D02*
G03*
X295551Y-46315I-1181J0D01*
G01*
X315551D02*
G03*
X315551Y-46315I-1181J0D01*
G01*
X335551D02*
G03*
X335551Y-46315I-1181J0D01*
G01*
X355551D02*
G03*
X355551Y-46315I-1181J0D01*
G01*
X392323Y-116441D02*
G03*
X392323Y-116441I-1181J0D01*
G01*
X412323D02*
G03*
X412323Y-116441I-1181J0D01*
G01*
X432323D02*
G03*
X432323Y-116441I-1181J0D01*
G01*
X452323D02*
G03*
X452323Y-116441I-1181J0D01*
G01*
X472323D02*
G03*
X472323Y-116441I-1181J0D01*
G01*
X492323D02*
G03*
X492323Y-116441I-1181J0D01*
G01*
X512323D02*
G03*
X512323Y-116441I-1181J0D01*
G01*
X532323D02*
G03*
X532323Y-116441I-1181J0D01*
G01*
X552323D02*
G03*
X552323Y-116441I-1181J0D01*
G01*
X572323D02*
G03*
X572323Y-116441I-1181J0D01*
G01*
X188386D02*
G03*
X188386Y-116441I-1181J0D01*
G01*
X208386D02*
G03*
X208386Y-116441I-1181J0D01*
G01*
X228386D02*
G03*
X228386Y-116441I-1181J0D01*
G01*
X248386D02*
G03*
X248386Y-116441I-1181J0D01*
G01*
X268386D02*
G03*
X268386Y-116441I-1181J0D01*
G01*
X288386D02*
G03*
X288386Y-116441I-1181J0D01*
G01*
X308386D02*
G03*
X308386Y-116441I-1181J0D01*
G01*
X328386D02*
G03*
X328386Y-116441I-1181J0D01*
G01*
X348386D02*
G03*
X348386Y-116441I-1181J0D01*
G01*
X368386D02*
G03*
X368386Y-116441I-1181J0D01*
G01*
X599488Y-46315D02*
G03*
X599488Y-46315I-1181J0D01*
G01*
X619488D02*
G03*
X619488Y-46315I-1181J0D01*
G01*
X612323Y-116441D02*
G03*
X612323Y-116441I-1181J0D01*
G01*
X632323D02*
G03*
X632323Y-116441I-1181J0D01*
G01*
X61575Y-73694D02*
G03*
X61575Y-73694I-1181J0D01*
G01*
X377787Y26445D02*
Y46445D01*
X377887Y-209755D02*
Y-189755D01*
D35*
X373681Y-44878D02*
G03*
X373681Y-39878I0J2500D01*
G01*
X393681Y-44878D02*
G03*
X393681Y-39878I0J2500D01*
G01*
X413681Y-44878D02*
G03*
X413681Y-39878I0J2500D01*
G01*
X433681Y-44878D02*
G03*
X433681Y-39878I0J2500D01*
G01*
X453681Y-44878D02*
G03*
X453681Y-39878I0J2500D01*
G01*
X473681Y-44878D02*
G03*
X473681Y-39878I0J2500D01*
G01*
X493681Y-44878D02*
G03*
X493681Y-39878I0J2500D01*
G01*
X513681Y-44878D02*
G03*
X513681Y-39878I0J2500D01*
G01*
X533681Y-44878D02*
G03*
X533681Y-39878I0J2500D01*
G01*
X553681Y-44878D02*
G03*
X553681Y-39878I0J2500D01*
G01*
X169744Y-44878D02*
G03*
X169744Y-39878I0J2500D01*
G01*
X189744Y-44878D02*
G03*
X189744Y-39878I0J2500D01*
G01*
X209744Y-44878D02*
G03*
X209744Y-39878I0J2500D01*
G01*
X229744Y-44878D02*
G03*
X229744Y-39878I0J2500D01*
G01*
X249744Y-44878D02*
G03*
X249744Y-39878I0J2500D01*
G01*
X269744Y-44878D02*
G03*
X269744Y-39878I0J2500D01*
G01*
X289744Y-44878D02*
G03*
X289744Y-39878I0J2500D01*
G01*
X309744Y-44878D02*
G03*
X309744Y-39878I0J2500D01*
G01*
X329744Y-44878D02*
G03*
X329744Y-39878I0J2500D01*
G01*
X349744Y-44878D02*
G03*
X349744Y-39878I0J2500D01*
G01*
X395768Y-117878D02*
G03*
X395768Y-122878I0J-2500D01*
G01*
X415768Y-117878D02*
G03*
X415768Y-122878I0J-2500D01*
G01*
X435768Y-117878D02*
G03*
X435768Y-122878I0J-2500D01*
G01*
X455768Y-117878D02*
G03*
X455768Y-122878I0J-2500D01*
G01*
X475768Y-117878D02*
G03*
X475768Y-122878I0J-2500D01*
G01*
X495768Y-117878D02*
G03*
X495768Y-122878I0J-2500D01*
G01*
X515768Y-117878D02*
G03*
X515768Y-122878I0J-2500D01*
G01*
X535768Y-117878D02*
G03*
X535768Y-122878I0J-2500D01*
G01*
X555768Y-117878D02*
G03*
X555768Y-122878I0J-2500D01*
G01*
X575768Y-117878D02*
G03*
X575768Y-122878I0J-2500D01*
G01*
X191831Y-117878D02*
G03*
X191831Y-122878I0J-2500D01*
G01*
X211831Y-117878D02*
G03*
X211831Y-122878I0J-2500D01*
G01*
X231831Y-117878D02*
G03*
X231831Y-122878I0J-2500D01*
G01*
X251831Y-117878D02*
G03*
X251831Y-122878I0J-2500D01*
G01*
X271831Y-117878D02*
G03*
X271831Y-122878I0J-2500D01*
G01*
X291831Y-117878D02*
G03*
X291831Y-122878I0J-2500D01*
G01*
X311831Y-117878D02*
G03*
X311831Y-122878I0J-2500D01*
G01*
X331831Y-117878D02*
G03*
X331831Y-122878I0J-2500D01*
G01*
X351831Y-117878D02*
G03*
X351831Y-122878I0J-2500D01*
G01*
X371831Y-117878D02*
G03*
X371831Y-122878I0J-2500D01*
G01*
X593681Y-44878D02*
G03*
X593681Y-39878I0J2500D01*
G01*
X613681Y-44878D02*
G03*
X613681Y-39878I0J2500D01*
G01*
X615768Y-117878D02*
G03*
X615768Y-122878I0J-2500D01*
G01*
X635768Y-117878D02*
G03*
X635768Y-122878I0J-2500D01*
G01*
X373976Y-50252D02*
X395571D01*
X373878Y-34504D02*
X395571D01*
X373681Y-50252D02*
Y-44878D01*
Y-39878D02*
Y-34504D01*
X395571Y-50252D02*
Y-34504D01*
X415571Y-50252D02*
Y-34504D01*
X393681Y-39878D02*
Y-34504D01*
Y-50252D02*
Y-44878D01*
X393878Y-34504D02*
X415571D01*
X393976Y-50252D02*
X415571D01*
X413976D02*
X435571D01*
X413878Y-34504D02*
X435571D01*
X413681Y-50252D02*
Y-44878D01*
Y-39878D02*
Y-34504D01*
X435571Y-50252D02*
Y-34504D01*
X455571Y-50252D02*
Y-34504D01*
X433681Y-39878D02*
Y-34504D01*
Y-50252D02*
Y-44878D01*
X433878Y-34504D02*
X455571D01*
X433976Y-50252D02*
X455571D01*
X453976D02*
X475571D01*
X453878Y-34504D02*
X475571D01*
X453681Y-50252D02*
Y-44878D01*
Y-39878D02*
Y-34504D01*
X475571Y-50252D02*
Y-34504D01*
X495571Y-50252D02*
Y-34504D01*
X473681Y-39878D02*
Y-34504D01*
Y-50252D02*
Y-44878D01*
X473878Y-34504D02*
X495571D01*
X473976Y-50252D02*
X495571D01*
X493976D02*
X515571D01*
X493878Y-34504D02*
X515571D01*
X493681Y-50252D02*
Y-44878D01*
Y-39878D02*
Y-34504D01*
X515571Y-50252D02*
Y-34504D01*
X535571Y-50252D02*
Y-34504D01*
X513681Y-39878D02*
Y-34504D01*
Y-50252D02*
Y-44878D01*
X513878Y-34504D02*
X535571D01*
X513976Y-50252D02*
X535571D01*
X533976D02*
X555571D01*
X533878Y-34504D02*
X555571D01*
X533681Y-50252D02*
Y-44878D01*
Y-39878D02*
Y-34504D01*
X555571Y-50252D02*
Y-34504D01*
X575571Y-50252D02*
Y-34504D01*
X553681Y-39878D02*
Y-34504D01*
Y-50252D02*
Y-44878D01*
X553878Y-34504D02*
X575571D01*
X553976Y-50252D02*
X575571D01*
X170039D02*
X191634D01*
X169941Y-34504D02*
X191634D01*
X169744Y-50252D02*
Y-44878D01*
Y-39878D02*
Y-34504D01*
X191634Y-50252D02*
Y-34504D01*
X211634Y-50252D02*
Y-34504D01*
X189744Y-39878D02*
Y-34504D01*
Y-50252D02*
Y-44878D01*
X189941Y-34504D02*
X211634D01*
X190039Y-50252D02*
X211634D01*
X210039D02*
X231634D01*
X209941Y-34504D02*
X231634D01*
X209744Y-50252D02*
Y-44878D01*
Y-39878D02*
Y-34504D01*
X231634Y-50252D02*
Y-34504D01*
X251634Y-50252D02*
Y-34504D01*
X229744Y-39878D02*
Y-34504D01*
Y-50252D02*
Y-44878D01*
X229941Y-34504D02*
X251634D01*
X230039Y-50252D02*
X251634D01*
X250039D02*
X271634D01*
X249941Y-34504D02*
X271634D01*
X249744Y-50252D02*
Y-44878D01*
Y-39878D02*
Y-34504D01*
X271634Y-50252D02*
Y-34504D01*
X291634Y-50252D02*
Y-34504D01*
X269744Y-39878D02*
Y-34504D01*
Y-50252D02*
Y-44878D01*
X269941Y-34504D02*
X291634D01*
X270039Y-50252D02*
X291634D01*
X290039D02*
X311634D01*
X289941Y-34504D02*
X311634D01*
X289744Y-50252D02*
Y-44878D01*
Y-39878D02*
Y-34504D01*
X311634Y-50252D02*
Y-34504D01*
X331634Y-50252D02*
Y-34504D01*
X309744Y-39878D02*
Y-34504D01*
Y-50252D02*
Y-44878D01*
X309941Y-34504D02*
X331634D01*
X310039Y-50252D02*
X331634D01*
X330039D02*
X351634D01*
X329941Y-34504D02*
X351634D01*
X329744Y-50252D02*
Y-44878D01*
Y-39878D02*
Y-34504D01*
X351634Y-50252D02*
Y-34504D01*
X371634Y-50252D02*
Y-34504D01*
X349744Y-39878D02*
Y-34504D01*
Y-50252D02*
Y-44878D01*
X349941Y-34504D02*
X371634D01*
X350039Y-50252D02*
X371634D01*
X373878Y-112504D02*
X395472D01*
X373878Y-128252D02*
X395571D01*
X395768Y-117878D02*
Y-112504D01*
Y-128252D02*
Y-122878D01*
X373878Y-128252D02*
Y-112504D01*
X393878Y-128252D02*
Y-112504D01*
X415768Y-128252D02*
Y-122878D01*
Y-117878D02*
Y-112504D01*
X393878Y-128252D02*
X415571D01*
X393878Y-112504D02*
X415472D01*
X413878D02*
X435472D01*
X413878Y-128252D02*
X435571D01*
X435768Y-117878D02*
Y-112504D01*
Y-128252D02*
Y-122878D01*
X413878Y-128252D02*
Y-112504D01*
X433878Y-128252D02*
Y-112504D01*
X455768Y-128252D02*
Y-122878D01*
Y-117878D02*
Y-112504D01*
X433878Y-128252D02*
X455571D01*
X433878Y-112504D02*
X455472D01*
X453878D02*
X475472D01*
X453878Y-128252D02*
X475571D01*
X475768Y-117878D02*
Y-112504D01*
Y-128252D02*
Y-122878D01*
X453878Y-128252D02*
Y-112504D01*
X473878Y-128252D02*
Y-112504D01*
X495768Y-128252D02*
Y-122878D01*
Y-117878D02*
Y-112504D01*
X473878Y-128252D02*
X495571D01*
X473878Y-112504D02*
X495472D01*
X493878D02*
X515472D01*
X493878Y-128252D02*
X515571D01*
X515768Y-117878D02*
Y-112504D01*
Y-128252D02*
Y-122878D01*
X493878Y-128252D02*
Y-112504D01*
X513878Y-128252D02*
Y-112504D01*
X535768Y-128252D02*
Y-122878D01*
Y-117878D02*
Y-112504D01*
X513878Y-128252D02*
X535571D01*
X513878Y-112504D02*
X535472D01*
X533878D02*
X555472D01*
X533878Y-128252D02*
X555571D01*
X555768Y-117878D02*
Y-112504D01*
Y-128252D02*
Y-122878D01*
X533878Y-128252D02*
Y-112504D01*
X553878Y-128252D02*
Y-112504D01*
X575768Y-128252D02*
Y-122878D01*
Y-117878D02*
Y-112504D01*
X553878Y-128252D02*
X575571D01*
X553878Y-112504D02*
X575472D01*
X169941D02*
X191535D01*
X169941Y-128252D02*
X191634D01*
X191831Y-117878D02*
Y-112504D01*
Y-128252D02*
Y-122878D01*
X169941Y-128252D02*
Y-112504D01*
X189941Y-128252D02*
Y-112504D01*
X211831Y-128252D02*
Y-122878D01*
Y-117878D02*
Y-112504D01*
X189941Y-128252D02*
X211634D01*
X189941Y-112504D02*
X211535D01*
X209941D02*
X231535D01*
X209941Y-128252D02*
X231634D01*
X231831Y-117878D02*
Y-112504D01*
Y-128252D02*
Y-122878D01*
X209941Y-128252D02*
Y-112504D01*
X229941Y-128252D02*
Y-112504D01*
X251831Y-128252D02*
Y-122878D01*
Y-117878D02*
Y-112504D01*
X229941Y-128252D02*
X251634D01*
X229941Y-112504D02*
X251535D01*
X249941D02*
X271535D01*
X249941Y-128252D02*
X271634D01*
X271831Y-117878D02*
Y-112504D01*
Y-128252D02*
Y-122878D01*
X249941Y-128252D02*
Y-112504D01*
X269941Y-128252D02*
Y-112504D01*
X291831Y-128252D02*
Y-122878D01*
Y-117878D02*
Y-112504D01*
X269941Y-128252D02*
X291634D01*
X269941Y-112504D02*
X291535D01*
X289941D02*
X311535D01*
X289941Y-128252D02*
X311634D01*
X311831Y-117878D02*
Y-112504D01*
Y-128252D02*
Y-122878D01*
X289941Y-128252D02*
Y-112504D01*
X309941Y-128252D02*
Y-112504D01*
X331831Y-128252D02*
Y-122878D01*
Y-117878D02*
Y-112504D01*
X309941Y-128252D02*
X331634D01*
X309941Y-112504D02*
X331535D01*
X329941D02*
X351535D01*
X329941Y-128252D02*
X351634D01*
X351831Y-117878D02*
Y-112504D01*
Y-128252D02*
Y-122878D01*
X329941Y-128252D02*
Y-112504D01*
X349941Y-128252D02*
Y-112504D01*
X371831Y-128252D02*
Y-122878D01*
Y-117878D02*
Y-112504D01*
X349941Y-128252D02*
X371634D01*
X349941Y-112504D02*
X371535D01*
X593976Y-50252D02*
X615571D01*
X593878Y-34504D02*
X615571D01*
X593681Y-50252D02*
Y-44878D01*
Y-39878D02*
Y-34504D01*
X615571Y-50252D02*
Y-34504D01*
X635571Y-50252D02*
Y-34504D01*
X613681Y-39878D02*
Y-34504D01*
Y-50252D02*
Y-44878D01*
X613878Y-34504D02*
X635571D01*
X613976Y-50252D02*
X635571D01*
X593878Y-112504D02*
X615472D01*
X593878Y-128252D02*
X615571D01*
X615768Y-117878D02*
Y-112504D01*
Y-128252D02*
Y-122878D01*
X593878Y-128252D02*
Y-112504D01*
X613878Y-128252D02*
Y-112504D01*
X635768Y-128252D02*
Y-122878D01*
Y-117878D02*
Y-112504D01*
X613878Y-128252D02*
X635571D01*
X613878Y-112504D02*
X635472D01*
X124437Y-124575D02*
Y-104890D01*
X130736Y-124575D02*
Y-104890D01*
X124437D02*
X130736D01*
X124437Y-124575D02*
X130736D01*
X124438Y-91020D02*
Y-71335D01*
X130737Y-91020D02*
Y-71335D01*
X124438D02*
X130737D01*
X124438Y-91020D02*
X130737D01*
X124438Y-57621D02*
Y-37935D01*
X130737Y-57621D02*
Y-37935D01*
X124438D02*
X130737D01*
X124438Y-57621D02*
X130737D01*
X56457Y-92198D02*
X78898D01*
X56457Y-69757D02*
X78898D01*
Y-92198D02*
Y-69757D01*
X56457Y-92198D02*
Y-69757D01*
X770193Y-177891D02*
Y12109D01*
X61487Y-193037D02*
Y-187919D01*
X49834Y-140998D02*
X51015D01*
X49834Y-153202D02*
X51015D01*
X49834D02*
Y-140998D01*
X51015Y-153202D02*
Y-140998D01*
X101387Y-193137D02*
Y-188019D01*
X457224Y-177564D02*
X455912D01*
X456568D01*
Y-180844D01*
X455912Y-181500D01*
X455256D01*
X454600Y-180844D01*
X458536Y-177564D02*
Y-181500D01*
X461160D01*
X465095Y-178220D02*
X464439Y-177564D01*
X463127D01*
X462471Y-178220D01*
Y-180844D01*
X463127Y-181500D01*
X464439D01*
X465095Y-180844D01*
X469031Y-177564D02*
X467719D01*
X468375D01*
Y-180844D01*
X467719Y-181500D01*
X467063D01*
X466407Y-180844D01*
X470343Y-177564D02*
Y-181500D01*
X472967D01*
X476902Y-178220D02*
X476247Y-177564D01*
X474935D01*
X474279Y-178220D01*
Y-180844D01*
X474935Y-181500D01*
X476247D01*
X476902Y-180844D01*
X480838Y-177564D02*
X479526D01*
X480182D01*
Y-180844D01*
X479526Y-181500D01*
X478870D01*
X478214Y-180844D01*
X482150Y-177564D02*
Y-181500D01*
X484774D01*
X488710Y-178220D02*
X488054Y-177564D01*
X486742D01*
X486086Y-178220D01*
Y-180844D01*
X486742Y-181500D01*
X488054D01*
X488710Y-180844D01*
X492646Y-177564D02*
X491334D01*
X491990D01*
Y-180844D01*
X491334Y-181500D01*
X490678D01*
X490022Y-180844D01*
X493957Y-177564D02*
Y-181500D01*
X496581D01*
X500517Y-178220D02*
X499861Y-177564D01*
X498549D01*
X497893Y-178220D01*
Y-180844D01*
X498549Y-181500D01*
X499861D01*
X500517Y-180844D01*
D36*
X597756Y-21677D02*
Y25567D01*
X641693D01*
Y-21677D02*
Y25567D01*
X597756Y-21677D02*
X641693D01*
X597756Y-141756D02*
X641693D01*
X597756Y-189000D02*
Y-141756D01*
Y-189000D02*
X641693D01*
Y-141756D01*
X377756Y-21677D02*
Y25567D01*
X581693D01*
Y-21677D02*
Y25567D01*
X377756Y-21677D02*
X581260D01*
X173819D02*
X377323D01*
X377756D02*
Y25567D01*
X173819D02*
X377756D01*
X173819Y-21677D02*
Y25567D01*
X581693Y-189000D02*
Y-141756D01*
X377756Y-189000D02*
X581693D01*
X377756D02*
Y-141756D01*
X378189D02*
X581693D01*
X174252D02*
X377756D01*
X173819Y-189000D02*
Y-141756D01*
Y-189000D02*
X377756D01*
Y-141756D01*
X57487Y-194478D02*
X58487D01*
X57487Y-186478D02*
X58487D01*
X97387Y-194578D02*
X98387D01*
X97387Y-186578D02*
X98387D01*
X19261Y35380D02*
X55580D01*
Y22191D02*
Y35380D01*
X19261Y22487D02*
Y35380D01*
Y22487D02*
X19556Y22191D01*
X55580D01*
X515557Y43110D02*
X514724Y43943D01*
X513058D01*
X512224Y43110D01*
Y39778D01*
X513058Y38945D01*
X514724D01*
X515557Y39778D01*
X517223Y43943D02*
Y38945D01*
Y41444D01*
X520555D01*
Y43943D01*
Y38945D01*
X525553D02*
X522221D01*
X525553Y42277D01*
Y43110D01*
X524720Y43943D01*
X523054D01*
X522221Y43110D01*
X509724Y33943D02*
Y28945D01*
Y31444D01*
X513057D01*
Y33943D01*
Y28945D01*
X524719Y33943D02*
Y28945D01*
X528052D01*
X549724Y33943D02*
Y28945D01*
Y31444D01*
X553057D01*
Y33943D01*
Y28945D01*
X564719Y33943D02*
Y28945D01*
X568052D01*
X555557Y43110D02*
X554724Y43943D01*
X553057D01*
X552224Y43110D01*
Y39778D01*
X553057Y38945D01*
X554724D01*
X555557Y39778D01*
X557223Y43943D02*
Y38945D01*
Y41444D01*
X560555D01*
Y43943D01*
Y38945D01*
X562221D02*
X563887D01*
X563054D01*
Y43943D01*
X562221Y43110D01*
X469724Y33943D02*
Y28945D01*
Y31444D01*
X473057D01*
Y33943D01*
Y28945D01*
X484720Y33943D02*
Y28945D01*
X488052D01*
X475557Y43110D02*
X474724Y43943D01*
X473058D01*
X472224Y43110D01*
Y39778D01*
X473058Y38945D01*
X474724D01*
X475557Y39778D01*
X477223Y43943D02*
Y38945D01*
Y41444D01*
X480555D01*
Y43943D01*
Y38945D01*
X482221Y43110D02*
X483054Y43943D01*
X484720D01*
X485553Y43110D01*
Y42277D01*
X484720Y41444D01*
X483887D01*
X484720D01*
X485553Y40611D01*
Y39778D01*
X484720Y38945D01*
X483054D01*
X482221Y39778D01*
X429724Y33943D02*
Y28945D01*
Y31444D01*
X433057D01*
Y33943D01*
Y28945D01*
X444720Y33943D02*
Y28945D01*
X448052D01*
X435557Y43110D02*
X434724Y43943D01*
X433057D01*
X432224Y43110D01*
Y39778D01*
X433057Y38945D01*
X434724D01*
X435557Y39778D01*
X437223Y43943D02*
Y38945D01*
Y41444D01*
X440555D01*
Y43943D01*
Y38945D01*
X444720D02*
Y43943D01*
X442221Y41444D01*
X445553D01*
X389724Y33943D02*
Y28945D01*
Y31444D01*
X393057D01*
Y33943D01*
Y28945D01*
X404719Y33943D02*
Y28945D01*
X408052D01*
X395557Y43110D02*
X394724Y43943D01*
X393057D01*
X392224Y43110D01*
Y39778D01*
X393057Y38945D01*
X394724D01*
X395557Y39778D01*
X397223Y43943D02*
Y38945D01*
Y41444D01*
X400555D01*
Y43943D01*
Y38945D01*
X405553Y43943D02*
X402221D01*
Y41444D01*
X403887Y42277D01*
X404720D01*
X405553Y41444D01*
Y39778D01*
X404720Y38945D01*
X403054D01*
X402221Y39778D01*
X345787Y33943D02*
Y28945D01*
Y31444D01*
X349120D01*
Y33943D01*
Y28945D01*
X360783Y33943D02*
Y28945D01*
X364115D01*
X351620Y43110D02*
X350787Y43943D01*
X349120D01*
X348287Y43110D01*
Y39778D01*
X349120Y38945D01*
X350787D01*
X351620Y39778D01*
X353286Y43943D02*
Y38945D01*
Y41444D01*
X356618D01*
Y43943D01*
Y38945D01*
X361616Y43943D02*
X359950Y43110D01*
X358284Y41444D01*
Y39778D01*
X359117Y38945D01*
X360783D01*
X361616Y39778D01*
Y40611D01*
X360783Y41444D01*
X358284D01*
X305787Y33943D02*
Y28945D01*
Y31444D01*
X309120D01*
Y33943D01*
Y28945D01*
X320782Y33943D02*
Y28945D01*
X324115D01*
X311620Y43110D02*
X310787Y43943D01*
X309120D01*
X308287Y43110D01*
Y39778D01*
X309120Y38945D01*
X310787D01*
X311620Y39778D01*
X313286Y43943D02*
Y38945D01*
Y41444D01*
X316618D01*
Y43943D01*
Y38945D01*
X318284Y43943D02*
X321616D01*
Y43110D01*
X318284Y39778D01*
Y38945D01*
X265787Y33943D02*
Y28945D01*
Y31444D01*
X269120D01*
Y33943D01*
Y28945D01*
X280783Y33943D02*
Y28945D01*
X284115D01*
X271620Y43110D02*
X270787Y43943D01*
X269120D01*
X268287Y43110D01*
Y39778D01*
X269120Y38945D01*
X270787D01*
X271620Y39778D01*
X273286Y43943D02*
Y38945D01*
Y41444D01*
X276618D01*
Y43943D01*
Y38945D01*
X278284Y43110D02*
X279117Y43943D01*
X280783D01*
X281616Y43110D01*
Y42277D01*
X280783Y41444D01*
X281616Y40611D01*
Y39778D01*
X280783Y38945D01*
X279117D01*
X278284Y39778D01*
Y40611D01*
X279117Y41444D01*
X278284Y42277D01*
Y43110D01*
X279117Y41444D02*
X280783D01*
X225787Y33943D02*
Y28945D01*
Y31444D01*
X229120D01*
Y33943D01*
Y28945D01*
X240782Y33943D02*
Y28945D01*
X244115D01*
X231620Y43110D02*
X230787Y43943D01*
X229120D01*
X228287Y43110D01*
Y39778D01*
X229120Y38945D01*
X230787D01*
X231620Y39778D01*
X233286Y43943D02*
Y38945D01*
Y41444D01*
X236618D01*
Y43943D01*
Y38945D01*
X238284Y39778D02*
X239117Y38945D01*
X240783D01*
X241616Y39778D01*
Y43110D01*
X240783Y43943D01*
X239117D01*
X238284Y43110D01*
Y42277D01*
X239117Y41444D01*
X241616D01*
X185787Y33943D02*
Y28945D01*
Y31444D01*
X189120D01*
Y33943D01*
Y28945D01*
X200782Y33943D02*
Y28945D01*
X204115D01*
X189513Y43110D02*
X188680Y43943D01*
X187014D01*
X186181Y43110D01*
Y39778D01*
X187014Y38945D01*
X188680D01*
X189513Y39778D01*
X191180Y43943D02*
Y38945D01*
Y41444D01*
X194512D01*
Y43943D01*
Y38945D01*
X196178D02*
X197844D01*
X197011D01*
Y43943D01*
X196178Y43110D01*
X200343D02*
X201176Y43943D01*
X202842D01*
X203675Y43110D01*
Y39778D01*
X202842Y38945D01*
X201176D01*
X200343Y39778D01*
Y43110D01*
X189613Y-203790D02*
X188780Y-202957D01*
X187114D01*
X186281Y-203790D01*
Y-207122D01*
X187114Y-207955D01*
X188780D01*
X189613Y-207122D01*
X191279Y-202957D02*
Y-207955D01*
Y-205456D01*
X194612D01*
Y-202957D01*
Y-207955D01*
X199610D02*
X196278D01*
X199610Y-204623D01*
Y-203790D01*
X198777Y-202957D01*
X197111D01*
X196278Y-203790D01*
X201276D02*
X202109Y-202957D01*
X203775D01*
X204608Y-203790D01*
Y-207122D01*
X203775Y-207955D01*
X202109D01*
X201276Y-207122D01*
Y-203790D01*
X185887Y-192478D02*
Y-197476D01*
Y-194977D01*
X189220D01*
Y-192478D01*
Y-197476D01*
X200883Y-192478D02*
Y-197476D01*
X204215D01*
X229613Y-203790D02*
X228780Y-202957D01*
X227114D01*
X226281Y-203790D01*
Y-207122D01*
X227114Y-207955D01*
X228780D01*
X229613Y-207122D01*
X231279Y-202957D02*
Y-207955D01*
Y-205456D01*
X234612D01*
Y-202957D01*
Y-207955D01*
X236278D02*
X237944D01*
X237111D01*
Y-202957D01*
X236278Y-203790D01*
X240443Y-207122D02*
X241276Y-207955D01*
X242942D01*
X243775Y-207122D01*
Y-203790D01*
X242942Y-202957D01*
X241276D01*
X240443Y-203790D01*
Y-204623D01*
X241276Y-205456D01*
X243775D01*
X225887Y-192478D02*
Y-197476D01*
Y-194977D01*
X229220D01*
Y-192478D01*
Y-197476D01*
X240882Y-192478D02*
Y-197476D01*
X244215D01*
X269613Y-203790D02*
X268780Y-202957D01*
X267114D01*
X266281Y-203790D01*
Y-207122D01*
X267114Y-207955D01*
X268780D01*
X269613Y-207122D01*
X271280Y-202957D02*
Y-207955D01*
Y-205456D01*
X274612D01*
Y-202957D01*
Y-207955D01*
X276278D02*
X277944D01*
X277111D01*
Y-202957D01*
X276278Y-203790D01*
X280443D02*
X281276Y-202957D01*
X282942D01*
X283775Y-203790D01*
Y-204623D01*
X282942Y-205456D01*
X283775Y-206289D01*
Y-207122D01*
X282942Y-207955D01*
X281276D01*
X280443Y-207122D01*
Y-206289D01*
X281276Y-205456D01*
X280443Y-204623D01*
Y-203790D01*
X281276Y-205456D02*
X282942D01*
X265887Y-192478D02*
Y-197476D01*
Y-194977D01*
X269220D01*
Y-192478D01*
Y-197476D01*
X280883Y-192478D02*
Y-197476D01*
X284215D01*
X309613Y-203790D02*
X308780Y-202957D01*
X307114D01*
X306281Y-203790D01*
Y-207122D01*
X307114Y-207955D01*
X308780D01*
X309613Y-207122D01*
X311280Y-202957D02*
Y-207955D01*
Y-205456D01*
X314612D01*
Y-202957D01*
Y-207955D01*
X316278D02*
X317944D01*
X317111D01*
Y-202957D01*
X316278Y-203790D01*
X320443Y-202957D02*
X323775D01*
Y-203790D01*
X320443Y-207122D01*
Y-207955D01*
X305887Y-192478D02*
Y-197476D01*
Y-194977D01*
X309220D01*
Y-192478D01*
Y-197476D01*
X320883Y-192478D02*
Y-197476D01*
X324215D01*
X349613Y-203790D02*
X348780Y-202957D01*
X347114D01*
X346281Y-203790D01*
Y-207122D01*
X347114Y-207955D01*
X348780D01*
X349613Y-207122D01*
X351279Y-202957D02*
Y-207955D01*
Y-205456D01*
X354612D01*
Y-202957D01*
Y-207955D01*
X356278D02*
X357944D01*
X357111D01*
Y-202957D01*
X356278Y-203790D01*
X363775Y-202957D02*
X362109Y-203790D01*
X360443Y-205456D01*
Y-207122D01*
X361276Y-207955D01*
X362942D01*
X363775Y-207122D01*
Y-206289D01*
X362942Y-205456D01*
X360443D01*
X345887Y-192478D02*
Y-197476D01*
Y-194977D01*
X349220D01*
Y-192478D01*
Y-197476D01*
X360882Y-192478D02*
Y-197476D01*
X364215D01*
X392657Y-203790D02*
X391824Y-202957D01*
X390158D01*
X389324Y-203790D01*
Y-207122D01*
X390158Y-207955D01*
X391824D01*
X392657Y-207122D01*
X394323Y-202957D02*
Y-207955D01*
Y-205456D01*
X397655D01*
Y-202957D01*
Y-207955D01*
X399321D02*
X400987D01*
X400154D01*
Y-202957D01*
X399321Y-203790D01*
X406819Y-202957D02*
X403486D01*
Y-205456D01*
X405153Y-204623D01*
X405986D01*
X406819Y-205456D01*
Y-207122D01*
X405986Y-207955D01*
X404319D01*
X403486Y-207122D01*
X389824Y-192478D02*
Y-197476D01*
Y-194977D01*
X393157D01*
Y-192478D01*
Y-197476D01*
X404819Y-192478D02*
Y-197476D01*
X408152D01*
X432657Y-203790D02*
X431824Y-202957D01*
X430157D01*
X429324Y-203790D01*
Y-207122D01*
X430157Y-207955D01*
X431824D01*
X432657Y-207122D01*
X434323Y-202957D02*
Y-207955D01*
Y-205456D01*
X437655D01*
Y-202957D01*
Y-207955D01*
X439321D02*
X440987D01*
X440154D01*
Y-202957D01*
X439321Y-203790D01*
X445986Y-207955D02*
Y-202957D01*
X443486Y-205456D01*
X446819D01*
X429824Y-192478D02*
Y-197476D01*
Y-194977D01*
X433157D01*
Y-192478D01*
Y-197476D01*
X444819Y-192478D02*
Y-197476D01*
X448152D01*
X472657Y-203790D02*
X471824Y-202957D01*
X470157D01*
X469324Y-203790D01*
Y-207122D01*
X470157Y-207955D01*
X471824D01*
X472657Y-207122D01*
X474323Y-202957D02*
Y-207955D01*
Y-205456D01*
X477655D01*
Y-202957D01*
Y-207955D01*
X479321D02*
X480987D01*
X480154D01*
Y-202957D01*
X479321Y-203790D01*
X483487D02*
X484319Y-202957D01*
X485986D01*
X486819Y-203790D01*
Y-204623D01*
X485986Y-205456D01*
X485153D01*
X485986D01*
X486819Y-206289D01*
Y-207122D01*
X485986Y-207955D01*
X484319D01*
X483487Y-207122D01*
X469824Y-192478D02*
Y-197476D01*
Y-194977D01*
X473157D01*
Y-192478D01*
Y-197476D01*
X484820Y-192478D02*
Y-197476D01*
X488152D01*
X552657Y-203790D02*
X551824Y-202957D01*
X550157D01*
X549324Y-203790D01*
Y-207122D01*
X550157Y-207955D01*
X551824D01*
X552657Y-207122D01*
X554323Y-202957D02*
Y-207955D01*
Y-205456D01*
X557655D01*
Y-202957D01*
Y-207955D01*
X559321D02*
X560987D01*
X560154D01*
Y-202957D01*
X559321Y-203790D01*
X563486Y-207955D02*
X565153D01*
X564320D01*
Y-202957D01*
X563486Y-203790D01*
X549824Y-192478D02*
Y-197476D01*
Y-194977D01*
X553157D01*
Y-192478D01*
Y-197476D01*
X564819Y-192478D02*
Y-197476D01*
X568152D01*
X509824Y-192478D02*
Y-197476D01*
Y-194977D01*
X513157D01*
Y-192478D01*
Y-197476D01*
X524820Y-192478D02*
Y-197476D01*
X528152D01*
X512657Y-203790D02*
X511824Y-202957D01*
X510157D01*
X509324Y-203790D01*
Y-207122D01*
X510157Y-207955D01*
X511824D01*
X512657Y-207122D01*
X514323Y-202957D02*
Y-207955D01*
Y-205456D01*
X517655D01*
Y-202957D01*
Y-207955D01*
X519321D02*
X520987D01*
X520154D01*
Y-202957D01*
X519321Y-203790D01*
X526819Y-207955D02*
X523487D01*
X526819Y-204623D01*
Y-203790D01*
X525986Y-202957D01*
X524320D01*
X523487Y-203790D01*
X609724Y33943D02*
Y28945D01*
Y31444D01*
X613057D01*
Y33943D01*
Y28945D01*
X624719Y33943D02*
Y28945D01*
X628052D01*
X609824Y-192478D02*
Y-197476D01*
Y-194977D01*
X613157D01*
Y-192478D01*
Y-197476D01*
X624820Y-192478D02*
Y-197476D01*
X628152D01*
X711400Y-115000D02*
X710567D01*
Y-114167D01*
X711400D01*
Y-115000D01*
Y-110835D02*
X710567D01*
Y-110002D01*
X711400D01*
Y-110835D01*
Y-106669D02*
X710567D01*
Y-105836D01*
X711400D01*
Y-106669D01*
X688332Y-125835D02*
X687499Y-125002D01*
X685833D01*
X685000Y-125835D01*
Y-129167D01*
X685833Y-130000D01*
X687499D01*
X688332Y-129167D01*
X689998Y-125002D02*
Y-130000D01*
Y-127501D01*
X693331D01*
Y-125002D01*
Y-130000D01*
X694997D02*
X696663D01*
X695830D01*
Y-125002D01*
X694997Y-125835D01*
X699162D02*
X699995Y-125002D01*
X701661D01*
X702494Y-125835D01*
Y-129167D01*
X701661Y-130000D01*
X699995D01*
X699162Y-129167D01*
Y-125835D01*
X727486D02*
X726653Y-125002D01*
X724987D01*
X724154Y-125835D01*
Y-129167D01*
X724987Y-130000D01*
X726653D01*
X727486Y-129167D01*
X729152Y-125002D02*
Y-130000D01*
Y-127501D01*
X732485D01*
Y-125002D01*
Y-130000D01*
X737483D02*
X734151D01*
X737483Y-126668D01*
Y-125835D01*
X736650Y-125002D01*
X734984D01*
X734151Y-125835D01*
X739149D02*
X739982Y-125002D01*
X741648D01*
X742481Y-125835D01*
Y-129167D01*
X741648Y-130000D01*
X739982D01*
X739149Y-129167D01*
Y-125835D01*
X690332Y-95835D02*
X689499Y-95002D01*
X687833D01*
X687000Y-95835D01*
Y-99167D01*
X687833Y-100000D01*
X689499D01*
X690332Y-99167D01*
X691998Y-95002D02*
Y-100000D01*
Y-97501D01*
X695331D01*
Y-95002D01*
Y-100000D01*
X700329D02*
X696997D01*
X700329Y-96668D01*
Y-95835D01*
X699496Y-95002D01*
X697830D01*
X696997Y-95835D01*
X725321D02*
X724488Y-95002D01*
X722822D01*
X721989Y-95835D01*
Y-99167D01*
X722822Y-100000D01*
X724488D01*
X725321Y-99167D01*
X726987Y-95002D02*
Y-100000D01*
Y-97501D01*
X730319D01*
Y-95002D01*
Y-100000D01*
X731985D02*
X733652D01*
X732819D01*
Y-95002D01*
X731985Y-95835D01*
X739483Y-100000D02*
X736151D01*
X739483Y-96668D01*
Y-95835D01*
X738650Y-95002D01*
X736984D01*
X736151Y-95835D01*
X691332Y-85835D02*
X690499Y-85002D01*
X688833D01*
X688000Y-85835D01*
Y-89167D01*
X688833Y-90000D01*
X690499D01*
X691332Y-89167D01*
X692998Y-85002D02*
Y-90000D01*
Y-87501D01*
X696331D01*
Y-85002D01*
Y-90000D01*
X697997D02*
X699663D01*
X698830D01*
Y-85002D01*
X697997Y-85835D01*
X725488D02*
X724655Y-85002D01*
X722989D01*
X722156Y-85835D01*
Y-89167D01*
X722989Y-90000D01*
X724655D01*
X725488Y-89167D01*
X727154Y-85002D02*
Y-90000D01*
Y-87501D01*
X730486D01*
Y-85002D01*
Y-90000D01*
X732152D02*
X733818D01*
X732985D01*
Y-85002D01*
X732152Y-85835D01*
X736318Y-90000D02*
X737984D01*
X737151D01*
Y-85002D01*
X736318Y-85835D01*
X677787Y-80000D02*
Y-75002D01*
X679454Y-76668D01*
X681120Y-75002D01*
Y-80000D01*
X686118Y-75002D02*
X682786D01*
Y-80000D01*
X686118D01*
X682786Y-77501D02*
X684452D01*
X687784Y-80000D02*
Y-76668D01*
X689450Y-75002D01*
X691116Y-76668D01*
Y-80000D01*
Y-77501D01*
X687784D01*
X696115Y-75835D02*
X695282Y-75002D01*
X693616D01*
X692782Y-75835D01*
Y-76668D01*
X693616Y-77501D01*
X695282D01*
X696115Y-78334D01*
Y-79167D01*
X695282Y-80000D01*
X693616D01*
X692782Y-79167D01*
X697781Y-75002D02*
Y-79167D01*
X698614Y-80000D01*
X700280D01*
X701113Y-79167D01*
Y-75002D01*
X702779Y-80000D02*
Y-75002D01*
X705278D01*
X706112Y-75835D01*
Y-77501D01*
X705278Y-78334D01*
X702779D01*
X704445D02*
X706112Y-80000D01*
X711110Y-75002D02*
X707778D01*
Y-80000D01*
X711110D01*
X707778Y-77501D02*
X709444D01*
X721107Y-75835D02*
X720274Y-75002D01*
X718608D01*
X717774Y-75835D01*
Y-76668D01*
X718608Y-77501D01*
X720274D01*
X721107Y-78334D01*
Y-79167D01*
X720274Y-80000D01*
X718608D01*
X717774Y-79167D01*
X726105Y-75002D02*
X722773D01*
Y-80000D01*
X726105D01*
X722773Y-77501D02*
X724439D01*
X727771Y-80000D02*
Y-75002D01*
X731104Y-80000D01*
Y-75002D01*
X736102Y-75835D02*
X735269Y-75002D01*
X733603D01*
X732770Y-75835D01*
Y-76668D01*
X733603Y-77501D01*
X735269D01*
X736102Y-78334D01*
Y-79167D01*
X735269Y-80000D01*
X733603D01*
X732770Y-79167D01*
X741100Y-75002D02*
X737768D01*
Y-80000D01*
X741100D01*
X737768Y-77501D02*
X739434D01*
X672587Y-70000D02*
Y-65002D01*
X670087Y-67501D01*
X673420D01*
X675086Y-65002D02*
Y-70000D01*
X676752Y-68334D01*
X678418Y-70000D01*
Y-65002D01*
X688415Y-65835D02*
X687582Y-65002D01*
X685916D01*
X685082Y-65835D01*
Y-69167D01*
X685916Y-70000D01*
X687582D01*
X688415Y-69167D01*
X690081Y-65002D02*
Y-70000D01*
Y-67501D01*
X693413D01*
Y-65002D01*
Y-70000D01*
X695079D02*
Y-66668D01*
X696745Y-65002D01*
X698412Y-66668D01*
Y-70000D01*
Y-67501D01*
X695079D01*
X700078Y-70000D02*
Y-65002D01*
X703410Y-70000D01*
Y-65002D01*
X705076Y-70000D02*
Y-65002D01*
X708408Y-70000D01*
Y-65002D01*
X713407D02*
X710074D01*
Y-70000D01*
X713407D01*
X710074Y-67501D02*
X711741D01*
X715073Y-65002D02*
Y-70000D01*
X718405D01*
X725070D02*
Y-65002D01*
X727569D01*
X728402Y-65835D01*
Y-67501D01*
X727569Y-68334D01*
X725070D01*
X730068Y-70000D02*
Y-66668D01*
X731734Y-65002D01*
X733400Y-66668D01*
Y-70000D01*
Y-67501D01*
X730068D01*
X735066Y-65002D02*
X736732D01*
X735899D01*
Y-70000D01*
X735066D01*
X736732D01*
X739232D02*
Y-65002D01*
X741731D01*
X742564Y-65835D01*
Y-67501D01*
X741731Y-68334D01*
X739232D01*
X740898D02*
X742564Y-70000D01*
X747562Y-65835D02*
X746729Y-65002D01*
X745063D01*
X744230Y-65835D01*
Y-66668D01*
X745063Y-67501D01*
X746729D01*
X747562Y-68334D01*
Y-69167D01*
X746729Y-70000D01*
X745063D01*
X744230Y-69167D01*
X65913Y18376D02*
Y12378D01*
X68912D01*
X69911Y13378D01*
Y17376D01*
X68912Y18376D01*
X65913D01*
X72910Y16377D02*
X74910D01*
X75909Y15377D01*
Y12378D01*
X72910D01*
X71911Y13378D01*
X72910Y14377D01*
X75909D01*
X78908Y17376D02*
Y16377D01*
X77909D01*
X79908D01*
X78908D01*
Y13378D01*
X79908Y12378D01*
X83907Y16377D02*
X85906D01*
X86906Y15377D01*
Y12378D01*
X83907D01*
X82907Y13378D01*
X83907Y14377D01*
X86906D01*
X116586Y-177480D02*
X115586Y-176480D01*
X113587D01*
X112587Y-177480D01*
Y-181478D01*
X113587Y-182478D01*
X115586D01*
X116586Y-181478D01*
Y-179479D01*
X114587D01*
X118586Y-182478D02*
Y-176480D01*
X122584Y-182478D01*
Y-176480D01*
X124583D02*
Y-182478D01*
X127583D01*
X128582Y-181478D01*
Y-177480D01*
X127583Y-176480D01*
X124583D01*
X80037Y-176630D02*
X84036D01*
X82037D01*
Y-182628D01*
X86036Y-178629D02*
X90034Y-182628D01*
X88035Y-180629D01*
X90034Y-178629D01*
X86036Y-182628D01*
X64011Y43176D02*
X63012Y44176D01*
X61012D01*
X60013Y43176D01*
Y42177D01*
X61012Y41177D01*
X63012D01*
X64011Y40177D01*
Y39178D01*
X63012Y38178D01*
X61012D01*
X60013Y39178D01*
X67010Y43176D02*
Y42177D01*
X66011D01*
X68010D01*
X67010D01*
Y39178D01*
X68010Y38178D01*
X71009Y42177D02*
Y38178D01*
Y40177D01*
X72009Y41177D01*
X73008Y42177D01*
X74008D01*
X78007Y38178D02*
X80006D01*
X81006Y39178D01*
Y41177D01*
X80006Y42177D01*
X78007D01*
X77007Y41177D01*
Y39178D01*
X78007Y38178D01*
X83005Y44176D02*
Y38178D01*
X86004D01*
X87004Y39178D01*
Y40177D01*
Y41177D01*
X86004Y42177D01*
X83005D01*
X92002Y38178D02*
X90003D01*
X89003Y39178D01*
Y41177D01*
X90003Y42177D01*
X92002D01*
X93002Y41177D01*
Y40177D01*
X89003D01*
X101711Y17276D02*
X100712Y18276D01*
X98712D01*
X97713Y17276D01*
Y13278D01*
X98712Y12278D01*
X100712D01*
X101711Y13278D01*
Y15277D01*
X99712D01*
X103711Y12278D02*
Y18276D01*
X107709Y12278D01*
Y18276D01*
X109709D02*
Y12278D01*
X112708D01*
X113707Y13278D01*
Y17276D01*
X112708Y18276D01*
X109709D01*
X102099Y43198D02*
X101099Y44198D01*
X99100D01*
X98100Y43198D01*
Y39200D01*
X99100Y38200D01*
X101099D01*
X102099Y39200D01*
X104098Y38200D02*
X106097D01*
X105098D01*
Y44198D01*
X104098D01*
X110096Y38200D02*
X112095D01*
X113095Y39200D01*
Y41199D01*
X112095Y42199D01*
X110096D01*
X109096Y41199D01*
Y39200D01*
X110096Y38200D01*
X119093Y42199D02*
X116094D01*
X115094Y41199D01*
Y39200D01*
X116094Y38200D01*
X119093D01*
X121093D02*
Y44198D01*
Y40199D02*
X124092Y42199D01*
X121093Y40199D02*
X124092Y38200D01*
X13137Y-180329D02*
X17136D01*
X15137Y-178330D02*
Y-182328D01*
X23134Y-177330D02*
X19136D01*
Y-180329D01*
X21135Y-179329D01*
X22135D01*
X23134Y-180329D01*
Y-182328D01*
X22135Y-183328D01*
X20135D01*
X19136Y-182328D01*
X25133Y-177330D02*
Y-181329D01*
X27133Y-183328D01*
X29132Y-181329D01*
Y-177330D01*
X39337Y-179729D02*
X43336D01*
X41337Y-177730D02*
Y-181728D01*
X45336Y-177730D02*
X46335Y-176730D01*
X48335D01*
X49334Y-177730D01*
Y-178729D01*
X48335Y-179729D01*
X47335D01*
X48335D01*
X49334Y-180729D01*
Y-181728D01*
X48335Y-182728D01*
X46335D01*
X45336Y-181728D01*
X51333Y-176730D02*
Y-180729D01*
X53333Y-182728D01*
X55332Y-180729D01*
Y-176730D01*
X57332Y-177730D02*
X58331Y-176730D01*
X60331D01*
X61330Y-177730D01*
Y-178729D01*
X60331Y-179729D01*
X59331D01*
X60331D01*
X61330Y-180729D01*
Y-181728D01*
X60331Y-182728D01*
X58331D01*
X57332Y-181728D01*
D47*
X21487Y-62800D02*
X22287D01*
X21487Y-57200D02*
X22287D01*
X21487Y-42800D02*
X22287D01*
X21487Y-37200D02*
X22287D01*
X21487Y-12800D02*
X22287D01*
X21487Y-7200D02*
X22287D01*
X21487Y-22800D02*
X22287D01*
X21487Y-17200D02*
X22287D01*
X21487Y-32800D02*
X22287D01*
X21487Y-27200D02*
X22287D01*
X21487Y-52800D02*
X22287D01*
X21487Y-47200D02*
X22287D01*
X21487Y-72800D02*
X22287D01*
X21487Y-67200D02*
X22287D01*
X25400Y-104000D02*
Y-103200D01*
X31000Y-104000D02*
Y-103200D01*
X71700Y-167600D02*
Y-166800D01*
X66100Y-167600D02*
Y-166800D01*
X18093Y-104291D02*
Y-103491D01*
X12493Y-104291D02*
Y-103491D01*
D48*
X662600Y-35900D02*
X665932D01*
X664266D01*
Y-25903D01*
X662600Y-27569D01*
X677595Y-25903D02*
X674263Y-27569D01*
X670931Y-30902D01*
Y-34234D01*
X672597Y-35900D01*
X675929D01*
X677595Y-34234D01*
Y-32568D01*
X675929Y-30902D01*
X670931D01*
X680927Y-27569D02*
X682593Y-25903D01*
X685926D01*
X687592Y-27569D01*
Y-34234D01*
X685926Y-35900D01*
X682593D01*
X680927Y-34234D01*
Y-27569D01*
X690924Y-25903D02*
Y-32568D01*
X694256Y-35900D01*
X697589Y-32568D01*
Y-25903D01*
X700921Y-39232D02*
Y-29236D01*
X705919D01*
X707585Y-30902D01*
Y-34234D01*
X705919Y-35900D01*
X700921D01*
X710918D02*
X717582Y-29236D01*
X720915Y-27569D02*
X722581Y-25903D01*
X725913D01*
X727579Y-27569D01*
Y-34234D01*
X725913Y-35900D01*
X722581D01*
X720915Y-34234D01*
Y-27569D01*
X730911Y-35900D02*
Y-34234D01*
X732577D01*
Y-35900D01*
X730911D01*
X739242Y-25903D02*
X745906D01*
Y-27569D01*
X739242Y-34234D01*
Y-35900D01*
X749239D02*
Y-29236D01*
X752571Y-25903D01*
X755903Y-29236D01*
Y-35900D01*
Y-30902D01*
X749239D01*
X805887Y-155781D02*
Y-165778D01*
X795891Y-155781D01*
X793391D01*
X790892Y-158280D01*
Y-163279D01*
X793391Y-165778D01*
Y-150783D02*
X790892Y-148284D01*
Y-143285D01*
X793391Y-140786D01*
X803388D01*
X805887Y-143285D01*
Y-148284D01*
X803388Y-150783D01*
X793391D01*
Y-135788D02*
X790892Y-133289D01*
Y-128290D01*
X793391Y-125791D01*
X803388D01*
X805887Y-128290D01*
Y-133289D01*
X803388Y-135788D01*
X793391D01*
Y-120792D02*
X790892Y-118293D01*
Y-113295D01*
X793391Y-110796D01*
X803388D01*
X805887Y-113295D01*
Y-118293D01*
X803388Y-120792D01*
X793391D01*
X798390Y-105797D02*
Y-95801D01*
X793391Y-80805D02*
X790892Y-83305D01*
Y-88303D01*
X793391Y-90802D01*
X795891D01*
X798390Y-88303D01*
Y-83305D01*
X800889Y-80805D01*
X803388D01*
X805887Y-83305D01*
Y-88303D01*
X803388Y-90802D01*
X793391Y-65810D02*
X790892Y-68309D01*
Y-73308D01*
X793391Y-75807D01*
X803388D01*
X805887Y-73308D01*
Y-68309D01*
X803388Y-65810D01*
X805887Y-60812D02*
X795891D01*
X790892Y-55813D01*
X795891Y-50815D01*
X805887D01*
X798390D01*
Y-60812D01*
X805887Y-45817D02*
X790892D01*
X805887Y-35820D01*
X790892D01*
X798390Y-30822D02*
Y-20825D01*
X805887Y-5830D02*
Y-15826D01*
X795891Y-5830D01*
X793391D01*
X790892Y-8329D01*
Y-13327D01*
X793391Y-15826D01*
Y-831D02*
X790892Y1668D01*
Y6666D01*
X793391Y9166D01*
X803388D01*
X805887Y6666D01*
Y1668D01*
X803388Y-831D01*
X793391D01*
%TF.MD5,f13bf9e33a3416e22fd542df3f309b47*%
M02*
