%TF.GenerationSoftware,Altium Limited,Altium Designer,20.0.1 (14)*%
G04 Layer_Color=8388736*
%FSLAX25Y25*%
%MOIN*%
%TF.FileFunction,Soldermask,Top*%
%TF.Part,Single*%
G01*
G75*
%TA.AperFunction,SMDPad,CuDef*%
%ADD37O,0.10839X0.02178*%
%TA.AperFunction,ComponentPad*%
%ADD38R,0.08280X0.08280*%
%ADD39C,0.08280*%
%ADD40O,0.04973X0.10642*%
%ADD41R,0.08280X0.08280*%
%ADD42C,0.10642*%
%ADD43C,0.18517*%
%ADD44C,0.08674*%
%ADD45O,0.03950X0.07099*%
%TA.AperFunction,ViaPad*%
%ADD46C,0.32296*%
%TA.AperFunction,SMDPad,CuDef*%
%ADD49O,0.02769X0.08477*%
%ADD50O,0.08477X0.02769*%
%ADD51R,0.05131X0.06312*%
%ADD52R,0.04800X0.06300*%
%ADD53R,0.06312X0.05131*%
%ADD54R,0.06300X0.04800*%
%ADD55R,0.06312X0.06706*%
%ADD56R,0.05918X0.03556*%
D37*
X118039Y-105982D02*
D03*
Y-108482D02*
D03*
Y-110982D02*
D03*
Y-113482D02*
D03*
Y-115982D02*
D03*
Y-118482D02*
D03*
Y-120982D02*
D03*
Y-123482D02*
D03*
X137134Y-105982D02*
D03*
Y-108482D02*
D03*
Y-110982D02*
D03*
Y-113482D02*
D03*
Y-115982D02*
D03*
Y-118482D02*
D03*
Y-120982D02*
D03*
Y-123482D02*
D03*
X118040Y-72427D02*
D03*
Y-74927D02*
D03*
Y-77427D02*
D03*
Y-79927D02*
D03*
Y-82427D02*
D03*
Y-84927D02*
D03*
Y-87427D02*
D03*
Y-89927D02*
D03*
X137135Y-72427D02*
D03*
Y-74927D02*
D03*
Y-77427D02*
D03*
Y-79927D02*
D03*
Y-82427D02*
D03*
Y-84927D02*
D03*
Y-87427D02*
D03*
Y-89927D02*
D03*
X118040Y-39028D02*
D03*
Y-41528D02*
D03*
Y-44028D02*
D03*
Y-46528D02*
D03*
Y-49028D02*
D03*
Y-51528D02*
D03*
Y-54028D02*
D03*
Y-56528D02*
D03*
X137135Y-39028D02*
D03*
Y-41528D02*
D03*
Y-44028D02*
D03*
Y-46528D02*
D03*
Y-49028D02*
D03*
Y-51528D02*
D03*
Y-54028D02*
D03*
Y-56528D02*
D03*
D38*
X379724Y-57378D02*
D03*
X399724D02*
D03*
X419724D02*
D03*
X439724D02*
D03*
X459724D02*
D03*
X479724D02*
D03*
X499724D02*
D03*
X519724D02*
D03*
X539724D02*
D03*
X559724D02*
D03*
X175787D02*
D03*
X195787D02*
D03*
X215787D02*
D03*
X235787D02*
D03*
X255787D02*
D03*
X275787D02*
D03*
X295787D02*
D03*
X315787D02*
D03*
X335787D02*
D03*
X355787D02*
D03*
X389724Y-105378D02*
D03*
X409724D02*
D03*
X429724D02*
D03*
X449724D02*
D03*
X469724D02*
D03*
X489724D02*
D03*
X509724D02*
D03*
X529724D02*
D03*
X549724D02*
D03*
X569724D02*
D03*
X185787D02*
D03*
X205787D02*
D03*
X225787D02*
D03*
X245787D02*
D03*
X265787D02*
D03*
X285787D02*
D03*
X305787D02*
D03*
X325787D02*
D03*
X345787D02*
D03*
X365787D02*
D03*
X599724Y-57378D02*
D03*
X619724D02*
D03*
X609724Y-105378D02*
D03*
X629724D02*
D03*
X75000Y5000D02*
D03*
X105000Y30000D02*
D03*
X75000D02*
D03*
X120287Y-190678D02*
D03*
X43387Y-190778D02*
D03*
D39*
X389724Y-57378D02*
D03*
X409724D02*
D03*
X429724D02*
D03*
X449724D02*
D03*
X469724D02*
D03*
X489724D02*
D03*
X509724D02*
D03*
X529724D02*
D03*
X549724D02*
D03*
X569724D02*
D03*
X185787D02*
D03*
X205787D02*
D03*
X225787D02*
D03*
X245787D02*
D03*
X265787D02*
D03*
X285787D02*
D03*
X305787D02*
D03*
X325787D02*
D03*
X345787D02*
D03*
X365787D02*
D03*
X379724Y-105378D02*
D03*
X399724D02*
D03*
X419724D02*
D03*
X439724D02*
D03*
X459724D02*
D03*
X479724D02*
D03*
X499724D02*
D03*
X519724D02*
D03*
X539724D02*
D03*
X559724D02*
D03*
X175787D02*
D03*
X195787D02*
D03*
X215787D02*
D03*
X235787D02*
D03*
X255787D02*
D03*
X275787D02*
D03*
X295787D02*
D03*
X315787D02*
D03*
X335787D02*
D03*
X355787D02*
D03*
X609724Y-57378D02*
D03*
X629724D02*
D03*
X599724Y-105378D02*
D03*
X619724D02*
D03*
D40*
X379724Y-27378D02*
D03*
X389724D02*
D03*
X409724D02*
D03*
X399724D02*
D03*
X419724D02*
D03*
X429724D02*
D03*
X449724D02*
D03*
X439724D02*
D03*
X459724D02*
D03*
X469724D02*
D03*
X489724D02*
D03*
X479724D02*
D03*
X499724D02*
D03*
X509724D02*
D03*
X529724D02*
D03*
X519724D02*
D03*
X539724D02*
D03*
X549724D02*
D03*
X569724D02*
D03*
X559724D02*
D03*
X175787D02*
D03*
X185787D02*
D03*
X205787D02*
D03*
X195787D02*
D03*
X215787D02*
D03*
X225787D02*
D03*
X245787D02*
D03*
X235787D02*
D03*
X255787D02*
D03*
X265787D02*
D03*
X285787D02*
D03*
X275787D02*
D03*
X295787D02*
D03*
X305787D02*
D03*
X325787D02*
D03*
X315787D02*
D03*
X335787D02*
D03*
X345787D02*
D03*
X365787D02*
D03*
X355787D02*
D03*
X389724Y-135378D02*
D03*
X379724D02*
D03*
X399724D02*
D03*
X409724D02*
D03*
X429724D02*
D03*
X419724D02*
D03*
X439724D02*
D03*
X449724D02*
D03*
X469724D02*
D03*
X459724D02*
D03*
X479724D02*
D03*
X489724D02*
D03*
X509724D02*
D03*
X499724D02*
D03*
X519724D02*
D03*
X529724D02*
D03*
X549724D02*
D03*
X539724D02*
D03*
X559724D02*
D03*
X569724D02*
D03*
X185787D02*
D03*
X175787D02*
D03*
X195787D02*
D03*
X205787D02*
D03*
X225787D02*
D03*
X215787D02*
D03*
X235787D02*
D03*
X245787D02*
D03*
X265787D02*
D03*
X255787D02*
D03*
X275787D02*
D03*
X285787D02*
D03*
X305787D02*
D03*
X295787D02*
D03*
X315787D02*
D03*
X325787D02*
D03*
X345787D02*
D03*
X335787D02*
D03*
X355787D02*
D03*
X365787D02*
D03*
X599724Y-27378D02*
D03*
X609724D02*
D03*
X629724D02*
D03*
X619724D02*
D03*
X609724Y-135378D02*
D03*
X599724D02*
D03*
X619724D02*
D03*
X629724D02*
D03*
D41*
X105000Y5000D02*
D03*
X83987Y-190678D02*
D03*
X17087Y-191378D02*
D03*
D42*
X629724Y1945D02*
D03*
X609724D02*
D03*
X629724Y-165378D02*
D03*
X609724D02*
D03*
X569724Y1945D02*
D03*
X549724D02*
D03*
X529724D02*
D03*
X509724D02*
D03*
X489724D02*
D03*
X469724D02*
D03*
X449724D02*
D03*
X429724D02*
D03*
X409724D02*
D03*
X389724D02*
D03*
X185787D02*
D03*
X205787D02*
D03*
X225787D02*
D03*
X245787D02*
D03*
X265787D02*
D03*
X285787D02*
D03*
X305787D02*
D03*
X325787D02*
D03*
X345787D02*
D03*
X365787D02*
D03*
X389724Y-165378D02*
D03*
X409724D02*
D03*
X429724D02*
D03*
X449724D02*
D03*
X469724D02*
D03*
X489724D02*
D03*
X509724D02*
D03*
X529724D02*
D03*
X549724D02*
D03*
X569724D02*
D03*
X365787D02*
D03*
X345787D02*
D03*
X325787D02*
D03*
X305787D02*
D03*
X285787D02*
D03*
X265787D02*
D03*
X245787D02*
D03*
X225787D02*
D03*
X205787D02*
D03*
X185787D02*
D03*
D43*
X-20000Y20000D02*
D03*
Y-170000D02*
D03*
D44*
X-10000Y0D02*
D03*
Y-10000D02*
D03*
Y-20000D02*
D03*
Y-30000D02*
D03*
Y-40000D02*
D03*
Y-50000D02*
D03*
Y-60000D02*
D03*
Y-70000D02*
D03*
Y-80000D02*
D03*
Y-90000D02*
D03*
Y-100000D02*
D03*
Y-110000D02*
D03*
Y-120000D02*
D03*
Y-130000D02*
D03*
Y-140000D02*
D03*
Y-150000D02*
D03*
X0Y0D02*
D03*
Y-10000D02*
D03*
Y-20000D02*
D03*
Y-30000D02*
D03*
Y-40000D02*
D03*
Y-50000D02*
D03*
Y-60000D02*
D03*
Y-70000D02*
D03*
Y-80000D02*
D03*
Y-90000D02*
D03*
Y-100000D02*
D03*
Y-110000D02*
D03*
Y-120000D02*
D03*
Y-130000D02*
D03*
Y-140000D02*
D03*
Y-150000D02*
D03*
D45*
X25166Y26522D02*
D03*
X30087D02*
D03*
X35009D02*
D03*
X39930D02*
D03*
X44851D02*
D03*
X49772D02*
D03*
D46*
X749724Y1945D02*
D03*
Y-165378D02*
D03*
X145787Y1945D02*
D03*
X145787Y-165378D02*
D03*
X669724D02*
D03*
Y1945D02*
D03*
D49*
X56653Y-64246D02*
D03*
X59803D02*
D03*
X62953D02*
D03*
X66102D02*
D03*
X69252D02*
D03*
X72402D02*
D03*
X75551D02*
D03*
X78701D02*
D03*
Y-97710D02*
D03*
X75551D02*
D03*
X72402D02*
D03*
X69252D02*
D03*
X66102D02*
D03*
X62953D02*
D03*
X59803D02*
D03*
X56653D02*
D03*
D50*
X84409Y-69954D02*
D03*
Y-73104D02*
D03*
Y-76253D02*
D03*
Y-79403D02*
D03*
Y-82553D02*
D03*
Y-85702D02*
D03*
Y-88852D02*
D03*
Y-92002D02*
D03*
X50945D02*
D03*
Y-88852D02*
D03*
Y-85702D02*
D03*
Y-82553D02*
D03*
Y-79403D02*
D03*
Y-76253D02*
D03*
Y-73104D02*
D03*
Y-69954D02*
D03*
D51*
X24258Y-90000D02*
D03*
X18353D02*
D03*
X24258Y-80000D02*
D03*
X18353D02*
D03*
D52*
X18187Y-60000D02*
D03*
X25587D02*
D03*
X18187Y-40000D02*
D03*
X25587D02*
D03*
X18187Y-10000D02*
D03*
X25587D02*
D03*
X18187Y-20000D02*
D03*
X25587D02*
D03*
X18187Y-30000D02*
D03*
X25587D02*
D03*
X18187Y-50000D02*
D03*
X25587D02*
D03*
X18187Y-70000D02*
D03*
X25587D02*
D03*
D53*
X28300Y-143785D02*
D03*
Y-149691D02*
D03*
X80800Y-143785D02*
D03*
Y-149691D02*
D03*
X55200Y-164300D02*
D03*
Y-170205D02*
D03*
X68900Y-143785D02*
D03*
Y-149691D02*
D03*
X17092Y-143785D02*
D03*
Y-149691D02*
D03*
D54*
X28200Y-99900D02*
D03*
Y-107300D02*
D03*
X68900Y-170900D02*
D03*
Y-163500D02*
D03*
X15293Y-107591D02*
D03*
Y-100190D02*
D03*
D55*
X65424Y-190478D02*
D03*
X57550D02*
D03*
X105324Y-190578D02*
D03*
X97450D02*
D03*
D56*
X45700Y-143360D02*
D03*
Y-147100D02*
D03*
Y-150840D02*
D03*
X55149D02*
D03*
Y-143360D02*
D03*
%TF.MD5,9be9412ef8dc164ca94e602af6fa9d86*%
M02*
